<?xml version="1.0" encoding="UTF-8"?>
<!DOCTYPE svg PUBLIC "-//W3C//DTD SVG 1.1//EN" "http://www.w3.org/Graphics/SVG/1.1/DTD/svg11.dtd">
<!-- Creator: CorelDRAW 2021 (64 Bit) -->
<svg xmlns="http://www.w3.org/2000/svg" xml:space="preserve" width="4.064mm" height="4.064mm" version="1.1" style="shape-rendering:geometricPrecision; text-rendering:geometricPrecision; image-rendering:optimizeQuality; fill-rule:evenodd; clip-rule:evenodd"
viewBox="0 0 12.71 12.71"
 xmlns:xlink="http://www.w3.org/1999/xlink"
 xmlns:xodm="http://www.corel.com/coreldraw/odm/2003">
 <defs>
  <style type="text/css">
   <![CDATA[
    .fil0 {fill:url(#id0)}
   ]]>
  </style>
  <linearGradient id="id0" gradientUnits="userSpaceOnUse" x1="-0" y1="6.36" x2="12.71" y2="6.36">
   <stop offset="0" style="stop-opacity:1; stop-color:#00FF95"/>
   <stop offset="1" style="stop-opacity:1; stop-color:#00AEFF"/>
  </linearGradient>
 </defs>
 <g id="Camada_x0020_1">
  <metadata id="CorelCorpID_0Corel-Layer"/>
  <path class="fil0" d="M7.76 1.91c0.39,0.51 0.32,0.68 0.39,0.99 0.04,0.17 0.15,0.12 0.15,0.5 0,0.36 -0.37,1.59 -0.51,2.06 -0.12,0.42 -0.28,0.63 -0.34,1.2 -0.06,0.51 -0.03,0.8 -0.24,1.3 -0.05,0.12 -0.13,0.25 -0.16,0.34 0.11,0.47 0.21,0.84 0.37,1.26l0.2 0.49 0.32 0.7c0.05,0.14 0.18,0.37 0.17,0.51 -0.26,0.17 -1.32,0.22 -1.7,0.23 -0.49,0.01 -1.36,-0.06 -1.75,-0.21 -0,-0.15 0.1,-0.41 0.17,-0.51l0.31 -0.73 0.21 -0.47 0.05 -0.19 0.15 -0.54 -0.15 -1.98c-0.04,-0.12 -0.12,-0.24 -0.17,-0.38 -0.23,-0.58 -0.75,-2.47 -0.82,-3.01 0.06,-0.09 0.07,-0.11 0.2,-0.15 -0.11,-0.97 0.37,-1.62 0.99,-1.91 0.86,-0.41 1.75,-0.05 2.15,0.49zm-1.22 10.81l-0.4 0c-0.86,-0.03 -1.71,-0.22 -2.48,-0.59 -0.36,-0.17 -0.66,-0.35 -0.97,-0.57 -0.92,-0.67 -1.62,-1.45 -2.12,-2.53 -0.42,-0.91 -0.58,-1.7 -0.58,-2.85 0,-2.38 1.55,-4.62 3.68,-5.6 0.91,-0.42 1.7,-0.58 2.85,-0.58 1.62,0 3.24,0.77 4.33,1.86 0.5,0.5 0.96,1.14 1.28,1.83 0.42,0.91 0.58,1.7 0.58,2.85 0,2.38 -1.55,4.62 -3.68,5.6 -0.77,0.36 -1.63,0.55 -2.49,0.58z"/>
 </g>
</svg>
