<?xml version="1.0" encoding="UTF-8"?>
<!DOCTYPE svg PUBLIC "-//W3C//DTD SVG 1.1//EN" "http://www.w3.org/Graphics/SVG/1.1/DTD/svg11.dtd">
<!-- Creator: CorelDRAW 2021 (64 Bit) -->
<svg xmlns="http://www.w3.org/2000/svg" xml:space="preserve" width="13.2292mm" height="13.2292mm" version="1.1" style="shape-rendering:geometricPrecision; text-rendering:geometricPrecision; image-rendering:optimizeQuality; fill-rule:evenodd; clip-rule:evenodd"
viewBox="0 0 1308.34 1308.34"
 xmlns:xlink="http://www.w3.org/1999/xlink"
 xmlns:xodm="http://www.corel.com/coreldraw/odm/2003">
 <defs>
  <style type="text/css">
   <![CDATA[
    .fil0 {fill:#D80027}
    .fil1 {fill:#F0EFEF}
   ]]>
  </style>
 </defs>
 <g id="Camada_x0020_1">
  <metadata id="CorelCorpID_0Corel-Layer"/>
  <g id="_1361001136832">
   <path class="fil0" d="M-0 633.73c0,97.29 6,151.24 37.34,241.19 15.22,43.7 29.12,68.7 50.41,108.03 4.94,9.12 9.48,15.2 14.58,23.75 20.98,35.12 60.69,82.65 88.68,110.64 26.51,26.51 54.35,49.35 84.95,70.93 38.39,27.08 56.9,37.74 99.63,58.79 60.53,29.81 165.56,61.29 255.58,61.29l3.46 0c72.14,-0.02 106.66,-0.66 179.53,-18.88 21.99,-5.5 40.21,-11.3 60.75,-18.46 83.83,-29.2 135.26,-65.39 200.89,-115.97 131.07,-101.03 232.53,-305.88 232.53,-477.87 0,-117.99 -13.92,-202.97 -60.45,-299.86 -70.76,-147.38 -170.73,-243.05 -315.18,-315.99 -69.09,-34.88 -177.18,-61.32 -255.55,-61.32 -98.48,0 -152.23,5.45 -243.74,37.34 -18.24,6.36 -39.58,14.79 -56.09,23.11l-75.68 41.87c-107.32,64.1 -185.52,164.58 -241.19,275 -35.03,69.47 -60.46,177.77 -60.46,256.4z"/>
   <path class="fil1" d="M613.96 344.19c-174.84,23.73 -292.99,182.03 -269.8,351.85 21.52,157.63 166.13,293.4 351.33,268.24 157.68,-21.43 294.34,-166.02 268.76,-351.61 -23.73,-172.17 -181.26,-291.41 -350.28,-268.48z"/>
   <path class="fil0" d="M807.94 820.46c-34.45,12.07 -54.6,21.2 -97.64,17.95 -33.66,-2.55 -64.03,-14.85 -87.41,-30.3 -144.69,-95.61 -87.42,-321.71 84.83,-337.95 43.19,-4.07 65.71,5.48 100.23,17.72 -16.57,-24.23 -74.41,-49.76 -109.68,-56.94 -133.26,-27.1 -271.61,73.26 -271.59,223.23 0.03,150.16 137.94,249.08 269.47,223.63 35.99,-6.96 94.7,-32.67 111.78,-57.34z"/>
   <path class="fil0" d="M692.65 626.46c-15.95,3.64 -71.54,20.28 -82.42,27.71l82.27 28.07 0.12 89.78 52.65 -71.82 85.07 26.98c-7.84,-19.36 -37.69,-50.57 -49.87,-73.01 12.45,-20.92 43.48,-56.64 50.27,-72.38l-85.25 27.05c-6.13,-11.7 -44.1,-64.42 -52.61,-72.43l-0.23 90.06z"/>
  </g>
 </g>
</svg>
