<?xml version="1.0" encoding="UTF-8"?>
<!DOCTYPE svg PUBLIC "-//W3C//DTD SVG 1.1//EN" "http://www.w3.org/Graphics/SVG/1.1/DTD/svg11.dtd">
<!-- Creator: CorelDRAW 2021 (64 Bit) -->
<svg xmlns="http://www.w3.org/2000/svg" xml:space="preserve" width="13.2248mm" height="13.2292mm" version="1.1" style="shape-rendering:geometricPrecision; text-rendering:geometricPrecision; image-rendering:optimizeQuality; fill-rule:evenodd; clip-rule:evenodd"
viewBox="0 0 1307.39 1307.83"
 xmlns:xlink="http://www.w3.org/1999/xlink"
 xmlns:xodm="http://www.corel.com/coreldraw/odm/2003">
 <defs>
  <style type="text/css">
   <![CDATA[
    .fil1 {fill:#D80027}
    .fil0 {fill:#F0F0F0}
   ]]>
  </style>
 </defs>
 <g id="Camada_x0020_1">
  <metadata id="CorelCorpID_0Corel-Layer"/>
  <g id="_2102792645088">
   <path class="fil0" d="M40.87 881.3l1226.09 0c1.84,-2.68 0.26,0.55 2.72,-4.98 9.45,-21.2 22.47,-76.53 26.87,-98.31 19.98,-98.84 12.94,-251.84 -26.09,-344.72l-3.5 -6.76 -1226.09 0 -16.99 49.47c-5.44,18.78 -8.46,33.34 -12.59,53.82 -6.27,31 -9.97,62.79 -11.28,94.84l0 52.97c2.62,65.43 14.84,130.68 35.36,191.26l5.51 12.42z"/>
   <path class="fil1" d="M40.87 426.53l1226.09 0c-11.01,-46.81 -60.87,-127.02 -90.86,-167.08 -123.06,-164.27 -306.86,-251.75 -494.39,-259.45l-53.93 0c-198.1,8.03 -394.29,105.23 -521.53,295.28 -19.87,29.68 -57.45,97.49 -65.39,131.25z"/>
   <path class="fil1" d="M1266.96 881.3l-1226.09 0c4.73,20.11 28.21,69.55 39.4,88.27 51.89,86.93 95.62,143.78 182.11,208.71 109.28,82.04 239.36,125.24 370.42,129.55l43.74 0c130.19,-4.33 259.17,-47.1 367.48,-128.45 62.54,-46.97 114.96,-101.64 157.59,-166.81 20.06,-30.64 57.23,-96.67 65.37,-131.28z"/>
  </g>
 </g>
</svg>
