<?xml version="1.0" encoding="UTF-8"?>
<!DOCTYPE svg PUBLIC "-//W3C//DTD SVG 1.1//EN" "http://www.w3.org/Graphics/SVG/1.1/DTD/svg11.dtd">
<!-- Creator: CorelDRAW 2021 (64 Bit) -->
<svg xmlns="http://www.w3.org/2000/svg" xml:space="preserve" width="13.2292mm" height="13.2292mm" version="1.1" style="shape-rendering:geometricPrecision; text-rendering:geometricPrecision; image-rendering:optimizeQuality; fill-rule:evenodd; clip-rule:evenodd"
viewBox="0 0 1308.26 1308.26"
 xmlns:xlink="http://www.w3.org/1999/xlink"
 xmlns:xodm="http://www.corel.com/coreldraw/odm/2003">
 <defs>
  <style type="text/css">
   <![CDATA[
    .fil0 {fill:#328AF3}
    .fil1 {fill:#FFD944}
   ]]>
  </style>
 </defs>
 <g id="Camada_x0020_1">
  <metadata id="CorelCorpID_0Corel-Layer"/>
  <g id="_2102774126496">
   <path class="fil0" d="M-0 654.11l1308.26 -0.01c0,-363.57 -290.58,-654.1 -654.13,-654.1 -56.22,0 -102.39,4.52 -147.72,15.82 -43.23,10.77 -84.1,23.52 -122.3,41.23 -76.12,35.29 -137.5,78.34 -193.12,133.95 -123.64,123.64 -191,284.72 -191,463.11z"/>
   <path class="fil1" d="M1308.26 654.1l-1308.26 0.01c0,91.94 19.07,188.53 57.05,270.03 56.3,120.83 121.36,190.94 223.3,267.3 16.59,12.43 31.39,21.27 50.06,31.71 54.45,30.45 113.27,55.84 176.14,69.16 44.5,9.42 86.69,14.73 128.57,15.95l37.59 0c42.04,-1.23 84.36,-6.56 128.99,-15.96 74.32,-15.67 167.01,-56.52 226.22,-100.86l109.16 -95.26 37.23 -44.53c54.84,-73.21 98.83,-159.37 118.01,-249.93 10.39,-49.06 15.95,-88.27 15.95,-147.62z"/>
  </g>
 </g>
</svg>
