<?xml version="1.0" encoding="UTF-8"?>
<!DOCTYPE svg PUBLIC "-//W3C//DTD SVG 1.1//EN" "http://www.w3.org/Graphics/SVG/1.1/DTD/svg11.dtd">
<!-- Creator: CorelDRAW 2021 (64 Bit) -->
<svg xmlns="http://www.w3.org/2000/svg" xml:space="preserve" width="13.2292mm" height="13.2292mm" version="1.1" style="shape-rendering:geometricPrecision; text-rendering:geometricPrecision; image-rendering:optimizeQuality; fill-rule:evenodd; clip-rule:evenodd"
viewBox="0 0 5135.62 5135.62"
 xmlns:xlink="http://www.w3.org/1999/xlink"
 xmlns:xodm="http://www.corel.com/coreldraw/odm/2003">
 <defs>
  <style type="text/css">
   <![CDATA[
    .fil2 {fill:#496E2D}
    .fil1 {fill:#D70027}
    .fil0 {fill:#FFD943}
   ]]>
  </style>
 </defs>
 <g id="Camada_x0020_1">
  <metadata id="CorelCorpID_0Corel-Layer"/>
  <g id="_2547883267520">
   <path class="fil0" d="M2571.81 1687.02l216.04 670.08 712 2.25 -432.73 316.7c-48.84,33.97 -90.8,69.22 -141.89,98.45l217.24 676.44c-69.8,-31.25 -497.02,-369.38 -574.66,-408.23 -101.32,54.54 -497.6,375.94 -576.99,407.73l214.29 -671.98 -568.95 -421.05 709.99 -0.89 225.66 -669.5zm-152.76 -1687.02l296.55 0c315.03,19.99 632.62,103.61 969.15,250.78l0 4634.06c-164.09,71.74 -313.47,134.12 -504.98,180.67 -156.33,38.01 -308.16,60.99 -456.84,70.11l-297.33 0c-331.25,-20.54 -650.86,-108.89 -974.7,-250.78l0 -4634.06c336.3,-147.32 653.54,-230.83 968.14,-250.78z"/>
   <path class="fil1" d="M3684.75 4884.84c54.54,-36.53 193.05,-100.82 297.36,-170.5 131.25,-87.7 277.64,-202.06 388.67,-313.44 22.4,-22.48 38.2,-37.58 60.4,-60.02l263.12 -328.65c270.85,-408.97 417.9,-860.3 441.31,-1315.27l0 -258.31c-23.37,-454.97 -170.46,-906.26 -441.31,-1315.27 -81.45,-122.98 -209.47,-274.42 -318.52,-383.62 -42.47,-42.59 -81.41,-74.34 -125.27,-115.45 -22.55,-21.12 -36.14,-28.34 -60.33,-50 -23.25,-20.81 -44.29,-35.25 -67.66,-52.72 -100.54,-75.23 -172.21,-125 -283.93,-187.5 -30.36,-16.96 -46.55,-28.18 -77.1,-43.28 -25.54,-12.62 -53.61,-24.53 -76.75,-40.02l0 4634.06z"/>
   <path class="fil2" d="M1450.91 4884.84l0 -4634.06c-125.82,84.01 -311.81,152.99 -500.28,318.72l-246.08 225.35c-59.59,58.89 -216.38,257.77 -263.24,328.54 -270.85,408.97 -417.9,860.3 -441.31,1315.27l0 258.31c23.37,454.97 170.46,906.26 441.31,1315.27l258.12 323.65c91.34,94.88 207.18,198.49 313.67,278.15 47.21,35.33 90.53,67 140.41,100.31 102.99,68.83 257.81,144.06 297.4,170.5z"/>
   <path class="fil2" d="M2346.15 2356.51l-709.99 0.89 568.95 421.05 -214.29 671.98c79.39,-31.79 475.67,-353.19 576.99,-407.73 77.64,38.86 504.86,376.98 574.66,408.23l-217.24 -676.44c51.09,-29.23 93.05,-64.48 141.89,-98.45l432.73 -316.7 -712 -2.25 -216.04 -670.08 -225.66 669.5z"/>
  </g>
 </g>
</svg>
