<?xml version="1.0" encoding="UTF-8"?>
<!DOCTYPE svg PUBLIC "-//W3C//DTD SVG 1.1//EN" "http://www.w3.org/Graphics/SVG/1.1/DTD/svg11.dtd">
<!-- Creator: CorelDRAW 2021 (64 Bit) -->
<svg xmlns="http://www.w3.org/2000/svg" xml:space="preserve" width="13.2292mm" height="13.2292mm" version="1.1" style="shape-rendering:geometricPrecision; text-rendering:geometricPrecision; image-rendering:optimizeQuality; fill-rule:evenodd; clip-rule:evenodd"
viewBox="0 0 1308.26 1308.26"
 xmlns:xlink="http://www.w3.org/1999/xlink"
 xmlns:xodm="http://www.corel.com/coreldraw/odm/2003">
 <defs>
  <style type="text/css">
   <![CDATA[
    .fil2 {fill:#0052B4}
    .fil0 {fill:#D80027}
    .fil1 {fill:#F0F0F0}
   ]]>
  </style>
 </defs>
 <g id="Camada_x0020_1">
  <metadata id="CorelCorpID_0Corel-Layer"/>
  <g id="_2102894765184">
   <path class="fil0" d="M191.64 1116.19c17.34,28.79 102.88,85.77 138.47,107.27 50.51,30.52 112.63,53.12 176.3,68.99 34.89,8.69 70.6,13.79 106.24,15.82l73.91 0c88.38,-4.91 172.35,-26.81 237.58,-57.05 40.66,-18.86 80.87,-41.79 116.22,-67.75l50.71 -41.29c22.37,-17.13 41.57,-41.46 60.67,-61.97 49.91,-53.6 99.39,-146.09 122.34,-214.96 22.08,-66.29 34.18,-123.43 34.18,-211.1l-655.36 -0.02c-74.55,74.37 -149.07,149.76 -230.28,230.98 -74.72,74.71 -158.31,153.56 -230.98,231.07z"/>
   <path class="fil1" d="M191.64 192.81l461.26 461.32 655.36 0.02c0,-165.54 -60.2,-308.19 -142.71,-409.24 -9.53,-11.67 -18.63,-21.35 -28.11,-33.22 -8.24,-10.31 -20.59,-21.01 -30.39,-30.92 -6.86,-6.95 -9.05,-8.43 -16.37,-14.31l-86.99 -66.33c-41.95,-26.93 -77.14,-43.05 -123.23,-60.74 -68.18,-26.17 -141.12,-38.49 -213.84,-39.4l-17.58 0c-48.26,0.6 -96.25,6.16 -142.5,15.95 -64.88,13.74 -124.14,40.16 -176.14,69.16 -27.73,15.47 -49.05,30.37 -73.79,48.86 -14.4,10.75 -58.02,45.37 -64.97,58.84z"/>
   <path class="fil2" d="M191.64 1116.19c72.68,-77.51 156.26,-156.36 230.98,-231.07 81.21,-81.22 155.73,-156.62 230.28,-230.98l-461.26 -461.32c-10.07,3.75 -24.26,23.57 -30.06,30.09 -50.34,56.5 -70.56,93.32 -104.54,161.2 -38.31,76.5 -57.04,179.82 -57.04,270.03 0,121.33 31.86,236.38 84.81,324.02l76.77 107.21c4.51,5.07 4.51,6.34 9,11.44 6.44,7.31 13.36,15.08 21.06,19.38z"/>
  </g>
 </g>
</svg>
