<?xml version="1.0" encoding="UTF-8"?>
<!DOCTYPE svg PUBLIC "-//W3C//DTD SVG 1.1//EN" "http://www.w3.org/Graphics/SVG/1.1/DTD/svg11.dtd">
<!-- Creator: CorelDRAW 2021 (64 Bit) -->
<svg xmlns="http://www.w3.org/2000/svg" xml:space="preserve" width="13.2292mm" height="13.2292mm" version="1.1" style="shape-rendering:geometricPrecision; text-rendering:geometricPrecision; image-rendering:optimizeQuality; fill-rule:evenodd; clip-rule:evenodd"
viewBox="0 0 1308.26 1308.26"
 xmlns:xlink="http://www.w3.org/1999/xlink"
 xmlns:xodm="http://www.corel.com/coreldraw/odm/2003">
 <defs>
  <style type="text/css">
   <![CDATA[
    .fil0 {fill:#D80027}
    .fil1 {fill:#EFEFEF}
   ]]>
  </style>
 </defs>
 <g id="Camada_x0020_1">
  <metadata id="CorelCorpID_0Corel-Layer"/>
  <g id="_2102891138048">
   <path class="fil0" d="M-0 633.69c0,97.28 6,151.24 37.34,241.18 15.23,43.7 29.12,68.7 50.41,108.02 4.93,9.12 9.48,15.2 14.58,23.74 20.98,35.12 60.69,82.64 88.68,110.63 26.51,26.51 54.35,49.35 84.95,70.93 38.39,27.09 56.89,37.74 99.62,58.79 60.52,29.81 165.55,61.28 255.57,61.28l3.46 0c72.13,-0.02 106.66,-0.66 179.52,-18.88 21.99,-5.5 40.21,-11.3 60.75,-18.46 83.82,-29.2 135.25,-65.39 200.88,-115.96 131.06,-101.03 232.52,-305.86 232.52,-477.84 0,-117.98 -13.92,-202.96 -60.44,-299.84 -70.76,-147.37 -170.72,-243.04 -315.16,-315.97 -69.09,-34.88 -177.17,-61.31 -255.54,-61.31 -98.48,0 -152.22,5.45 -243.73,37.34 -18.24,6.35 -39.58,14.78 -56.09,23.11l-75.67 41.87c-107.32,64.09 -185.51,164.57 -241.18,274.98 -35.03,69.46 -60.45,177.76 -60.45,256.39z"/>
   <path class="fil1" d="M710.76 649.13c38.72,1.56 36.97,5.33 68.27,15.53 70.05,22.84 97.89,-27.44 214.2,-37.01 4.03,-63.3 -65.89,-135.87 -149.55,-130.88 -77.69,4.62 -134.67,67.33 -132.91,152.36z"/>
   <path class="fil1" d="M677.11 705.78c1.2,13.11 6.9,21.81 7.12,37.91 0.45,32.62 -8.54,65.39 26.29,109.6 15.32,19.44 28.02,30.59 41.99,52.48 9.01,14.09 25.95,45.14 31.11,63.18 93.39,-26.18 134.41,-193.28 12.1,-257.09 -40.98,-21.37 -73.76,-18.62 -118.61,-6.08z"/>
   <path class="fil1" d="M605.04 623.82c-25.75,-15.05 -28.71,-28.08 -45.52,-51.35 -35.32,-48.95 -90.09,-48.4 -130.85,-63.4 -24.93,-9.17 -44.65,-22.65 -65.01,-32.74 -19.19,28.75 -27.13,73.85 -15.72,113.48 37.14,129.03 210.93,128.26 257.11,34.02z"/>
   <path class="fil1" d="M666.91 597.5c20.49,-40.77 -3.26,-7.42 32.19,-54.31 39.93,-52.83 21.55,-96.46 23.21,-144.59 1,-29.02 7.41,-50.18 11.27,-76.66 -155.79,-22.65 -211.71,131.9 -150.24,219.05 14.32,20.29 47.5,52.76 83.56,56.52z"/>
   <path class="fil1" d="M395.37 873.25c14.4,34.44 108.85,85.57 198.41,19.48 52.65,-38.85 72.83,-146.41 16.92,-200.4 -10.04,5.45 -17.95,12.88 -31.08,17.69 -28.28,10.39 -57.48,7.46 -93.79,54.31 -14.79,19.08 -24.3,41.04 -39.84,59.8 -12.34,14.88 -35.4,40.81 -50.61,49.11z"/>
  </g>
 </g>
</svg>
