<?xml version="1.0" encoding="UTF-8"?>
<!DOCTYPE svg PUBLIC "-//W3C//DTD SVG 1.1//EN" "http://www.w3.org/Graphics/SVG/1.1/DTD/svg11.dtd">
<!-- Creator: CorelDRAW 2021 (64 Bit) -->
<svg xmlns="http://www.w3.org/2000/svg" xml:space="preserve" width="23.5158mm" height="23.5158mm" version="1.1" style="shape-rendering:geometricPrecision; text-rendering:geometricPrecision; image-rendering:optimizeQuality; fill-rule:evenodd; clip-rule:evenodd"
viewBox="0 0 477.9 477.9"
 xmlns:xlink="http://www.w3.org/1999/xlink"
 xmlns:xodm="http://www.corel.com/coreldraw/odm/2003">
 <defs>
  <style type="text/css">
   <![CDATA[
    .fil2 {fill:#0052B4}
    .fil0 {fill:#D80027}
    .fil3 {fill:#E690A0}
    .fil1 {fill:#EFEFEF}
   ]]>
  </style>
 </defs>
 <g id="Camada_x0020_1">
  <metadata id="CorelCorpID_0Corel-Layer"/>
  <g id="_2547648835648">
   <path class="fil0" d="M208.27 1.87l-0.49 206.27 -205.92 0.13c-0.91,3.7 -1.54,10.13 -1.87,17.55l0 26.31c0.33,7.41 0.95,13.83 1.87,17.52l205.92 0.13 0.48 206.27c3.69,0.91 10.12,1.54 17.53,1.87l26.31 0c7.41,-0.33 13.84,-0.95 17.53,-1.87l0.12 -205.92 206.28 -0.47c0.93,-3.77 1.55,-10.52 1.87,-18.27l0 -24.78c-0.31,-7.78 -0.94,-14.55 -1.87,-18.33l-206.28 -0.47 -0.12 -205.92c-3.69,-0.91 -10.13,-1.54 -17.57,-1.87l-26.27 0c-7.41,0.33 -13.84,0.95 -17.51,1.87z"/>
   <path class="fil1" d="M476.03 207.24l-5.2 -27.5c-0.09,-0.29 -0.36,-1.12 -0.46,-1.37 -0.87,-2.25 -0.25,-0.92 -0.88,-1.81l-123.44 0.01c2.31,-4.38 34.98,-35.84 41.3,-42.16 4.53,-4.54 36.93,-38.83 42.01,-40.63 -3.51,-3.41 -6.44,-8.1 -10.04,-11.87 -4.01,-4.21 -6.68,-9.26 -11.9,-11.9l-105.68 105.94c-0.74,-3.34 -0.95,-22.95 -0.44,-26.62 0.57,-4.14 3.19,-5.29 5.57,-7.65 8.64,-8.55 82.28,-81.34 85.21,-85.66 -2.79,-3.91 -4.91,-4.29 -7.95,-7.47 -1.65,4.69 -6.96,8.36 -10.29,11.69 -10.09,10.09 -67.65,69.14 -72.57,71.63l0.03 -123.46c-2.18,-1.56 -11.8,-3.3 -14.57,-3.93 -3.3,-0.76 -12.28,-2.52 -16.11,-2.61l0.02 205.36 205.38 0.02z"/>
   <path class="fil1" d="M176.56 8.4l0.02 123.45c-5.12,-2.7 -16.71,-15.85 -21.64,-20.78l-61.61 -61.69c-4.15,3.03 -8.13,6.06 -11.9,9.65 -4.08,3.89 -8.84,6.36 -11.44,11.4l105.97 105.72c-3.3,0.67 -23.1,0.9 -26.65,0.42 -4.15,-0.56 -5.29,-3.17 -7.65,-5.56l-85.66 -85.2c-3.61,2.57 -4.11,4.04 -6.6,7.53 5.03,4.8 79.97,78.43 82.46,83.25l-123.47 -0.05 -6.54 30.73 205.38 -0.05 0.03 -205.36 -28.91 5.66c-2.28,0.88 -0.91,0.24 -1.81,0.88z"/>
   <path class="fil1" d="M8.4 301.35l123.47 -0.02c-2.49,4.79 -77.27,78.25 -82.46,83.23 2.74,3.83 6.33,8.43 9.63,11.9 3.89,4.09 6.35,8.87 11.43,11.44 2.49,-4.68 80.12,-81.04 92.18,-93.1 3.49,-3.49 9.64,-10.85 13.96,-12.83 0,5.55 0.75,23.28 -0.14,27.46 -1.21,5.65 -83.63,82.42 -90.64,92.47 1.95,2.77 4.7,4.57 7.52,6.62 5.41,-5.54 78.21,-79.83 83.27,-82.46l-0.05 123.44 3.18 1.34c1.37,0.42 2.25,0.58 3.76,0.91l23.76 4.29 -0.02 -205.36 -205.38 -0.03c0.09,3.82 1.85,12.82 2.61,16.11 0.63,2.75 1.04,4.68 1.69,7.65 0.33,1.52 0.49,2.39 0.91,3.76l1.34 3.19z"/>
   <path class="fil1" d="M270.64 476.03c3.04,-0.07 27.27,-4.1 30.68,-6.54l-0.03 -123.47c4.71,2.41 62.58,61.65 72.57,71.63 3.33,3.33 8.65,7.01 10.29,11.7 3.38,-3.52 8.17,-6.43 11.86,-10.02 3.96,-3.85 9.54,-7.26 11.89,-11.92 -4.66,-2.56 -86.73,-85.87 -102.45,-101.46 -2.35,-2.32 -2.14,-1.75 -3.49,-4.66 33.67,0 24.74,-4.02 40.83,12.08l79.1 78.69c3.68,-2.59 4.06,-4.01 6.62,-7.52 -5.37,-5.21 -79.95,-78.46 -82.46,-83.23l123.44 0.01c1.68,-2.38 3.24,-11.85 3.81,-14.71 0.84,-4.22 2.62,-11.36 2.72,-15.98l-205.38 0.02 -0.02 205.36z"/>
   <path class="fil2" d="M8.4 176.55l123.47 0.05c-2.49,-4.82 -77.43,-78.45 -82.46,-83.25 -10.53,8.09 -40.68,67.61 -41,83.21z"/>
   <path class="fil2" d="M49.4 384.56c5.2,-4.98 79.98,-78.44 82.46,-83.23l-123.47 0.02c0.33,15.62 30.44,75.08 41,83.21z"/>
   <path class="fil2" d="M428.51 384.56c10.54,-8.23 40.65,-67.6 40.98,-83.22l-123.44 -0.01c2.51,4.77 77.09,78.02 82.46,83.23z"/>
   <path class="fil2" d="M384.14 48.54c-16.53,-10.24 -14.42,-11.62 -37.85,-23.33 -6.94,-3.47 -13.4,-6.57 -21.19,-9.61 -4.55,-1.78 -19.13,-7.09 -23.78,-7.19l-0.03 123.46c4.91,-2.49 62.47,-61.54 72.57,-71.63 3.33,-3.34 8.64,-7 10.29,-11.69z"/>
   <path class="fil2" d="M93.34 428.51l17.91 12.8c12.76,8.19 52.04,27.9 65.31,28.18l0.05 -123.44c-5.06,2.63 -77.87,76.92 -83.27,82.46z"/>
   <path class="fil2" d="M301.32 469.49c4.62,-0.1 18.49,-5.16 23.11,-6.92 7.81,-2.99 14.08,-5.99 21.24,-9.57 21.84,-10.92 21.64,-13.2 38.47,-23.65 -1.64,-4.69 -6.95,-8.36 -10.29,-11.7 -9.99,-9.99 -67.86,-69.23 -72.57,-71.63l0.03 123.47z"/>
   <path class="fil2" d="M469.49 176.56c-0.19,-9.1 -12.06,-35.46 -16.49,-44.33 -11.71,-23.42 -13.14,-21.67 -23.65,-38.46 -5.08,1.81 -37.48,36.09 -42.01,40.63 -6.32,6.32 -38.99,37.78 -41.3,42.16l123.44 -0.01z"/>
   <path class="fil2" d="M93.34 49.39l61.61 61.69c4.93,4.93 16.52,18.08 21.64,20.78l-0.02 -123.45c-15.62,0.33 -74.92,30.35 -83.22,40.98z"/>
   <path class="fil0" d="M407.89 407.42l11.01 -10.92c2.15,-2.43 2.07,-1.11 2.99,-4.43l-79.1 -78.69c-16.1,-16.1 -7.16,-12.08 -40.83,-12.08 1.35,2.91 1.14,2.34 3.49,4.66 15.72,15.58 97.79,98.9 102.45,101.46z"/>
   <path class="fil0" d="M70.47 407.89l2.99 3.98c2.7,2.69 9.11,9.13 12.36,10.02 7.02,-10.06 89.44,-86.82 90.64,-92.47 0.89,-4.18 0.14,-21.91 0.14,-27.46 -4.32,1.98 -10.47,9.34 -13.96,12.83 -12.06,12.06 -89.69,88.42 -92.18,93.1z"/>
   <path class="fil0" d="M56 85.81l85.66 85.2c2.36,2.38 3.5,5 7.65,5.56 3.55,0.48 23.35,0.26 26.65,-0.42l-105.97 -105.72c-3.66,1.35 -8.41,8.01 -11.01,10.96 -2.14,2.42 -2.07,1.11 -2.99,4.42z"/>
   <path class="fil0" d="M407.43 70c-1.16,-3.34 -12.14,-13.12 -15.34,-14 -2.93,4.32 -76.57,77.12 -85.21,85.66 -2.38,2.36 -5,3.51 -5.57,7.65 -0.5,3.67 -0.29,23.28 0.44,26.62l105.68 -105.94z"/>
   <polygon class="fil3" points="269.63,476.03 270.64,476.03 270.66,270.67 476.03,270.66 476.03,269.64 269.75,270.11 "/>
   <polygon class="fil3" points="476.03,208.25 476.03,207.24 270.66,207.22 270.63,1.87 269.63,1.87 269.75,207.79 "/>
   <polygon class="fil3" points="207.26,476.03 208.26,476.03 207.79,269.76 1.87,269.63 1.87,270.64 207.24,270.67 "/>
   <polygon class="fil3" points="1.87,207.27 1.87,208.26 207.79,208.14 208.27,1.87 207.27,1.87 207.24,207.22 "/>
  </g>
 </g>
</svg>
