<?xml version="1.0" encoding="UTF-8"?>
<!DOCTYPE svg PUBLIC "-//W3C//DTD SVG 1.1//EN" "http://www.w3.org/Graphics/SVG/1.1/DTD/svg11.dtd">
<!-- Creator: CorelDRAW 2021 (64 Bit) -->
<svg xmlns="http://www.w3.org/2000/svg" xml:space="preserve" width="13.2292mm" height="13.2292mm" version="1.1" style="shape-rendering:geometricPrecision; text-rendering:geometricPrecision; image-rendering:optimizeQuality; fill-rule:evenodd; clip-rule:evenodd"
viewBox="0 0 1332.1 1332.1"
 xmlns:xlink="http://www.w3.org/1999/xlink"
 xmlns:xodm="http://www.corel.com/coreldraw/odm/2003">
 <defs>
  <style type="text/css">
   <![CDATA[
    .fil3 {fill:black}
    .fil1 {fill:#496E2D}
    .fil2 {fill:#D80027}
    .fil0 {fill:#FED943}
   ]]>
  </style>
 </defs>
 <g id="Camada_x0020_1">
  <metadata id="CorelCorpID_0Corel-Layer"/>
  <g id="_2547882587504">
   <path class="fil0" d="M41.63 897.67l465.85 0.12c10.62,-1.33 4.8,0.74 11.04,-4.53 1.81,-25.86 49.99,-143.6 53.46,-172.57l-147.57 -109.21 184.19 -0.22 58.47 -173.65 56.06 173.8 184.68 0.57 -148.31 107.43c7.25,38.87 52.39,148.58 54.06,173.86 10.78,9.19 101.33,4.54 115.27,4.54l361.64 -0.14 9.42 -24.45c3.32,-9.92 4.88,-15.58 7.88,-25.95 14.37,-49.6 22.35,-101.18 24.32,-153.11l0 -51.19c-2.51,-66.7 -14.75,-133.12 -36.02,-195.88l-5.61 -12.66 -1248.85 0 -9.42 24.45c-19.45,58.17 -30.03,119.29 -32.2,180.85l0 47.96c2.35,67.1 14.55,133.95 36.02,197.32l5.61 12.66z"/>
   <path class="fil1" d="M41.63 897.67c11.18,47.44 62.12,129.53 92.55,170.17 131.66,175.76 329.59,263.3 527.82,264.26l9.27 0c211.95,-1.85 423.07,-102.7 552.63,-300.73 20.44,-31.24 58.26,-98.43 66.58,-133.7l-361.64 0.14c-13.95,0 -104.49,4.65 -115.27,-4.54l0.1 1.84c-4.07,3.08 -12.66,2.84 -17.33,2.85l-272.72 -0.75c-5.34,-1.05 -3.32,-0.72 -5.11,-2.02l0.01 -1.93c-6.23,5.27 -0.41,3.2 -11.04,4.53l-465.85 -0.12z"/>
   <path class="fil2" d="M41.63 434.43l1248.85 0c-11.25,-47.71 -61.98,-129.35 -92.55,-170.17 -120.32,-160.63 -307.57,-257.29 -508.14,-264.26l-47.4 0c-66.68,2.39 -134.36,14.76 -201.1,38.02 -119.54,41.66 -232.18,126.07 -306,224.76 -9.65,12.89 -17.48,23.66 -27.07,37.98 -9.92,14.82 -16.34,27.09 -25.48,42.16 -11.73,19.37 -36.11,70.23 -41.12,91.51z"/>
   <path class="fil3" d="M518.51 893.26l-0.01 1.93 73.82 -53.12c12.04,-9.05 23.32,-17.42 35.98,-26.42 11.71,-8.33 25.59,-19.89 37.75,-26.42l110.08 78.96c12.62,8.95 24.94,19.14 37.53,26.92l-0.1 -1.84c-1.67,-25.27 -46.81,-134.99 -54.06,-173.86l148.31 -107.43 -184.68 -0.57 -56.06 -173.8 -58.47 173.65 -184.19 0.22 147.57 109.21c-3.46,28.97 -51.65,146.71 -53.46,172.57z"/>
   <path class="fil0" d="M518.5 895.19c1.78,1.3 -0.23,0.98 5.11,2.02l272.72 0.75c4.67,-0.01 13.26,0.23 17.33,-2.85 -12.59,-7.77 -24.91,-17.96 -37.53,-26.92l-110.08 -78.96c-12.16,6.54 -26.04,18.09 -37.75,26.42 -12.66,9 -23.94,17.37 -35.98,26.42l-73.82 53.12z"/>
  </g>
 </g>
</svg>
