<?xml version="1.0" encoding="UTF-8"?>
<!DOCTYPE svg PUBLIC "-//W3C//DTD SVG 1.1//EN" "http://www.w3.org/Graphics/SVG/1.1/DTD/svg11.dtd">
<!-- Creator: CorelDRAW 2021 (64 Bit) -->
<svg xmlns="http://www.w3.org/2000/svg" xml:space="preserve" width="13.2292mm" height="13.2292mm" version="1.1" style="shape-rendering:geometricPrecision; text-rendering:geometricPrecision; image-rendering:optimizeQuality; fill-rule:evenodd; clip-rule:evenodd"
viewBox="0 0 1308.26 1308.26"
 xmlns:xlink="http://www.w3.org/1999/xlink"
 xmlns:xodm="http://www.corel.com/coreldraw/odm/2003">
 <defs>
  <style type="text/css">
   <![CDATA[
    .fil0 {fill:#D80027}
    .fil1 {fill:#FFD944}
   ]]>
  </style>
 </defs>
 <g id="Camada_x0020_1">
  <metadata id="CorelCorpID_0Corel-Layer"/>
  <g id="vietnam">
   <path class="fil0" d="M-0 633.69c0,97.28 6,151.24 37.34,241.18 15.23,43.7 29.12,68.7 50.41,108.02 4.93,9.12 9.48,15.2 14.58,23.74 20.98,35.12 60.69,82.64 88.68,110.63 26.51,26.51 54.35,49.35 84.95,70.93 38.39,27.09 56.89,37.74 99.62,58.79 60.52,29.81 165.55,61.28 255.57,61.28l3.46 0c72.13,-0.02 106.66,-0.66 179.52,-18.88 21.99,-5.5 40.21,-11.3 60.75,-18.46 83.82,-29.2 135.25,-65.39 200.88,-115.96 131.06,-101.03 232.52,-305.86 232.52,-477.84 0,-117.98 -13.92,-202.96 -60.44,-299.84 -70.76,-147.37 -170.72,-243.04 -315.16,-315.97 -69.09,-34.88 -177.17,-61.31 -255.54,-61.31 -98.48,0 -152.22,5.45 -243.73,37.34 -18.24,6.35 -39.58,14.78 -56.09,23.11l-75.67 41.87c-107.32,64.09 -185.51,164.57 -241.18,274.98 -35.03,69.46 -60.45,177.76 -60.45,256.39z"/>
   <path class="fil1" d="M358.49 558.56c4.26,6.75 -0.37,0.68 4.49,5.37l130.31 95.14c13.13,9.5 33.31,25.85 46.26,32.2l-69.58 217.17c30.73,-20.01 61.98,-43.65 91.95,-65.47l92.21 -66.21c14.21,7.22 31.86,22.21 46.57,32.69l136.6 99.09 -69.24 -216.89c12.22,-5.88 33.81,-22.94 45.23,-31.66 15.29,-11.64 30.44,-21.87 46.1,-33.16 13.72,-9.88 85.67,-60.37 90.7,-67.59 -31.34,-3.23 -145.66,-0.75 -191.2,-0.69 -35.08,0.04 -31.8,7.73 -41.3,-21.61 -10.29,-31.79 -20.89,-65.13 -31.11,-96.55 -5.88,-18.1 -25.58,-84.98 -32.36,-95.3 -6.82,10.37 -25.85,75.54 -31.73,93.37 -45.22,137.13 -26.99,120.18 -70.47,120.08l-193.43 0z"/>
  </g>
 </g>
</svg>
