<?xml version="1.0" encoding="UTF-8"?>
<!DOCTYPE svg PUBLIC "-//W3C//DTD SVG 1.1//EN" "http://www.w3.org/Graphics/SVG/1.1/DTD/svg11.dtd">
<!-- Creator: CorelDRAW 2021 (64 Bit) -->
<svg xmlns="http://www.w3.org/2000/svg" xml:space="preserve" width="13.2292mm" height="13.2292mm" version="1.1" style="shape-rendering:geometricPrecision; text-rendering:geometricPrecision; image-rendering:optimizeQuality; fill-rule:evenodd; clip-rule:evenodd"
viewBox="0 0 1308.26 1308.26"
 xmlns:xlink="http://www.w3.org/1999/xlink"
 xmlns:xodm="http://www.corel.com/coreldraw/odm/2003">
 <defs>
  <style type="text/css">
   <![CDATA[
    .fil0 {fill:#751A46}
    .fil1 {fill:#EFEFEF}
   ]]>
  </style>
 </defs>
 <g id="Camada_x0020_1">
  <metadata id="CorelCorpID_0Corel-Layer"/>
  <g id="_2104328447600">
   <path class="fil0" d="M307.59 99.65l138.99 61.32c-7.83,6.41 -167.95,73.67 -188.74,81.58 7.89,6.39 172.05,76.22 189.96,81.65 -3,3.01 0.37,0.92 -6.34,4.78l-174.04 73.82c-7.52,3.4 -4.57,1.02 -9.93,6.2 25.93,7.11 68.1,28.41 95.83,39.99 16.59,6.93 31.27,13.36 48.35,20.63l45.9 21.47c-21.06,7.39 -180.37,74.3 -188.96,81.9l188.48 82.21 -189.47 81.69 190.06 80.35 -190.21 82.08c8.4,8.29 129.48,56.92 144.43,63.24 8,3.38 15.32,6.45 23.3,9.93 4.76,2.08 8.28,3.22 12.6,5.19l9.96 6.46c-17.63,5.2 -181.84,75.08 -189.77,81.63 24.54,10.12 178.52,73.69 188.93,82.44l-139.24 60.4c7.22,8.99 58.22,33.44 67.92,38.34 73.05,36.88 177.1,61.31 268.3,61.31 77.87,0 135.65,-7 194.53,-25.22 58.49,-18.1 104.58,-39.12 152.88,-66.87 60.84,-34.95 132.38,-99.65 175.31,-154.32 23.19,-29.52 48.31,-64.85 65,-98.53 50.94,-102.69 76.64,-181.59 76.64,-309.2 0,-124.71 -24.69,-204.45 -74.95,-305.77 -42.16,-85.02 -126.83,-179.9 -206.63,-232.86 -119.18,-79.09 -228.38,-115.5 -380.22,-115.5 -91.75,0 -195.08,23.11 -269.16,60.45l-53.69 28.1c-6.9,3.7 -10.85,4.9 -16.02,11.11z"/>
   <path class="fil1" d="M307.68 1208.61l139.24 -60.4c-10.41,-8.74 -164.4,-72.32 -188.93,-82.44 7.93,-6.55 172.14,-76.42 189.77,-81.63l-9.96 -6.46c-4.32,-1.97 -7.84,-3.12 -12.6,-5.19 -7.98,-3.48 -15.3,-6.55 -23.3,-9.93 -14.95,-6.32 -136.04,-54.95 -144.43,-63.24l190.21 -82.08 -190.06 -80.35 189.47 -81.69 -188.48 -82.21c8.59,-7.6 167.9,-74.52 188.96,-81.9l-45.9 -21.47c-17.08,-7.27 -31.75,-13.7 -48.35,-20.63 -27.73,-11.58 -69.9,-32.88 -95.83,-39.99 5.36,-5.18 2.41,-2.8 9.93,-6.2l174.04 -73.82c6.7,-3.86 3.34,-1.77 6.34,-4.78 -17.91,-5.43 -182.07,-75.26 -189.96,-81.65 20.79,-7.9 180.9,-75.17 188.74,-81.58l-138.99 -61.32c-31.43,13.56 -97.12,71.89 -120.43,95.18 -4.74,4.74 -8.33,7.9 -12.81,12.74 -5.68,6.14 -6.73,9.06 -12.74,15.37 -20.85,21.88 -52.89,67.37 -68.2,92.78 -57.3,95.12 -89.55,202.05 -93.42,313.76l0 45.83c1.9,54.98 10.64,110.86 26.63,166.84 7.8,27.32 18.13,53.65 28.84,78.47 42.69,99 128.68,205.03 217.43,265.51 12.1,8.25 20.95,16.61 34.78,22.49z"/>
  </g>
 </g>
</svg>
