<?xml version="1.0" encoding="UTF-8"?>
<!DOCTYPE svg PUBLIC "-//W3C//DTD SVG 1.1//EN" "http://www.w3.org/Graphics/SVG/1.1/DTD/svg11.dtd">
<!-- Creator: CorelDRAW 2021 (64 Bit) -->
<svg xmlns="http://www.w3.org/2000/svg" xml:space="preserve" width="13.2292mm" height="13.2292mm" version="1.1" style="shape-rendering:geometricPrecision; text-rendering:geometricPrecision; image-rendering:optimizeQuality; fill-rule:evenodd; clip-rule:evenodd"
viewBox="0 0 1308.34 1308.34"
 xmlns:xlink="http://www.w3.org/1999/xlink"
 xmlns:xodm="http://www.corel.com/coreldraw/odm/2003">
 <defs>
  <style type="text/css">
   <![CDATA[
    .fil2 {fill:#0052B4}
    .fil1 {fill:#D70027}
    .fil0 {fill:#EFEFEF}
   ]]>
  </style>
 </defs>
 <g id="Camada_x0020_1">
  <metadata id="CorelCorpID_0Corel-Layer"/>
  <g id="_1361418744032">
   <path class="fil0" d="M426.34 40.88l0.01 1226.57c16.04,10.12 86.98,26.23 103.66,29.6 33.69,6.81 69.36,10.44 105.32,11.28l33.33 0c36.81,-0.86 73.36,-4.5 107.87,-10.52 16.91,-2.96 37.25,-7.95 53.66,-12.77 8.35,-2.45 16.79,-4.76 25.54,-7.68l26.22 -9.91 0 -1226.57c-14.63,-9.34 -89.67,-27.45 -103.24,-29.99 -33.55,-6.25 -68.69,-9.92 -104.29,-10.9l-39.11 0c-62.85,1.74 -125.81,11.9 -182.68,30.97 -3.89,1.31 -9.62,3.1 -13.47,4.4l-12.81 5.51z"/>
   <path class="fil1" d="M881.94 1267.46c31.35,-2.77 133.99,-64.49 167.23,-90.51 69.37,-54.3 108.31,-97.29 155.93,-168.6 61.14,-91.57 96.94,-207.12 103.24,-321.79l0 -72.32c-1.48,-26.54 -4.64,-52.74 -9.52,-78.3 -19.08,-99.74 -59.46,-193.89 -118.59,-272.39 -27.94,-37.1 -44.75,-54.05 -75.67,-85.32 -31.06,-31.43 -94.91,-76.13 -132.71,-97.27 -14.13,-7.91 -75.61,-38.81 -89.91,-40.07l0 1226.57z"/>
   <path class="fil2" d="M426.35 1267.46l-0.01 -1226.57c-31.32,2.8 -133.94,64.5 -167.17,90.51 -133.1,104.2 -216.24,236.03 -249.19,402.44 -5.13,25.92 -8.4,51.82 -9.98,77.65l0 75.05c3.84,64.17 17.21,127.34 37.35,188.36 32.87,99.56 104.7,203.42 184.2,270.66 32.69,27.65 35.02,30.59 73.85,56.48 26.77,17.84 107.22,63.29 130.95,65.41z"/>
  </g>
 </g>
</svg>
