<?xml version="1.0" encoding="UTF-8"?>
<!DOCTYPE svg PUBLIC "-//W3C//DTD SVG 1.1//EN" "http://www.w3.org/Graphics/SVG/1.1/DTD/svg11.dtd">
<!-- Creator: CorelDRAW 2021 (64 Bit) -->
<svg xmlns="http://www.w3.org/2000/svg" xml:space="preserve" width="13.2279mm" height="13.2238mm" version="1.1" style="shape-rendering:geometricPrecision; text-rendering:geometricPrecision; image-rendering:optimizeQuality; fill-rule:evenodd; clip-rule:evenodd"
viewBox="0 0 1308.01 1307.6"
 xmlns:xlink="http://www.w3.org/1999/xlink"
 xmlns:xodm="http://www.corel.com/coreldraw/odm/2003">
 <defs>
  <style type="text/css">
   <![CDATA[
    .fil1 {fill:#D80027}
    .fil2 {fill:#E15A74}
    .fil0 {fill:#EFEFEF}
   ]]>
  </style>
 </defs>
 <g id="Camada_x0020_1">
  <metadata id="CorelCorpID_0Corel-Layer"/>
  <g id="_2102792615616">
   <path class="fil0" d="M341.63 79.21l-0.44 490.41 -336.08 -0.32c-4.79,22.31 -5.09,50.44 -5.11,77.83l0 6.94 0 0.62 0 40.88 0.13 1.8c0.96,11.67 4.07,29.8 4.98,41.44l336.96 0.76 -0.43 489.36c18.1,13.08 55.48,27.46 78.82,36.87 14.39,5.8 28.27,10.62 43.61,15.15 13.1,3.87 33.93,10.77 46.81,11.86l1.07 -554.31 791.07 0.31c0.82,-10.57 3.61,-28.9 4.74,-39.13l0.25 -88.92c-0.96,-11.66 -4.07,-29.79 -4.98,-41.42l-792.11 -0.55 -0.01 -553.46c-12.99,1.1 -31.58,7.52 -44.83,11.3 -15.2,4.34 -29.79,9.32 -43.79,14.97 -24.45,9.84 -61.37,23.72 -80.66,37.6z"/>
   <path class="fil1" d="M513.38 15.34l-0.03 551.73 787.12 0 -0.86 -10.08c6.58,-50.73 -54.2,-196.77 -89.57,-249.38 -11.71,-17.41 -21.8,-34.14 -34.41,-49.91l-27.82 -33.5c-5.17,-5.57 -5.43,-7.29 -10.24,-12.76 -51.96,-59 -124.19,-109.71 -194.8,-145.01 -79.36,-39.68 -177.58,-66.45 -273.38,-66.43 -45.01,0.01 -103.38,1.53 -146.34,12.06l-5.98 1.75c-0.53,0.18 -1.44,0.58 -1.87,0.74 -0.42,0.15 -1.27,0.44 -1.83,0.77z"/>
   <path class="fil1" d="M513.35 1292.82l16.18 4.47c7.75,1.31 11.56,1.83 17.59,2.84 12.55,2.11 25.46,4.56 38.05,5.38 174.2,11.34 325.47,-22.42 462.39,-127.64 38.54,-29.62 66.74,-54.48 97.82,-91.24 33.98,-40.17 32.33,-38 64.66,-86.09 11.7,-17.4 20.28,-34.98 29.96,-54.35 9.8,-19.6 18.01,-36.76 26.18,-58.13 8.86,-23.15 36.99,-109.37 33.42,-136.9l0.86 -10.08 -787.12 0 0 551.73z"/>
   <path class="fil1" d="M8.92 554.43l-1.26 12.64 331.78 0c0,-7.23 3.47,-475.22 -2.19,-485.02 -33.04,6.98 -141.26,98.94 -167.87,130.77 -15.89,19 -31.07,36.29 -45.67,56.53 -44.67,61.89 -75.55,126.26 -98.5,200.43 -4.25,13.73 -19.25,69.18 -16.3,84.64z"/>
   <path class="fil1" d="M8.92 753.72c-5.46,28.57 32.34,133.66 42.11,155.92 45.26,103.22 106.54,186.17 193.91,255.76 9.89,7.88 18.26,14.96 28.91,22.19 10.65,7.22 19.89,13.5 30.67,20.43 7.64,4.9 24.86,16.42 32.73,18.08 0.28,-0.49 0.76,-1.78 0.83,-1.48l1.33 -23.77c-0.03,-10.21 0,-20.44 0,-30.66l0 -429.09 -334.3 0 3.81 12.64z"/>
   <path class="fil2" d="M510.89 1292.82l2.46 0 0 -551.73 787.12 0 -0.86 10.08c5.33,-3.33 1.7,1.23 3.16,-5.26 0.44,-1.92 0.25,-5.03 0.25,-7.08l-791.07 -0.31 -1.07 554.31z"/>
   <path class="fil2" d="M1303.02 569.36c0,-1.54 0.16,-5.83 -0.25,-7.1 -2.15,-6.68 1.23,-0.92 -3.16,-5.26l0.86 10.08 -787.12 0 0.03 -551.73 -2.47 0 0.01 553.46 792.11 0.55z"/>
   <path class="fil2" d="M8.92 753.72l-3.81 -12.64 334.3 0 0 429.09c0,10.22 -0.03,20.45 0,30.66l-1.33 23.77c-0.07,-0.3 -0.55,0.99 -0.83,1.48 1.96,3.61 -3.25,2.85 4.39,2.85l0.43 -489.36 -336.96 -0.76c0,0.8 -0.19,7.25 -0.16,7.38 1.59,7.33 -0.5,3.56 3.97,7.52z"/>
   <path class="fil2" d="M8.92 554.43c-6.26,3.51 -1.85,-1.55 -3.55,5.3 -0.52,2.11 -0.26,7.16 -0.26,9.57l336.08 0.32 0.44 -490.41c-7.62,0 -2.41,-0.76 -4.37,2.84 5.66,9.8 2.19,477.79 2.19,485.02l-331.78 0 1.26 -12.64z"/>
  </g>
 </g>
</svg>
