<?xml version="1.0" encoding="UTF-8"?>
<!DOCTYPE svg PUBLIC "-//W3C//DTD SVG 1.1//EN" "http://www.w3.org/Graphics/SVG/1.1/DTD/svg11.dtd">
<!-- Creator: CorelDRAW 2021 (64 Bit) -->
<svg xmlns="http://www.w3.org/2000/svg" xml:space="preserve" width="13.2292mm" height="13.2292mm" version="1.1" style="shape-rendering:geometricPrecision; text-rendering:geometricPrecision; image-rendering:optimizeQuality; fill-rule:evenodd; clip-rule:evenodd"
viewBox="0 0 1308.34 1308.34"
 xmlns:xlink="http://www.w3.org/1999/xlink"
 xmlns:xodm="http://www.corel.com/coreldraw/odm/2003">
 <defs>
  <style type="text/css">
   <![CDATA[
    .fil0 {fill:#0052B4}
    .fil4 {fill:#338AF3}
    .fil1 {fill:#D60028}
    .fil5 {fill:#DB2D4D}
    .fil3 {fill:#E47589}
    .fil2 {fill:#EFEFEF}
   ]]>
  </style>
 </defs>
 <g id="Camada_x0020_1">
  <metadata id="CorelCorpID_0Corel-Layer"/>
  <g id="_1361406211840">
   <path class="fil0" d="M1267.46 881.66l-434.78 0.01 -2.06 0.08c-4.58,9.09 -29.69,32.63 -38.74,37.44l-2.24 3.13c-30.36,20.35 -47.7,29.31 -89.45,40.02 -34.48,6.05 -57.58,5.99 -92.04,0 -42.35,-10.77 -58.33,-20.01 -89.39,-40.01l-2.35 -3.14c-9.65,-5.25 -33.98,-27.64 -38.76,-37.45l-1.93 -0.07 -434.84 0c10.96,46.56 61.02,127.24 90.9,167.14 37.98,50.69 80.18,92.03 130.69,129.95 109.32,82.08 239.44,125.29 370.54,129.6l43.75 0c130.25,-4.32 259.28,-47.11 367.64,-128.5 87.63,-65.82 158.2,-151.09 204.31,-250.54 6.27,-13.51 15.41,-33.55 18.73,-47.65z"/>
   <path class="fil1" d="M40.88 426.7l385.76 -0.1 0.32 -114.75c19.28,-10.76 55.44,-43.83 75.99,-55.33 16.55,9.77 53.45,41.32 74.51,55.43 16.95,-8.08 53.76,-41.28 76.71,-54.99 14.19,8.14 26.33,18.54 39.32,28.28 11.78,8.83 24.84,20.18 37.38,26.72 25.4,-16.22 49.51,-39.57 74.51,-55.45 24.83,13.32 50.74,40.51 76.26,55.29l0.05 114.79 385.76 0.1c-7.56,-32.13 -44.31,-99.84 -63.36,-128.24 -130.44,-194.35 -328.34,-291.2 -526.76,-298.45l-49.76 0c-188.89,7.32 -373.15,95.6 -494.7,258.09 -25.8,34.49 -29.98,43.02 -51.61,78.71 -11.51,19.02 -35.47,69 -40.39,89.89z"/>
   <path class="fil2" d="M40.88 881.66l434.84 0c-6.84,-13.34 -16.85,-24.08 -24.72,-39.55 -6.37,-12.49 -14.06,-31.63 -16.72,-46.62l-2.1 -5.26 84.45 -1.12 -0.76 -89.46 -89.17 0 0.37 -91.02 88.89 0 0.71 -89.6 -84.61 -0.26c-4.62,-0.9 -3.5,-1.02 -5.57,-2.24l0.16 -89.93 -385.76 0.1 -9.26 24c-18.62,55.71 -29.44,119.38 -31.63,182.7l0 47.59c1.16,32.8 4.73,64.95 10.85,95.21 7.29,36.01 12.94,58.82 24.53,93.02l5.51 12.43z"/>
   <path class="fil2" d="M881.85 516.52c-8.6,5.11 -80.68,2.5 -90.18,2.5l0.71 89.6 89.27 0 -0.49 91.02 -88.68 0 -0.76 89.46 84.43 1.14 -2.13 5.11c-2.58,14.96 -10.37,34.38 -16.67,46.75 -3.79,7.44 -7.9,14.49 -12.11,21.09 -4.29,6.73 -9.07,11.52 -12.56,18.47l434.78 -0.01 29.6 -103.33c6.44,-31.84 10.18,-65.79 11.28,-100.43l0 -43.83c-1.97,-62.83 -12.39,-126.03 -30.97,-181.45l-9.91 -25.92 -385.76 -0.1 0.16 89.93z"/>
   <path class="fil3" d="M426.49 516.52c2.07,1.23 0.95,1.35 5.57,2.24l84.61 0.26 -0.71 89.6 -0.09 91.02 0.76 89.46 -84.45 1.12 2.1 5.26c4.76,-4.29 -7.05,-4.26 20.55,-3.84 6.81,0.1 13.66,0.04 20.47,0.04 13.74,0 27.47,0 41.21,0l-0.08 90.07 -0.02 37.42 2.35 3.14 0.53 -40.55 -0.29 -90.16 89.66 0.77 91.01 0 89.66 -0.77 -0.29 90.16 0.6 40.54 2.24 -3.13 0.03 -37.43 -0.08 -90.07 72.04 -0.26c16.64,1.56 4.36,-1.17 10.15,3.93l2.13 -5.11 -84.43 -1.14 0.76 -89.46 -0.09 -91.02 -0.71 -89.6c9.49,0 81.57,2.61 90.18,-2.5l-90.04 0 0 -90 -2.5 -0.02 0 90.16 -89.64 -0.77 -91.01 0 -89.64 0.73 0 -90.12 -2.5 0.02 -0.02 90 -90.02 0z"/>
   <path class="fil0" d="M577.47 311.94l1.51 114.5 29.69 0.27 91.01 0 29.69 -0.27 1.51 -114.48c-12.54,-6.55 -25.6,-17.89 -37.38,-26.72 -13,-9.74 -25.13,-20.15 -39.32,-28.28 -22.94,13.71 -59.75,46.91 -76.71,54.99z"/>
   <path class="fil4" d="M730.88 311.96l-1.51 114.48 59.95 0.06 2.5 0.02 89.88 0.07 -0.05 -114.79c-25.52,-14.79 -51.43,-41.97 -76.26,-55.29 -25,15.88 -49.11,39.23 -74.51,55.45z"/>
   <path class="fil4" d="M426.65 426.6l89.88 -0.07 2.5 -0.02 59.95 -0.06 -1.51 -114.5c-21.06,-14.11 -57.96,-45.66 -74.51,-55.43 -20.55,11.5 -56.72,44.57 -75.99,55.33l-0.32 114.75z"/>
   <polygon class="fil5" points="608.35,699.96 699.99,699.96 700,608.34 608.34,608.34 "/>
   <polygon class="fil1" points="608.59,881.7 699.75,881.7 699.67,792.39 608.67,792.39 "/>
   <polygon class="fil2" points="608.34,608.34 700,608.34 699.68,519.4 608.66,519.4 "/>
   <polygon class="fil2" points="608.66,788.88 699.68,788.88 699.99,699.96 608.35,699.96 "/>
   <polygon class="fil2" points="699.99,699.96 788.91,699.65 788.92,608.66 700,608.34 "/>
   <polygon class="fil2" points="519.43,699.65 608.35,699.96 608.34,608.34 519.42,608.66 "/>
   <polygon class="fil1" points="608.67,515.89 699.67,515.89 699.67,426.72 608.67,426.72 "/>
   <polygon class="fil1" points="515.86,699.64 515.95,608.63 427.06,608.63 426.7,699.64 "/>
   <polygon class="fil1" points="792.48,699.64 881.16,699.64 881.66,608.63 792.39,608.63 "/>
   <polygon class="fil1" points="881.85,516.52 881.7,426.6 791.82,426.53 791.82,516.52 "/>
   <polygon class="fil1" points="426.49,516.52 516.51,516.52 516.52,426.53 426.65,426.6 "/>
   <polygon class="fil2" points="699.67,515.89 789.32,516.66 789.32,426.51 729.36,426.45 699.67,426.72 "/>
   <polygon class="fil2" points="608.67,515.89 608.67,426.72 578.98,426.45 519.03,426.51 519.03,516.62 "/>
   <polygon class="fil2" points="519.29,881.78 608.59,881.7 608.67,792.39 519.01,791.62 "/>
   <polygon class="fil2" points="699.75,881.7 789.05,881.78 789.34,791.62 699.67,792.39 "/>
   <polygon class="fil1" points="700,608.34 788.92,608.66 789.19,519.17 699.68,519.4 "/>
   <polygon class="fil1" points="519.42,608.66 608.34,608.34 608.66,519.4 519.17,519.16 "/>
   <polygon class="fil1" points="608.66,788.88 608.35,699.96 519.43,699.65 519.16,789.12 "/>
   <polygon class="fil1" points="699.68,788.88 789.18,789.13 788.91,699.65 699.99,699.96 "/>
   <path class="fil2" d="M608.15 962.34c34.47,5.99 57.57,6.05 92.04,0l-0.45 -80.64 -91.16 0 -0.44 80.64z"/>
   <polygon class="fil1" points="610.72,697.47 697.61,697.47 697.63,610.53 610.72,610.53 "/>
   <path class="fil1" d="M791.92 881.76l38.71 -0.01 2.06 -0.08c3.49,-6.95 8.27,-11.74 12.56,-18.47 4.2,-6.6 8.32,-13.65 12.11,-21.09 6.3,-12.37 14.09,-31.79 16.67,-46.75 -5.79,-5.09 6.5,-2.36 -10.15,-3.93l-72.04 0.26 0.08 90.07z"/>
   <path class="fil1" d="M475.72 881.66l1.93 0.07 38.78 0.03 0.08 -90.07c-13.74,0 -27.47,0 -41.21,0 -6.81,0 -13.66,0.06 -20.47,-0.04 -27.6,-0.43 -15.79,-0.45 -20.55,3.84 2.66,14.99 10.35,34.13 16.72,46.62 7.87,15.47 17.88,26.21 24.72,39.55z"/>
   <path class="fil1" d="M700.2 962.34c41.75,-10.71 59.09,-19.67 89.45,-40.02l-0.6 -40.54 -89.3 -0.08 0.45 80.64z"/>
   <path class="fil1" d="M518.76 922.32c31.06,20.01 47.05,29.24 89.39,40.01l0.44 -80.64 -89.3 0.08 -0.53 40.55z"/>
   <path class="fil2" d="M516.41 919.18l0.02 -37.42 -38.78 -0.03c4.78,9.81 29.11,32.2 38.76,37.45z"/>
   <path class="fil2" d="M791.89 919.19c9.05,-4.82 34.16,-28.35 38.74,-37.44l-38.71 0.01 -0.03 37.43z"/>
  </g>
 </g>
</svg>
