<?xml version="1.0" encoding="UTF-8"?>
<!DOCTYPE svg PUBLIC "-//W3C//DTD SVG 1.1//EN" "http://www.w3.org/Graphics/SVG/1.1/DTD/svg11.dtd">
<!-- Creator: CorelDRAW 2021 (64 Bit) -->
<svg xmlns="http://www.w3.org/2000/svg" xml:space="preserve" width="13.2292mm" height="13.2293mm" version="1.1" style="shape-rendering:geometricPrecision; text-rendering:geometricPrecision; image-rendering:optimizeQuality; fill-rule:evenodd; clip-rule:evenodd"
viewBox="0 0 1308.26 1308.27"
 xmlns:xlink="http://www.w3.org/1999/xlink"
 xmlns:xodm="http://www.corel.com/coreldraw/odm/2003">
 <defs>
  <style type="text/css">
   <![CDATA[
    .fil1 {fill:#0052B4}
    .fil2 {fill:#60858A}
    .fil0 {fill:#FFD944}
   ]]>
  </style>
 </defs>
 <g id="Camada_x0020_1">
  <metadata id="CorelCorpID_0Corel-Layer"/>
  <g id="_2102777421552">
   <path class="fil0" d="M341.68 79.22l-0.45 490.46 -336.12 -0.3c-4.8,22.25 -5.09,50.46 -5.11,77.83l0 6.93 0 0.62 0 40.88 0.13 1.8c0.96,11.67 4.07,29.81 4.98,41.46l336.99 0.73 -0.41 489.43c17.95,13.02 55.56,27.5 78.81,36.88 14.39,5.8 28.27,10.62 43.61,15.15 13.11,3.88 33.93,10.77 46.84,11.86l0.01 -553.53 792.19 -0.54c3.74,-47.99 5.07,-26.48 5.11,-82.03l0 -2.7 0 -2.69c-0.04,-55.3 -1.35,-33.77 -5.11,-82.06l-792.19 -0.52 -0.02 -553.53c-12.99,1.1 -31.59,7.52 -44.83,11.3 -15.2,4.34 -29.8,9.33 -43.79,14.97 -24.35,9.8 -61.52,23.77 -80.65,37.61z"/>
   <path class="fil1" d="M513.45 1292.95c0.56,0.34 1.51,0.01 1.82,0.77 1.17,2.93 67.15,11.73 69.96,11.92 21.28,1.38 40.88,2.31 59.54,2.64l28.6 0c47.6,-0.91 91.28,-6.63 144.82,-19.93 128.11,-31.81 246.22,-105.74 327.31,-201.61 53.62,-63.39 90.23,-118.64 120.82,-198.59 8.82,-23.05 37.05,-109.54 33.41,-136.92l3.43 -10.06 -789.74 0 0.04 551.77z"/>
   <path class="fil1" d="M513.44 15.34l-0.03 551.77 -7.48 0 797.22 0 -3.43 -10.06c6.71,-50.47 -54.21,-196.83 -89.56,-249.41 -24.66,-36.69 -44.07,-63.9 -72.48,-96.17 -110.31,-125.26 -296.54,-211.51 -468.22,-211.46 -20.68,0.01 -135.1,2.55 -156.02,15.33z"/>
   <path class="fil1" d="M8.91 554.49l-3.8 12.62 334.33 0c0,-81.71 0,-163.43 0,-245.14 0,-53.34 2.43,-178.83 0.17,-230.17l-1.49 -8.26c-0.07,-0.83 -0.55,-0.99 -0.83,-1.48 -18.01,3.86 -71.05,44.14 -89.44,58.49 -108.52,84.78 -181.57,196.54 -222.64,329.29 -4.25,13.76 -19.23,69.15 -16.31,84.65z"/>
   <path class="fil1" d="M8.91 753.8c-5.21,27.56 29.49,127.14 42.13,155.93 21.01,47.93 43.34,88.52 72.69,129.17 49.21,68.2 110.28,123.93 180.83,169.23 7.61,4.89 24.91,16.45 32.73,18.05 1.28,-2.25 1.21,-0.42 1.99,-5.01l0.13 -479.99 -332.67 0.02 2.18 12.6z"/>
   <path class="fil2" d="M510.96 1292.95l2.49 0 -0.04 -551.77 789.74 0 -3.43 10.06c5.38,-3.34 1.71,1.25 3.18,-5.26 0.44,-1.92 0.25,-5.05 0.25,-7.1l-792.19 0.54 -0.01 553.53z"/>
   <path class="fil2" d="M1303.15 569.39c0,-1.53 0.16,-5.81 -0.25,-7.08 -2.17,-6.71 1.27,-0.89 -3.18,-5.26l3.43 10.06 -797.22 0 7.48 0 0.03 -551.77 -2.49 0 0.02 553.53 792.19 0.52z"/>
   <path class="fil2" d="M8.91 753.8l-2.18 -12.6 332.67 -0.02 -0.13 479.99c-0.78,4.6 -0.71,2.76 -1.99,5.01 1.96,3.65 -3.26,2.88 4.41,2.88l0.41 -489.43 -336.99 -0.73c0,0.81 -0.19,7.23 -0.16,7.37 1.58,7.31 -0.48,3.57 3.96,7.53z"/>
   <path class="fil2" d="M8.91 554.49c-6.23,3.5 -1.85,-1.54 -3.54,5.3 -0.52,2.12 -0.26,7.18 -0.26,9.59l336.12 0.3 0.45 -490.46c-7.63,0 -2.43,-0.75 -4.39,2.83 0.28,0.49 0.76,0.65 0.83,1.48l1.49 8.26c2.26,51.34 -0.17,176.83 -0.17,230.17 0,81.71 0,163.43 0,245.14l-334.33 0 3.8 -12.62z"/>
  </g>
 </g>
</svg>
