<?xml version="1.0" encoding="UTF-8"?>
<!DOCTYPE svg PUBLIC "-//W3C//DTD SVG 1.1//EN" "http://www.w3.org/Graphics/SVG/1.1/DTD/svg11.dtd">
<!-- Creator: CorelDRAW 2021 (64 Bit) -->
<svg xmlns="http://www.w3.org/2000/svg" xml:space="preserve" width="13.2292mm" height="13.2292mm" version="1.1" style="shape-rendering:geometricPrecision; text-rendering:geometricPrecision; image-rendering:optimizeQuality; fill-rule:evenodd; clip-rule:evenodd"
viewBox="0 0 1308.26 1308.26"
 xmlns:xlink="http://www.w3.org/1999/xlink"
 xmlns:xodm="http://www.corel.com/coreldraw/odm/2003">
 <defs>
  <style type="text/css">
   <![CDATA[
    .fil1 {fill:#328AF3}
    .fil0 {fill:#EFEFEF}
    .fil2 {fill:#FFDA44}
   ]]>
  </style>
 </defs>
 <g id="Camada_x0020_1">
  <metadata id="CorelCorpID_0Corel-Layer"/>
  <g id="_2102780429392">
   <path class="fil0" d="M63.88 939.21l1180.5 0.02c20.97,-53.14 31.01,-67.11 46.03,-129.19 10.49,-43.38 16.41,-88.1 17.85,-132.99l0 -43.6c-2.23,-69.23 -15.01,-137.97 -38,-201.94 -7.88,-21.92 -17.64,-41.56 -25.88,-62.49l-1180.5 0.02c-4.35,11.02 -8.7,19.3 -13.52,31.4 -29.81,74.92 -46.6,148.48 -50.37,221.86l0 63.68c3.77,73.37 20.55,146.92 50.37,221.85 4.82,12.09 9.16,20.37 13.52,31.38z"/>
   <path class="fil1" d="M1244.38 939.23l-1180.5 -0.02c6.52,8.18 13.41,26.58 19.95,37.37 15.21,25.12 29.35,49.26 47.57,72.53 29.15,37.25 65.14,78.2 102.2,107.33 115.71,90.95 236.73,151.83 420.54,151.83 111.33,0 203.13,-23.64 292.15,-68.14l75.8 -44.29c35.24,-23.48 67.89,-51.29 97.74,-81.13 5.69,-5.68 9.81,-9.48 15.39,-15.28 20.53,-21.32 49.13,-60.15 65.74,-85.01 8.01,-11.99 14.7,-23.36 22.54,-36.23 6.69,-11 14.35,-30.8 20.9,-38.95z"/>
   <path class="fil1" d="M63.88 369.04l1180.5 -0.02c-13.96,-17.28 -37.27,-88.18 -123.28,-174.18l-63.2 -56.9c-109.17,-83.32 -239,-131.44 -373.27,-137.93l-62.62 0c-58.47,2.83 -117.3,13.61 -175.18,32.89 -50.61,16.87 -78.96,31.62 -123.2,55.67 -51.05,27.74 -109.99,78.11 -150.57,120.28 -67.03,69.63 -99.43,148.04 -109.18,160.2z"/>
   <path class="fil2" d="M582.78 555.49l-85.81 -15.99 40.85 76 -76.66 37.58 76.62 38.25 -40.99 76.55 86.21 -15.32 10.45 85.85c14.73,-8.02 44.08,-47.84 60.67,-61.4 22.12,17.08 39.78,46.1 60.82,61.41l10.52 -85.64 85.76 15.84 -40.74 -75.88 77.16 -37.69 -77.13 -38.23 40.93 -76.39 -86.2 15.35 -10.42 -85.92c-20.8,15.27 -38.66,44.38 -60.69,61.4 -16.59,-13.56 -45.94,-53.38 -60.83,-61.43l-10.52 85.66z"/>
  </g>
 </g>
</svg>
