<?xml version="1.0" encoding="UTF-8"?>
<!DOCTYPE svg PUBLIC "-//W3C//DTD SVG 1.1//EN" "http://www.w3.org/Graphics/SVG/1.1/DTD/svg11.dtd">
<!-- Creator: CorelDRAW 2021 (64 Bit) -->
<svg xmlns="http://www.w3.org/2000/svg" xml:space="preserve" width="13.2292mm" height="13.2292mm" version="1.1" style="shape-rendering:geometricPrecision; text-rendering:geometricPrecision; image-rendering:optimizeQuality; fill-rule:evenodd; clip-rule:evenodd"
viewBox="0 0 1308.26 1308.26"
 xmlns:xlink="http://www.w3.org/1999/xlink"
 xmlns:xodm="http://www.corel.com/coreldraw/odm/2003">
 <defs>
  <style type="text/css">
   <![CDATA[
    .fil1 {fill:black}
    .fil2 {fill:#D80027}
    .fil0 {fill:#FFD944}
   ]]>
  </style>
 </defs>
 <g id="Camada_x0020_1">
  <metadata id="CorelCorpID_0Corel-Layer"/>
  <g id="_2102892774768">
   <path class="fil0" d="M426.66 40.88l0 1226.5 23.98 9.29c57.51,18.67 120.44,29.47 183.72,31.6l46.12 0c51.39,-1.74 102.2,-9.36 149.66,-23.29 8.81,-2.59 43.53,-12.16 51.44,-17.59l0 -1226.5 -10.51 -4.87c-61.68,-22.03 -127,-33.88 -192.8,-36.02l-43.84 0c-66.43,2.17 -132.63,14.12 -195.35,35.37l-12.43 5.51z"/>
   <path class="fil1" d="M426.66 1267.38l0 -1226.5c-20.11,4.74 -69.55,28.21 -88.29,39.41 -86.96,51.91 -143.83,95.65 -208.78,182.17 -82.17,109.44 -124.25,235.95 -129.59,362.56l0 54.96c8.46,203.93 111.49,401.72 295.35,522.01l83.65 46.66c13.52,6.27 33.55,15.41 47.66,18.73z"/>
   <path class="fil2" d="M881.59 1267.38c46.81,-11 127.09,-60.9 167.14,-90.89 165.36,-123.87 252.99,-309.66 259.53,-498.85l0 -44.17c-6.42,-200.02 -103.53,-398.74 -295.38,-527.18l-83.62 -46.68c-13.52,-6.27 -33.57,-15.42 -47.67,-18.73l0 1226.5z"/>
  </g>
 </g>
</svg>
