<?xml version="1.0" encoding="UTF-8"?>
<!DOCTYPE svg PUBLIC "-//W3C//DTD SVG 1.1//EN" "http://www.w3.org/Graphics/SVG/1.1/DTD/svg11.dtd">
<!-- Creator: CorelDRAW 2021 (64 Bit) -->
<svg xmlns="http://www.w3.org/2000/svg" xml:space="preserve" width="13.2292mm" height="13.2292mm" version="1.1" style="shape-rendering:geometricPrecision; text-rendering:geometricPrecision; image-rendering:optimizeQuality; fill-rule:evenodd; clip-rule:evenodd"
viewBox="0 0 1308.34 1308.34"
 xmlns:xlink="http://www.w3.org/1999/xlink"
 xmlns:xodm="http://www.corel.com/coreldraw/odm/2003">
 <defs>
  <style type="text/css">
   <![CDATA[
    .fil0 {fill:#6CA444}
    .fil2 {fill:#A8C791}
    .fil1 {fill:#EFEFEF}
   ]]>
  </style>
 </defs>
 <g id="Camada_x0020_1">
  <metadata id="CorelCorpID_0Corel-Layer"/>
  <g id="_1361405625584">
   <path class="fil0" d="M-0 633.73c0,97.29 6,151.24 37.34,241.19 15.22,43.7 29.12,68.7 50.41,108.03 4.94,9.12 9.48,15.2 14.58,23.75 20.98,35.12 60.69,82.65 88.68,110.64 26.51,26.51 54.35,49.35 84.95,70.93 38.39,27.08 56.9,37.74 99.63,58.79 60.53,29.81 165.56,61.29 255.58,61.29l3.46 0c72.14,-0.02 106.66,-0.66 179.53,-18.88 21.99,-5.5 40.21,-11.3 60.75,-18.46 83.83,-29.2 135.26,-65.39 200.89,-115.97 131.07,-101.03 232.53,-305.88 232.53,-477.87 0,-117.99 -13.92,-202.97 -60.45,-299.86 -70.76,-147.38 -170.73,-243.05 -315.18,-315.99 -69.09,-34.88 -177.18,-61.32 -255.55,-61.32 -98.48,0 -152.23,5.45 -243.74,37.34 -18.24,6.36 -39.58,14.79 -56.09,23.11l-75.68 41.87c-107.32,64.1 -185.52,164.58 -241.19,275 -35.03,69.47 -60.46,177.77 -60.46,256.4z"/>
   <path class="fil1" d="M661.04 372.43l-84.32 -1.39 0 109.37c-1.14,10.16 -0.1,3.84 -2.91,6.09 -1.13,13.66 -16.44,14.04 -22.99,5.41 -6.73,-8.86 -3.28,-107.55 -3.28,-122.26l-85.66 0c0.28,83.36 -14.15,152.24 41.88,194.71 22.92,17.38 60.91,23.86 93.16,12.13 27.81,-10.11 10.86,-14.88 37.61,-2.35 17.04,7.97 32.76,9.48 53.03,8.33 -3.18,13.92 -10.67,23.55 -18.69,30.21 -4.67,3.88 -9.5,6.93 -16.27,9.27 -7.07,2.43 -13.6,2.43 -19.8,6.67l0 82.35c72.05,-2.49 121.02,-46.14 137.05,-104.64 11.38,-41.57 5.21,-184.38 5.21,-236.67l-85.61 0c0.11,13.26 2.25,111.07 -1.26,119.45 -2.83,6.74 -15.36,14.97 -24.06,1.15 -7.19,-11.94 -1.9,-96.05 -3.11,-117.82z"/>
   <path class="fil1" d="M709.54 867.48c6.46,20.62 6.68,49.81 46.23,65.89 19.76,8.03 85.78,6.22 110.58,5.26 86.4,-3.34 73.94,-91.21 72.06,-156.56l-570.44 0c2.59,33.62 18.55,55.32 37.56,69.6 24.57,18.46 58.2,15.8 92.77,15.8 70.42,0 140.83,0 211.25,0z"/>
   <path class="fil1" d="M334.16 562.18c0,60.26 -47.5,60.31 -56.88,66.44l0 82.32c83.76,-2.67 142.27,-63.14 142.27,-148.76l0 -192.52 -85.44 0 0.04 192.52z"/>
   <path class="fil1" d="M888.79 625.6l0 85.41c48.51,-1.9 76.46,-18.21 101.47,-42.7 23.59,-23.1 40.81,-59.76 40.81,-106.13l0 -192.52 -85.38 0.05c0,52.41 0,104.56 0,156.7 0,23.34 3.21,50.31 -7.18,69.61 -8.83,16.38 -23.56,28.19 -49.72,29.58z"/>
   <polygon class="fil1" points="817.23,568.08 901.41,568.08 901.79,369.96 817.69,369.71 "/>
   <polygon class="fil1" points="462.16,711.09 580.07,711.09 590.22,710.99 590.22,625.82 580.07,625.68 459.97,625.71 "/>
   <path class="fil2" d="M817.23 568.08c3.33,2.06 -6.59,3 18.35,2.74 7.67,-0.08 15.35,-0.05 23.02,-0.05 14.19,0 31.76,2.61 44.79,-2.13 2.98,-19.66 0.67,-137.23 0.89,-175.12 0.02,-3.79 0.38,-9.42 0.19,-12.95l-2.68 -10.62 -0.39 198.12 -84.17 0z"/>
   <path class="fil2" d="M573.82 486.5c2.81,-2.25 1.77,4.06 2.91,-6.09l0 -109.37 84.32 1.39c-2.64,-6.25 -8.27,-4.01 -17.03,-3.9 -7.69,0.09 -15.37,0.07 -23.06,0.07 -14.31,0 -30.67,-1.06 -44.64,0.72 -5.81,14.5 -2.11,95.19 -2.49,117.17z"/>
  </g>
 </g>
</svg>
