<?xml version="1.0" encoding="UTF-8"?>
<!DOCTYPE svg PUBLIC "-//W3C//DTD SVG 1.1//EN" "http://www.w3.org/Graphics/SVG/1.1/DTD/svg11.dtd">
<!-- Creator: CorelDRAW 2021 (64 Bit) -->
<svg xmlns="http://www.w3.org/2000/svg" xml:space="preserve" width="13.2292mm" height="13.2292mm" version="1.1" style="shape-rendering:geometricPrecision; text-rendering:geometricPrecision; image-rendering:optimizeQuality; fill-rule:evenodd; clip-rule:evenodd"
viewBox="0 0 1308.26 1308.26"
 xmlns:xlink="http://www.w3.org/1999/xlink"
 xmlns:xodm="http://www.corel.com/coreldraw/odm/2003">
 <defs>
  <style type="text/css">
   <![CDATA[
    .fil2 {fill:#6DA544}
    .fil1 {fill:#D70027}
    .fil0 {fill:#EFEFEF}
   ]]>
  </style>
 </defs>
 <g id="Camada_x0020_1">
  <metadata id="CorelCorpID_0Corel-Layer"/>
  <g id="_2102887879840">
   <path class="fil0" d="M426.3 40.88l0.01 1226.5c16.11,10.14 86.93,26.22 103.68,29.6 33.66,6.8 69.31,10.43 105.25,11.28l33.41 0c36.8,-0.86 73.35,-4.51 107.83,-10.52 19.34,-3.38 77.55,-18.3 98.36,-26.86l7.05 -3.5 0 -1226.5c-14.63,-9.34 -89.67,-27.45 -103.23,-29.98 -34.26,-6.39 -70.98,-10.08 -108.3,-10.9l-32 0c-55.42,1.22 -110.89,8.8 -160.24,23.29l-51.81 17.59z"/>
   <path class="fil1" d="M881.89 1267.38c31.35,-2.77 133.98,-64.49 167.22,-90.52 69.36,-54.29 108.31,-97.27 155.92,-168.58 61.14,-91.56 96.93,-207.11 103.23,-321.78l0 -72.31c-1.48,-26.54 -4.64,-52.75 -9.52,-78.3 -19.08,-99.73 -59.45,-193.88 -118.58,-272.37 -27.94,-37.09 -44.75,-54.04 -75.66,-85.31 -31.06,-31.43 -94.91,-76.12 -132.7,-97.27 -14.12,-7.9 -75.6,-38.8 -89.9,-40.06l0 1226.5z"/>
   <path class="fil2" d="M426.31 1267.38l-0.01 -1226.5c-31.31,2.8 -133.92,64.5 -167.15,90.52 -164.95,129.12 -259.16,310.2 -259.16,522.73 0,143.46 43.74,278.6 128.1,390.6 27.52,36.55 58.57,71.27 93.43,100.76 7.01,5.93 10.24,9.25 17.85,15.37 6.72,5.42 11.89,9.72 18.33,14.88 32.88,26.31 137.64,88.87 168.59,91.63z"/>
  </g>
 </g>
</svg>
