<?xml version="1.0" encoding="UTF-8"?>
<!DOCTYPE svg PUBLIC "-//W3C//DTD SVG 1.1//EN" "http://www.w3.org/Graphics/SVG/1.1/DTD/svg11.dtd">
<!-- Creator: CorelDRAW 2021 (64 Bit) -->
<svg xmlns="http://www.w3.org/2000/svg" xml:space="preserve" width="13.2292mm" height="13.2292mm" version="1.1" style="shape-rendering:geometricPrecision; text-rendering:geometricPrecision; image-rendering:optimizeQuality; fill-rule:evenodd; clip-rule:evenodd"
viewBox="0 0 1308.26 1308.26"
 xmlns:xlink="http://www.w3.org/1999/xlink"
 xmlns:xodm="http://www.corel.com/coreldraw/odm/2003">
 <defs>
  <style type="text/css">
   <![CDATA[
    .fil3 {fill:#0052B4}
    .fil2 {fill:#6DA544}
    .fil0 {fill:#EFEFF0}
    .fil1 {fill:#FE9811}
   ]]>
  </style>
 </defs>
 <g id="Camada_x0020_1">
  <metadata id="CorelCorpID_0Corel-Layer"/>
  <g id="_2102796605232">
   <path class="fil0" d="M63.88 939.2l1180.5 0.03c20.98,-53.11 31.04,-67.2 46.03,-129.19 10.49,-43.38 16.41,-88.1 17.85,-132.99l0 -43.6c-2.23,-69.23 -15.01,-137.97 -38,-201.94 -7.87,-21.91 -17.62,-41.56 -25.88,-62.47l-1180.5 0.02c-4.36,11.01 -8.7,19.28 -13.52,31.38 -29.81,74.92 -46.6,148.48 -50.37,221.86l0 63.68c3.77,73.37 20.55,146.92 50.37,221.85 4.82,12.09 9.16,20.36 13.52,31.37z"/>
   <path class="fil1" d="M63.88 369.06l1180.5 -0.02 -31.13 -56.82c-28.41,-44.16 -55.14,-80.38 -92.15,-117.38 -10.91,-10.91 -19.04,-20.14 -31.51,-29.83 -11.16,-8.67 -20.83,-18.78 -31.69,-27.08 -37.21,-28.4 -69.46,-48.71 -111.62,-69.8 -82.68,-41.35 -173.51,-64.37 -265.61,-68.14l-53.95 0c-60.63,2.48 -121.24,13.35 -179.88,32.89 -32.55,10.85 -55.8,20.73 -84.85,35.25 -14.54,7.27 -24.56,12.93 -38.35,20.42 -14.29,7.76 -24.88,15.5 -37.45,23.87 -12.52,8.34 -21.96,14.96 -34.03,24.75l-33.48 27.83c-12.08,9.37 -19.64,17.97 -30.22,28.55 -5.69,5.68 -9.81,9.48 -15.39,15.28 -6.31,6.56 -7.66,10.01 -14,16.66 -53.69,56.35 -86.81,133.06 -95.17,143.55z"/>
   <path class="fil2" d="M1244.38 939.23l-1180.5 -0.03c0.39,0.5 37.41,71.47 67.51,109.91 22.14,28.29 59.42,72.53 87.27,94.15 26.24,20.39 31.66,28.69 67.51,52.58 98.89,65.9 212.93,105.72 332.25,112.43l72.31 0c56.52,-3.19 113.75,-13.91 170.69,-32.89 32.55,-10.85 55.8,-20.73 84.85,-35.25 14.54,-7.27 24.56,-12.93 38.35,-20.42 46.58,-25.31 69.54,-48.93 104.96,-76.45 37.46,-29.08 85.2,-89.71 111.35,-128.84l43.43 -75.19z"/>
   <path class="fil3" d="M626.79 428.55c-116.64,14.49 -215.06,118.92 -198.37,254.29 14.23,115.42 120.36,213.58 254.41,196.98 115.65,-14.32 213.49,-120.04 196.91,-254.76 -14.14,-114.87 -119.9,-213.05 -252.96,-196.52z"/>
   <path class="fil0" d="M669.62 794.47c42.24,-1.49 85.54,-32.95 97.88,-57.14l-70.33 -7.33 -27.55 64.47z"/>
   <path class="fil0" d="M540.73 570.76l70.41 7.4 27.44 -64.39c-41.77,1.41 -85.69,33.2 -97.85,56.99z"/>
   <path class="fil0" d="M742.83 654.13c7.23,12.1 33.35,48.98 42.08,56.29 15.19,-43.31 15.29,-69.25 0,-112.58 -8.73,7.31 -34.85,44.19 -42.08,56.29z"/>
   <path class="fil0" d="M697.67 577.76l69.82 -7c-12.17,-24.03 -55.71,-55.52 -97.41,-57.17l27.59 64.17z"/>
   <path class="fil0" d="M523.29 710.51c7.78,-6.35 35.83,-45.72 42.2,-56.38 -6.66,-11.15 -12.87,-19.17 -20.37,-28.94 -7.62,-9.94 -12.88,-20.13 -21.83,-27.44 -15.28,45.33 -15.14,67.44 0,112.76z"/>
   <path class="fil0" d="M540.82 737.69c12.04,23.59 56.08,55.34 97.36,56.98l-27.57 -64.16 -69.79 7.18z"/>
  </g>
 </g>
</svg>
