<?xml version="1.0" encoding="UTF-8"?>
<!DOCTYPE svg PUBLIC "-//W3C//DTD SVG 1.1//EN" "http://www.w3.org/Graphics/SVG/1.1/DTD/svg11.dtd">
<!-- Creator: CorelDRAW 2021 (64 Bit) -->
<svg xmlns="http://www.w3.org/2000/svg" xml:space="preserve" width="13.2292mm" height="13.2292mm" version="1.1" style="shape-rendering:geometricPrecision; text-rendering:geometricPrecision; image-rendering:optimizeQuality; fill-rule:evenodd; clip-rule:evenodd"
viewBox="0 0 1308.26 1308.26"
 xmlns:xlink="http://www.w3.org/1999/xlink"
 xmlns:xodm="http://www.corel.com/coreldraw/odm/2003">
 <defs>
  <style type="text/css">
   <![CDATA[
    .fil0 {fill:#0052B4}
    .fil1 {fill:#D80027}
    .fil2 {fill:#EEEEEE}
   ]]>
  </style>
 </defs>
 <g id="Camada_x0020_1">
  <metadata id="CorelCorpID_0Corel-Layer"/>
  <g id="_2102725994288">
   <path class="fil0" d="M653.86 85.37l0.13 170.64 -1.03 85.21 -188.54 0.09c4.02,8.61 6.58,9.78 13.4,16.45l143.11 143.06c36.62,36.73 34.44,25.02 33.01,71.59l-1.18 81.33c-20.16,1.13 -112.71,4.18 -122.68,-3.34 -19.52,-14.73 -171.65,-178.11 -188.77,-186.04l0 189.66 -85.37 0 -170.59 -0.15 -85.35 0.3c0,175.88 59.23,301.46 143.09,408.81 82.82,106.02 201.55,184.09 331.07,220.86 34.44,9.78 63.02,14.95 102.19,20.46 12.55,1.77 25.14,3.09 37.72,3.99l82.72 0c100.44,-6.99 198.01,-38.67 281.07,-85.11 27.92,-15.62 48.88,-30.19 73.79,-48.85l33.68 -27.64c12.5,-12.43 30.48,-25.72 47.24,-44.76 5.96,-6.76 7.26,-9.7 14.09,-16.57 22.31,-22.43 62.57,-82.51 76.49,-107.48 50.37,-90.32 79.67,-188.28 85.11,-289.29l0 -68.86c-2.59,-48.22 -10.63,-96.89 -24.45,-145.55 -28.57,-100.64 -65.77,-160.96 -127.78,-240.17 -31.26,-39.93 -70,-74.19 -110.24,-104.4 -98.8,-74.18 -226.62,-129.59 -391.64,-129.59l-0.31 85.37z"/>
   <path class="fil1" d="M85.35 334.73l0 319.13 170.59 0.15 0.02 -397.63 398.02 -0.37 -0.13 -170.64 -319.13 0c-26.33,0.96 -124.7,86.6 -143.73,105.63 -19.05,19.05 -104.59,117.33 -105.65,143.73z"/>
   <path class="fil2" d="M255.94 654l85.37 0 0 -189.66c17.12,7.92 169.24,171.3 188.77,186.04 9.97,7.53 102.51,4.47 122.68,3.34 -26.06,-27.97 -52.03,-51.95 -78.39,-78.25l-212.06 -212.09c-3.89,-3.89 -6.67,-6.27 -10.27,-10 -6.9,-7.16 -4.45,-3.12 -8.25,-12.15 57.25,0 69.6,-8.97 91.27,13.3l218.89 217.87c1.43,-46.57 3.61,-34.86 -33.01,-71.59l-143.11 -143.06c-6.82,-6.67 -9.38,-7.83 -13.4,-16.45l188.54 -0.09 1.03 -85.21 -398.02 0.37 -0.02 397.63z"/>
   <path class="fil2" d="M358.77 842.65l-79.99 -18.17 34.84 74.29c-13.33,11.2 -55.59,43.12 -62.98,52.2l78.76 17.92 0.19 82.4c23.03,-14.51 41.95,-34.37 63.92,-49.81 11.02,4.79 22.42,15.97 32.46,23.93 9.05,7.18 23.49,20.52 33.48,25.33l-0.01 -82.05 79.23 -17.55 -62.94 -51.39 35.23 -74.12 -80.64 17.23 -35.54 -74.12 -36 73.93z"/>
   <path class="fil1" d="M652.76 653.73l1.18 -81.33 -218.89 -217.87c-21.67,-22.27 -34.02,-13.3 -91.27,-13.3 3.8,9.04 1.34,4.99 8.25,12.15 3.61,3.73 6.39,6.11 10.27,10l212.06 212.09c26.36,26.31 52.33,50.29 78.39,78.25z"/>
   <path class="fil2" d="M334.73 85.37l319.13 0 0.31 -85.37c-69.08,0 -123.71,8.16 -178.01,23.88 -57.81,16.74 -77.3,26.83 -126.13,50.16 -8.74,4.18 -10.75,3.4 -15.3,11.33z"/>
   <path class="fil2" d="M-0 654.15l85.35 -0.3 0 -319.13c-7.79,4.49 -5.94,4.09 -10.5,13.57 -3.23,6.7 -5.46,11.17 -8.42,17.1 -44.02,88.01 -66.44,183.96 -66.44,288.76z"/>
   <path class="fil2" d="M1106.41 491.73l-38.04 -8.08c2.38,13.71 13.11,23.76 15.12,37.61 -9.77,10.26 -20.93,14.99 -29.88,24.75l38.62 9.64 0.66 39.9c9.33,-3.71 22.49,-16.65 31.4,-23.14 13.37,6.02 20.17,16.88 33.38,23.68l0.59 -40.67 38.53 -8.41 -15.28 -13.97c-6.77,-5.08 -10.46,-7.37 -15.46,-14.05l16.89 -35.04 -41.17 8.66c-3.06,-12.2 -10.43,-28.41 -18.21,-36.19 -3.52,11.49 -9.69,26.41 -17.16,35.3z"/>
   <path class="fil2" d="M961.78 947.13l-39.2 -8.34 16.25 36.78c-10.65,10.97 -22.33,15.68 -30.89,25.41l38.35 9.88 0.69 39.62c11.86,-5.44 21.75,-15.72 31.68,-23.03 11.56,4.64 21.49,16.2 33.19,23.81l0.15 -39.4 38.78 -9.86c-0.34,-0.3 -1.05,-1.78 -1.29,-1.33l-29.27 -24.75 16.79 -36.93 -39.68 8.4c-3.2,-6.35 -5.68,-11.48 -8.35,-17.4 -3.36,-7.46 -4.88,-12.89 -10.98,-18.33l-16.22 35.47z"/>
   <path class="fil2" d="M961.79 321.6l-39.37 -8.72 16.22 36.85 -21.8 17.56c-0.29,0.25 -4.15,3.96 -4.27,4.09 -4.14,4.68 -0.19,-1.37 -4.12,5.51 45.34,7.4 38.44,3.04 38.47,47.86l17.72 -12.08c6.92,-5.85 8.56,-7.94 17.06,-11.46 9.18,9.39 21.36,16.63 29.05,24.4l1.34 -39.77 37.81 -9.66c-2.82,-6.19 -22.26,-19.26 -29.58,-26.13l16.63 -36.27 -39.96 8.14c-5.45,-12.24 -10.4,-28.02 -18.76,-35.98l-16.45 35.67z"/>
   <path class="fil2" d="M794.33 548.86l-38.99 -8.33 16.57 36.49c-9.37,10.14 -21.33,15.77 -30.02,26l37.33 9.57 0.95 40.36c11.16,-6.8 21.84,-18.4 32.39,-23.81 10.93,6.46 20.77,18.14 31.88,23.66l0.57 -39.56 38.15 -9.52c-5.36,-9.6 -20.94,-16.46 -29.29,-26.25l16.28 -36.31 -40.14 8.33 -16.57 -35.45 -19.11 34.83z"/>
   <path class="fil2" d="M1007.2 697.55l-44.31 0.08c6.55,6.77 25.87,21.18 34.61,24.76l-12.67 43.47c11.59,-5.24 24.43,-16.49 34.71,-24.29 10.99,4.52 26.28,17.51 37.42,24.47l-13.26 -43.2c12.51,-4.95 27.05,-16.64 35.39,-25.16l-44.43 -0.17 -13.01 -41.33c-6.4,9.07 -11.54,28.54 -14.45,41.36z"/>
  </g>
 </g>
</svg>
