<?xml version="1.0" encoding="UTF-8"?>
<!DOCTYPE svg PUBLIC "-//W3C//DTD SVG 1.1//EN" "http://www.w3.org/Graphics/SVG/1.1/DTD/svg11.dtd">
<!-- Creator: CorelDRAW 2021 (64 Bit) -->
<svg xmlns="http://www.w3.org/2000/svg" xml:space="preserve" width="13.2292mm" height="13.2292mm" version="1.1" style="shape-rendering:geometricPrecision; text-rendering:geometricPrecision; image-rendering:optimizeQuality; fill-rule:evenodd; clip-rule:evenodd"
viewBox="0 0 1307.42 1307.42"
 xmlns:xlink="http://www.w3.org/1999/xlink"
 xmlns:xodm="http://www.corel.com/coreldraw/odm/2003">
 <defs>
  <style type="text/css">
   <![CDATA[
    .fil2 {fill:#0052B4}
    .fil3 {fill:#D80027}
    .fil1 {fill:#FFDA44}
    .fil0 {fill:white}
   ]]>
  </style>
 </defs>
 <g id="Camada_x0020_1">
  <metadata id="CorelCorpID_0Corel-Layer"/>
  <path class="fil0" d="M653.71 0c7.49,0 14.94,0.17 22.37,0.42l-44.75 0c7.44,-0.25 14.87,-0.42 22.37,-0.42zm237.85 44.64c2.86,1.12 5.69,2.28 8.52,3.43 -2.83,-1.15 -5.66,-2.31 -8.52,-3.43zm195.34 119.54c2.29,2.05 4.61,4.07 6.89,6.15 -2.27,-2.08 -4.6,-4.1 -6.89,-6.15zm21.26 19.68c5.22,5.05 10.35,10.18 15.4,15.4 -5.05,-5.22 -10.18,-10.35 -15.4,-15.4zm28.93 29.77c2.08,2.28 4.1,4.6 6.15,6.89 -2.05,-2.3 -4.07,-4.61 -6.15,-6.89zm9.86 11.07c2.12,2.45 4.22,4.94 6.33,7.43 -2.1,-2.49 -4.2,-4.98 -6.33,-7.43zm10.06 11.85c1.82,2.18 3.6,4.41 5.39,6.61 -1.79,-2.2 -3.57,-4.43 -5.39,-6.61zm96.45 156.77c1.2,2.79 2.41,5.56 3.58,8.36 -1.17,-2.81 -2.38,-5.58 -3.58,-8.36zm5.89 14.02c1.15,2.84 2.31,5.66 3.43,8.52 -1.12,-2.86 -2.28,-5.68 -3.43,-8.52zm5.83 14.83c1.05,2.77 2.11,5.53 3.12,8.32 -1.01,-2.79 -2.08,-5.55 -3.12,-8.32zm5.5 15.09c0.91,2.59 1.84,5.18 2.71,7.79 -0.87,-2.61 -1.8,-5.2 -2.71,-7.79zm36.31 194.07c0.25,7.44 0.42,14.87 0.42,22.37 0,7.5 -0.18,14.93 -0.42,22.37l0 -22.37 0 -22.37zm-2.47 83.72c-0.24,2.59 -0.46,5.18 -0.74,7.75 0.28,-2.57 0.5,-5.16 0.74,-7.75zm-36.22 161.87c-1.01,2.79 -2.08,5.55 -3.12,8.32 1.05,-2.77 2.11,-5.53 3.12,-8.32zm-5.52 14.64c-1.12,2.86 -2.28,5.68 -3.43,8.52 1.15,-2.84 2.31,-5.66 3.43,-8.52zm-5.74 14.18c-1.17,2.8 -2.38,5.57 -3.58,8.36 1.2,-2.78 2.41,-5.56 3.58,-8.36zm-113.8 181.16c-2.05,2.29 -4.07,4.61 -6.15,6.89 2.08,-2.27 4.1,-4.59 6.15,-6.89zm-19.68 21.26c-5.05,5.22 -10.17,10.35 -15.4,15.4 5.22,-5.05 10.35,-10.18 15.4,-15.4zm-29.77 28.93c-2.27,2.08 -4.59,4.1 -6.89,6.15 2.29,-2.04 4.61,-4.07 6.89,-6.15zm-11.07 9.86c-2.45,2.12 -4.94,4.22 -7.43,6.33 2.49,-2.1 4.98,-4.2 7.43,-6.33zm-11.85 10.06c-2.18,1.82 -4.41,3.61 -6.61,5.39 2.2,-1.78 4.43,-3.57 6.61,-5.39zm-156.77 96.45c-2.78,1.2 -5.56,2.41 -8.36,3.58 2.8,-1.17 5.58,-2.38 8.36,-3.58zm-14.02 5.89c-2.84,1.16 -5.66,2.32 -8.52,3.43 2.86,-1.12 5.68,-2.27 8.52,-3.43zm-14.83 5.83c-2.77,1.05 -5.53,2.11 -8.32,3.12 2.79,-1.01 5.55,-2.08 8.32,-3.12zm-162.44 38.6c-2.57,0.28 -5.16,0.5 -7.75,0.74 2.58,-0.24 5.18,-0.46 7.75,-0.74zm-46.72 3.21c-7.43,0.26 -14.88,0.42 -22.37,0.42 -7.5,0 -14.93,-0.18 -22.37,-0.42l44.75 0zm-482.43 -188.91c-119.57,-118.47 -193.65,-282.76 -193.65,-464.38 0,-181.62 74.08,-345.91 193.65,-464.38l460.05 464.38 -460.05 464.38z"/>
  <path class="fil1" d="M195.16 480.03l56.4 53.85 56.47 -53.84 13.97 76.73 77.3 -10.38 -33.77 70.31 68.63 37.03 -68.64 37.03 33.75 70.31 -77.28 -10.4 -14.02 76.72 -56.41 -53.85 -56.46 53.84 -13.97 -76.73 -77.3 10.38 33.77 -70.31 -68.64 -37.03 68.65 -37.03 -33.75 -70.31 77.28 10.4 14.02 -76.72zm351.19 122.52l-24.69 26.33 -35.44 -6.78 17.4 31.62 -17.41 31.62 35.45 -6.79 24.69 26.33 4.51 -35.82 32.66 -15.35 -32.66 -15.35 -4.51 -35.81zm-369.23 339.02l24.7 26.32 35.43 -6.77 -17.39 31.62 17.4 31.62 -35.44 -6.79 -24.7 26.32 -4.5 -35.81 -32.66 -15.35 32.66 -15.35 4.5 -35.81zm0 -678.02l24.7 26.32 35.43 -6.78 -17.39 31.62 17.4 31.62 -35.44 -6.78 -24.7 26.32 -4.5 -35.82 -32.66 -15.35 32.66 -15.35 4.5 -35.8z"/>
  <path class="fil2" d="M193.63 189.32c153.35,154.8 306.71,309.59 460.07,464.4 217.77,0 435.53,0 653.3,0l0 -23.78c-12.23,-342.12 -287.38,-617.27 -629.51,-629.51l-47.56 0c-169.98,6.09 -323.42,77.05 -436.3,188.89z"/>
  <path class="fil3" d="M193.63 1118.11c153.35,-154.8 306.71,-309.59 460.07,-464.4 217.77,0 435.53,0 653.3,0l0 23.78c-12.23,342.12 -287.38,617.27 -629.51,629.51l-47.56 0c-169.98,-6.09 -323.42,-77.05 -436.3,-188.89z"/>
 </g>
</svg>
