<?xml version="1.0" encoding="UTF-8"?>
<!DOCTYPE svg PUBLIC "-//W3C//DTD SVG 1.1//EN" "http://www.w3.org/Graphics/SVG/1.1/DTD/svg11.dtd">
<!-- Creator: CorelDRAW 2021 (64 Bit) -->
<svg xmlns="http://www.w3.org/2000/svg" xml:space="preserve" width="13.2292mm" height="13.2292mm" version="1.1" style="shape-rendering:geometricPrecision; text-rendering:geometricPrecision; image-rendering:optimizeQuality; fill-rule:evenodd; clip-rule:evenodd"
viewBox="0 0 13025.58 13025.58"
 xmlns:xlink="http://www.w3.org/1999/xlink"
 xmlns:xodm="http://www.corel.com/coreldraw/odm/2003">
 <defs>
  <style type="text/css">
   <![CDATA[
    .fil4 {fill:black}
    .fil1 {fill:#0052B4}
    .fil3 {fill:#338AF3}
    .fil2 {fill:#D80027}
    .fil0 {fill:#FFD944}
   ]]>
  </style>
 </defs>
 <g id="Camada_x0020_1">
  <metadata id="CorelCorpID_0Corel-Layer"/>
  <g id="_2547883253120">
   <path class="fil0" d="M7500.45 4636.52c2.95,5.12 8.27,11.62 10.44,14.38l136.07 168.27c144.93,197.61 243.4,434.51 271.56,689.92 27.86,252.55 28.75,1015.72 -13.88,1252.13 -280.32,1552.53 -2530.64,1538.35 -2787.62,-21.27 -38.7,-235.32 -37.61,-1006.07 -8.27,-1250.45 33.87,-281.7 164.43,-561.72 348.35,-770.95l68.33 -81.23c-80.15,-140.6 -126.23,-160 -144.74,-376.81 -556.5,-164.73 -426.14,-199.28 -586.14,-581.51 -277.76,-34.26 -577.28,-264.07 -533.26,-563.29l1640.95 0c75.72,-49.92 20.68,24.62 58.88,-106.73 73.35,-252.36 208.15,-459.81 551.68,-459.71 567.92,0.1 512.69,537.1 604.25,566.45l1648.43 0c41.75,299.32 -256.29,528.83 -534.45,563.29 -159.41,376.51 -29.64,419.64 -586.43,581.12 -18.12,211 -66.26,239.75 -144.15,376.42zm-1218.35 -4636.52l418.16 0c419.64,13.39 844.89,66.85 1281.76,158.92 1429.85,301.59 2849.26,1244.25 3709.71,2396.04 875.81,1172.08 1333.85,2448.23 1333.85,3957.83l-4247.8 0.79c-26.29,1262.07 -991.99,2263.42 -2264.8,2263.91 -1271.13,0.49 -2239.79,-1003.32 -2265.29,-2264.6l-4247.7 -0.1c0,-599.82 54.74,-974.96 158.92,-1469.23 166.1,-787.59 550.59,-1603.83 1000.95,-2255.44 772.52,-1117.73 1959.27,-2020.52 3250.88,-2447.84 629.46,-208.24 1246.51,-320 1871.35,-340.28z"/>
   <path class="fil1" d="M864.98 9769.09l11295.63 0.1c268.8,-507.96 450.46,-850.31 616.17,-1444.52 155.96,-559.55 248.81,-1081.3 248.81,-1811.88l-4247.8 0.79c-26.29,1262.07 -991.99,2263.42 -2264.8,2263.91 -1271.13,0.49 -2239.79,-1003.32 -2265.29,-2264.6l-4247.7 -0.1c0,1074.5 230.79,2013.92 678.4,2908.73 66.36,132.63 123.67,229.02 186.58,347.57z"/>
   <path class="fil2" d="M12160.6 9769.19l-11295.63 -0.1c455.87,864.09 1376.68,1763.63 2182.88,2269.33 995.34,624.34 2128.03,953.2 3268.11,987.17l393.65 0c1140.18,-33.97 2272.87,-362.93 3268.11,-987.17 381.63,-239.46 1086.91,-793.59 1354.03,-1139.09l381.83 -457.74c161.08,-215.24 321.67,-435.39 447.01,-672.39z"/>
   <path class="fil3" d="M7500.45 4636.52c-315.17,243.89 -509.14,176.84 -987.66,176.84 -471.63,0 -678.49,66.66 -987.37,-176.05l-68.33 81.23c-183.92,209.23 -314.48,489.25 -348.35,770.95 -29.34,244.38 -30.42,1015.13 8.27,1250.45 256.98,1559.62 2507.31,1573.8 2787.62,21.27 42.63,-236.4 41.75,-999.57 13.88,-1252.13 -28.16,-255.41 -126.62,-492.3 -271.56,-689.92l-136.07 -168.27c-2.17,-2.76 -7.48,-9.26 -10.44,-14.38z"/>
   <path class="fil4" d="M5525.43 4637.31c308.87,242.71 515.74,176.05 987.37,176.05 478.52,0 672.49,67.05 987.66,-176.84 77.88,-136.66 126.03,-165.41 144.15,-376.42 556.8,-161.48 427.02,-204.6 586.43,-581.12 278.15,-34.46 576.19,-263.97 534.45,-563.29l-1648.43 0c-91.57,-29.34 -36.33,-566.35 -604.25,-566.45 -343.53,-0.1 -478.32,207.36 -551.68,459.71 -38.2,131.35 16.84,56.81 -58.88,106.73l-1640.95 0c-44.01,299.22 255.51,529.03 533.26,563.29 160,382.23 29.64,416.78 586.14,581.51 18.51,216.81 64.59,236.21 144.74,376.81z"/>
  </g>
 </g>
</svg>
