<?xml version="1.0" encoding="UTF-8"?>
<!DOCTYPE svg PUBLIC "-//W3C//DTD SVG 1.1//EN" "http://www.w3.org/Graphics/SVG/1.1/DTD/svg11.dtd">
<!-- Creator: CorelDRAW 2021 (64 Bit) -->
<svg xmlns="http://www.w3.org/2000/svg" xml:space="preserve" width="13.2292mm" height="13.2292mm" version="1.1" style="shape-rendering:geometricPrecision; text-rendering:geometricPrecision; image-rendering:optimizeQuality; fill-rule:evenodd; clip-rule:evenodd"
viewBox="0 0 1308.26 1308.26"
 xmlns:xlink="http://www.w3.org/1999/xlink"
 xmlns:xodm="http://www.corel.com/coreldraw/odm/2003">
 <defs>
  <style type="text/css">
   <![CDATA[
    .fil0 {fill:#0052B4}
    .fil2 {fill:#D80027}
    .fil1 {fill:#EFEFEF}
   ]]>
  </style>
 </defs>
 <g id="Camada_x0020_1">
  <metadata id="CorelCorpID_0Corel-Layer"/>
  <g id="_2102766322912">
   <path class="fil0" d="M304.07 101.45l56.77 0.95c-13.36,12.7 -41.42,28.85 -53.16,40.78l18.76 62.52c-15.29,-11.11 -36.28,-27.46 -53.04,-37.39 -19.95,10.54 -35.78,27.79 -55.12,37.63l15.87 -55.18c-31.4,27.39 -60.06,55.45 -86.76,88.63 -10.46,12.99 -69,90.48 -69.71,108.12l14.66 48.5c-11.55,-5.8 -18.96,-14.65 -31.02,-19.99 -4.62,7.91 -19.98,41 -19.86,50.7l17.49 56.48 66.97 0.08c-7.64,9.81 -39.28,28.68 -53.15,40.77l19.39 62.34c-19.32,-9.49 -35.18,-27.25 -53.84,-37.01 -11.86,6.36 -22.05,16.7 -33.22,22.29 -4.47,10.76 -5.05,44.49 -5.11,68.11l0 12.26 0 2.07 654.13 0.01 0.14 -170.67 0.24 -170.54 -0.11 -170.66 -0.28 -142.26c-123.38,0 -213.79,26.85 -314.32,79.18 -8.32,4.32 -30.4,16.43 -35.73,22.27z"/>
   <path class="fil1" d="M22.99 824.96l1262.28 -0.01 5.68 -16.92c12.13,-52.99 17.32,-97.43 17.32,-153.94l-654.13 0.03 -654.13 -0.01 0 1.68c0.05,35.18 1.78,58.48 5.56,89.88 1.42,11.91 4.42,29.6 7.19,41.35l7.85 32.96c2.26,5.9 0.64,2.47 2.39,4.97z"/>
   <path class="fil2" d="M97.09 995.33l1114.08 0c5.83,-2.43 8.34,-10.54 12.28,-17.17 18.85,-31.64 61.21,-124.65 61.82,-153.21l-1262.28 0.01c0.56,26.51 55.83,152.2 70.21,167.55 3.73,3.98 -0.11,1.15 3.89,2.82z"/>
   <path class="fil1" d="M248.29 1167.73c8.15,-3.65 803.58,-3.63 811.66,0 10.03,-6 22.79,-19.72 31.88,-27.35 14.37,-12.07 29.66,-25.16 41.93,-39.83l62.06 -78.47c6.52,-9.13 10.71,-15.55 15.35,-26.74l-1114.08 0c7.49,18.1 19.91,33.64 31.39,49.02 24.48,32.77 87.22,103.71 119.81,123.38z"/>
   <path class="fil2" d="M654.13 654.12l654.13 -0.03c0,-50.11 -3.19,-86.73 -12.54,-133.07 -1.49,-7.43 -2.45,-11.15 -4.3,-18.71l-3.77 -14c-1.73,-4.49 -0.84,-2.73 -2.38,-4.86l-631 0 -0.14 170.67z"/>
   <path class="fil1" d="M654.27 483.45l631 0c-1.81,-23.54 -22.57,-71.18 -31.37,-91.8 -5.19,-12.14 -31.62,-69.17 -42.73,-79.14l-556.66 0.41 -0.24 170.54z"/>
   <path class="fil2" d="M654.51 312.91l556.66 -0.41c-6.41,-27.57 -84.65,-112.07 -105.4,-133.01l-42.81 -37.69 -408.56 0.45 0.11 170.66z"/>
   <path class="fil2" d="M1059.95 1167.73c-8.08,-3.63 -803.51,-3.65 -811.66,0 37.19,27.97 35.53,27.65 80.22,54.78 92.29,56.01 202.82,84.27 314.06,85.76l18.77 0c77.05,-1.05 153.98,-14.9 224.95,-41.25 28.54,-10.59 66.42,-28.18 91.86,-43.56 7.74,-4.68 13.85,-7.51 20.97,-12.25 7.29,-4.88 13.45,-9.02 21.43,-14.34l39.4 -29.13z"/>
   <path class="fil1" d="M654.4 142.26l408.56 -0.45 -39.33 -28.37c-14.7,-9.75 -27.32,-18.38 -42.43,-26.56 -40.64,-21.97 -49.4,-26.77 -93.44,-44.54 -65.26,-26.33 -143.11,-42.34 -233.63,-42.34l0.28 142.26z"/>
   <path class="fil1" d="M421.19 292.9l11.33 10.55c4.85,3.37 9.59,6.57 13.49,9.46 8.57,6.37 18.47,14.79 26.88,18.72l-19.98 65.01c2.47,-1.84 45.43,-32.01 53.26,-38.26 18.59,7.73 37.08,28.89 55.68,37.96l-20.01 -63.82c6.83,-4.27 46.5,-31.71 52.21,-39.85l-64.16 -0.04 -21.67 -62.99c-10.22,14.17 -11.79,37.32 -19.06,55.18 -5.64,13.83 -34.27,6.93 -67.98,8.07z"/>
   <path class="fil1" d="M251.8 292.3l-65.23 0.49c6.92,8.68 14.95,13.35 24.4,20.07 8.32,5.92 18.01,14.3 27.29,18.44l-19.75 64.13c17.16,-6.49 38.59,-30.07 54.9,-36.57 8.3,6 17.2,11.93 26.45,18.44 9.8,6.88 17.01,13.78 27.25,18.95l-19.31 -61.5c6.79,-8.88 25.93,-20.96 37.88,-29.82l13.69 -12.29 -64.31 -0.01 -21.65 -62.6 -21.61 62.26z"/>
   <path class="fil1" d="M247.85 483.26l-62.9 0.16c13.89,13.35 41.5,27.51 52.72,40.4l-19.48 62.98c18.19,-9.18 37.87,-29.82 55.21,-37.38 11.72,6.04 38.46,28.94 53.32,37.4l-19.21 -62.8c15.04,-14.26 40.86,-26.99 53.11,-40.67l-67.03 -0.1 -19.74 -62.35c-7.8,13.05 -9.16,21.14 -17.39,47.7 -2.7,8.71 -1.1,10.56 -8.62,14.67z"/>
   <path class="fil1" d="M482.94 483.26l-63.28 0.11 52.65 40.45 -19.52 63.25c16.34,-8.61 41.5,-32.9 55.7,-37.57 17.21,10.93 36.59,28.62 53.19,37.61l-19.85 -63.64c15.99,-13.45 38.55,-25.75 53.49,-40l-67.12 -0.23 -20.27 -63.38c-7.15,14.42 -13.39,55.74 -24.99,63.4z"/>
   <path class="fil1" d="M486.49 102.12l-66.72 0.26c15.48,15.31 37.15,25.58 52.69,40.71l-19.63 63c17.67,-8.22 37.09,-30.15 55.66,-37.68l53 37.64 -19.22 -62.84c10.05,-11.84 40.11,-28.69 53.19,-40.62l-67.11 -0.45 -20.36 -63.29 -21.49 63.25z"/>
   <path class="fil1" d="M5.11 571.68c11.16,-5.59 21.36,-15.93 33.22,-22.29 18.66,9.75 34.51,27.51 53.84,37.01l-19.39 -62.34c13.87,-12.09 45.51,-30.96 53.15,-40.77l-66.97 -0.08 -17.49 -56.48c-12.71,15.04 -36.35,123.05 -36.35,144.96z"/>
   <path class="fil1" d="M234.16 150.76l-15.87 55.18c19.34,-9.84 35.18,-27.09 55.12,-37.63 16.75,9.93 37.75,26.29 53.04,37.39l-18.76 -62.52c11.75,-11.94 39.8,-28.09 53.16,-40.78l-56.77 -0.95c-10.45,4.3 -27.26,17.35 -35.78,23.75 -5.45,4.1 -10.05,7.54 -16.06,12.04 -6.83,5.12 -11.05,9.69 -18.08,13.52z"/>
   <path class="fil1" d="M61.32 376.02c12.06,5.34 19.47,14.18 31.02,19.99l-14.66 -48.5c-4.26,3.67 -0.86,-0.75 -5.28,5.95 -0.57,0.88 -3.15,6.07 -3.5,6.78 -2.58,5.25 -4.96,10.36 -7.59,15.77z"/>
  </g>
 </g>
</svg>
