<?xml version="1.0" encoding="UTF-8"?>
<!DOCTYPE svg PUBLIC "-//W3C//DTD SVG 1.1//EN" "http://www.w3.org/Graphics/SVG/1.1/DTD/svg11.dtd">
<!-- Creator: CorelDRAW 2021 (64 Bit) -->
<svg xmlns="http://www.w3.org/2000/svg" xml:space="preserve" width="13.2292mm" height="13.2292mm" version="1.1" style="shape-rendering:geometricPrecision; text-rendering:geometricPrecision; image-rendering:optimizeQuality; fill-rule:evenodd; clip-rule:evenodd"
viewBox="0 0 1308.26 1308.26"
 xmlns:xlink="http://www.w3.org/1999/xlink"
 xmlns:xodm="http://www.corel.com/coreldraw/odm/2003">
 <defs>
  <style type="text/css">
   <![CDATA[
    .fil0 {fill:#D80027}
    .fil1 {fill:#F0F0F0}
   ]]>
  </style>
 </defs>
 <g id="Camada_x0020_1">
  <metadata id="CorelCorpID_0Corel-Layer"/>
  <g id="_2102777753152">
   <path class="fil0" d="M-0 654.12l1308.26 -0.01c0,-184.12 -71.23,-343.34 -191,-463.11 -119.79,-119.78 -278.99,-191 -463.13,-191 -96.65,0 -186.9,18.51 -270.02,57.05 -76.12,35.29 -137.5,78.34 -193.12,133.95 -55.61,55.62 -98.65,117 -133.95,193.12 -17.7,38.18 -30.48,79.09 -41.23,122.3 -11.6,46.59 -15.82,89.97 -15.82,147.71z"/>
   <path class="fil1" d="M1308.26 654.11l-1308.26 0.01c0,137.71 39.22,262.31 116.49,374.11 39.01,56.45 86.28,103.96 140.1,146.08 32.53,25.45 90.16,61.05 127.76,76.66 39.42,16.36 77.91,31.96 122.19,41.34 43.7,9.26 86.36,14.62 128.48,15.95l41.94 0c62.96,-2.04 125.13,-13.28 188.29,-34.18 55.51,-18.36 117.39,-48.74 162.66,-82.64 32.44,-24.3 85.24,-63.94 109.16,-95.26l54.37 -68.27c75.93,-101.35 116.82,-244.57 116.82,-373.8z"/>
   <path class="fil1" d="M551.78 535.85c-23.13,-11.71 -67.8,-16.33 -106.62,-66.25 -82.44,-106.03 -48.16,-239.58 45.28,-296.03 24.31,-14.69 38.5,-16.1 61.34,-27.16 -129.39,-25.66 -238.04,73.74 -238.89,193.43 -0.86,120.13 109.2,223.99 238.88,196z"/>
   <path class="fil1" d="M750.46 285.2l-42.14 0.21c5.82,8.67 23.39,17.99 32.56,26.33l-12.1 42.31c12.07,-7.07 23.35,-16.43 35.24,-24.31 14.4,5.62 21.76,16.8 36.47,23.22l-12.29 -40.32c5.4,-5.11 8.9,-7.56 15.65,-12.17 7.24,-4.94 12.59,-7.58 17.8,-15.29l-41.59 -0.01 -14.69 -41.54 -14.9 41.57z"/>
   <path class="fil1" d="M571.71 413.06l-42.71 0.2c8.4,9.54 22.88,19.98 33.77,25.13l-12.98 43.52c12.33,-6.94 23.49,-16.54 35.36,-24.27 13.65,6.13 22.23,17.37 36.33,23.4l-12.25 -41.23c11.48,-9.53 26.21,-16.41 33.85,-25.78l-42.22 -1.06 -14.54 -41.27 -14.62 41.36z"/>
   <path class="fil1" d="M707.78 413.23l-42.31 -0.13c6.69,9.99 22.61,17.17 32.58,26.39l-11.57 41.53c12.63,-6.47 26.59,-19.84 36.64,-23.42 11.95,7.39 23.14,17 34.87,24.41l-13.07 -43.28c11.38,-5.33 26.36,-15.87 34.43,-25.23l-42.45 -0.51 -14.48 -41.51 -14.64 41.73z"/>
   <path class="fil1" d="M636.24 199.81l-40.14 0.13c11.9,9.52 21.88,16.59 34.22,25.75l-12.34 42.56c12.85,-5.99 22.75,-16.24 36.15,-23.98l35.42 24.53 -12.04 -41.31c5.85,-6.96 26.53,-20.43 34.64,-27.26l-40.14 -0.46c-11.26,-6.44 -11.27,-29.27 -17.89,-39.2 -6.61,9.91 -6.6,32.72 -17.89,39.25z"/>
   <path class="fil1" d="M528.91 285.4l-42.12 -0.23c0.43,0.65 1.16,0.76 1.42,1.82l31.9 25.62 -12.69 40.3c14.6,-5.81 22.82,-17.13 36.82,-23.21 12.02,7.59 23.23,17.19 34.73,24.42l-12.62 -42.04c10.87,-8.9 28.48,-18.57 33.68,-26.24l-41.92 -0.79 -14.64 -41.46 -14.58 41.8z"/>
  </g>
 </g>
</svg>
