<?xml version="1.0" encoding="UTF-8"?>
<!DOCTYPE svg PUBLIC "-//W3C//DTD SVG 1.1//EN" "http://www.w3.org/Graphics/SVG/1.1/DTD/svg11.dtd">
<!-- Creator: CorelDRAW 2021 (64 Bit) -->
<svg xmlns="http://www.w3.org/2000/svg" xml:space="preserve" width="13.2292mm" height="13.2292mm" version="1.1" style="shape-rendering:geometricPrecision; text-rendering:geometricPrecision; image-rendering:optimizeQuality; fill-rule:evenodd; clip-rule:evenodd"
viewBox="0 0 1308.26 1308.26"
 xmlns:xlink="http://www.w3.org/1999/xlink"
 xmlns:xodm="http://www.corel.com/coreldraw/odm/2003">
 <defs>
  <style type="text/css">
   <![CDATA[
    .fil4 {fill:black}
    .fil1 {fill:#0052B4}
    .fil2 {fill:#6DA544}
    .fil0 {fill:#D80027}
    .fil3 {fill:#EFEFEF}
    .fil5 {fill:#FED944}
   ]]>
  </style>
 </defs>
 <g id="Camada_x0020_1">
  <metadata id="CorelCorpID_0Corel-Layer"/>
  <g id="_2102771680272">
   <path class="fil0" d="M255.52 135.24l300.22 300.43c58.05,57.9 27.45,47.76 123.95,47.76 196.62,0 414.1,3.58 605.59,-0.14 -0.6,-28.41 -42.47,-119.15 -57.95,-146.83 -37.69,-67.38 -47.32,-70.46 -86.22,-120.76 -15.89,-20.55 -55.94,-55.78 -79.24,-74.07 -29.29,-23.01 -58.43,-43.67 -91.71,-61.59 -86.34,-46.48 -183.75,-74.52 -283.55,-80.05l-72.8 0c-77.71,4.33 -155.61,22.72 -229.67,57.05 -27.08,12.56 -113.67,58.79 -128.6,78.19z"/>
   <path class="fil1" d="M255.52 1173.03c13.96,18.09 107.11,67.86 126.88,77.35 42.26,20.28 104.47,40.29 157.81,49.15 26.12,4.34 51.34,7.22 75.8,8.73l81.35 0c97.65,-6.25 184.14,-35.05 269.4,-78.32 108.01,-54.83 200.23,-153.5 259.63,-256.52 15.66,-27.18 58.29,-120.38 58.88,-148.46 -191.8,-3.67 -408.8,-0.14 -605.59,-0.14 -15.63,0 -70.83,-3.4 -80.67,4.17l-343.5 344.03z"/>
   <path class="fil2" d="M84.33 331.09c9.49,-0.45 33.41,28.38 41.39,36.35l284.92 286.69c-11.08,13.37 -27.13,27.85 -40.16,40.85l-122.43 122.87c-27.87,27.89 -53.8,53.96 -81.63,81.9 -14.21,14.28 -26.58,26.68 -40.83,40.93 -7.93,7.93 -31.9,36.87 -41.26,36.49 5.63,16.63 48.55,74 61.65,90.57 5.64,7.11 8.57,9.73 14.24,16.43 9.89,11.7 18.87,24.93 31.43,32.04 48.25,-43.05 135.8,-134.18 185.86,-184.24 62.43,-62.43 123.12,-125.62 186.35,-186.72 10.9,-10.53 67.04,-5.8 85.17,-5.8 93.69,0 187.38,0 281.07,0 123.27,0 250.26,2.99 373.06,-0.18 2.47,-12.24 4.17,-29.51 5.11,-48.66l0 -72.96c-0.94,-19.17 -2.64,-36.42 -5.11,-48.66 -174.77,-4.31 -379.26,-0.18 -559.59,-0.18 -27.62,0 -168.02,5.71 -180.84,-4.68l-371.07 -372.12c-10.53,6.06 -35.43,35.33 -44.56,47.06 -5.19,6.69 -8.41,10.36 -13.49,17.17 -10.26,13.75 -44.75,61.45 -49.27,74.85z"/>
   <path class="fil3" d="M191.64 192.01l371.07 372.12c12.83,10.38 153.22,4.68 180.84,4.68 180.33,0 384.82,-4.13 559.59,0.18 0,-16.25 -7.57,-47 -11.29,-64.55l-6.59 -21.14c-191.48,3.72 -408.97,0.14 -605.59,0.14 -96.5,0 -65.9,10.15 -123.95,-47.76l-300.22 -300.43c-11.31,8.1 -22.35,16.63 -32.58,26.37 -10.87,10.35 -23.42,17.51 -31.3,30.39z"/>
   <path class="fil3" d="M191.64 1116.22c7.63,12.59 19.38,19.27 30.01,29.16 10.67,9.92 22.25,19.3 33.86,27.65l343.5 -344.03c9.84,-7.58 65.03,-4.17 80.67,-4.17 196.79,0 413.78,-3.53 605.59,0.14 6.64,-9.51 17.88,-78.03 17.88,-85.69 -122.8,3.16 -249.79,0.18 -373.06,0.18 -93.69,0 -187.38,0 -281.07,0 -18.13,0 -74.27,-4.73 -85.17,5.8 -63.23,61.1 -123.92,124.29 -186.35,186.72 -50.06,50.06 -137.61,141.19 -185.86,184.24z"/>
   <path class="fil4" d="M45.99 897.95l244.16 -243.78 -244.16 -243.88c-29.2,69.23 -44.55,150.07 -45.99,231.46l0 25.31c1.44,81.2 16.74,161.82 45.99,230.89z"/>
   <path class="fil5" d="M84.33 331.09c-9.73,14.64 -33.41,62.39 -38.33,79.2l244.16 243.88 -244.16 243.78c4.63,15.87 29.08,65.28 38.33,79.23 9.36,0.38 33.33,-28.56 41.26,-36.49 14.25,-14.25 26.62,-26.65 40.83,-40.93 27.83,-27.95 53.76,-54.01 81.63,-81.9l122.43 -122.87c13.03,-13 29.08,-27.48 40.16,-40.85l-284.92 -286.69c-7.98,-7.97 -31.89,-36.8 -41.39,-36.35z"/>
  </g>
 </g>
</svg>
