<?xml version="1.0" encoding="UTF-8"?>
<!DOCTYPE svg PUBLIC "-//W3C//DTD SVG 1.1//EN" "http://www.w3.org/Graphics/SVG/1.1/DTD/svg11.dtd">
<!-- Creator: CorelDRAW 2021 (64 Bit) -->
<svg xmlns="http://www.w3.org/2000/svg" xml:space="preserve" width="13.2292mm" height="13.2292mm" version="1.1" style="shape-rendering:geometricPrecision; text-rendering:geometricPrecision; image-rendering:optimizeQuality; fill-rule:evenodd; clip-rule:evenodd"
viewBox="0 0 1308.26 1308.26"
 xmlns:xlink="http://www.w3.org/1999/xlink"
 xmlns:xodm="http://www.corel.com/coreldraw/odm/2003">
 <defs>
  <style type="text/css">
   <![CDATA[
    .fil1 {fill:#6EA443}
    .fil0 {fill:#D60028}
   ]]>
  </style>
 </defs>
 <g id="Camada_x0020_1">
  <metadata id="CorelCorpID_0Corel-Layer"/>
  <g id="_2102883232224">
   <path class="fil0" d="M-0 633.69c0,97.28 6,151.24 37.34,241.18 15.23,43.7 29.12,68.7 50.41,108.02 4.93,9.12 9.48,15.2 14.58,23.74 20.98,35.12 60.69,82.64 88.68,110.63 26.51,26.51 54.35,49.35 84.95,70.93 38.39,27.09 56.89,37.74 99.62,58.79 60.52,29.81 165.55,61.28 255.57,61.28l3.46 0c72.13,-0.02 106.66,-0.66 179.52,-18.88 21.99,-5.5 40.21,-11.3 60.75,-18.46 83.82,-29.2 135.25,-65.39 200.88,-115.96 131.06,-101.03 232.52,-305.86 232.52,-477.84 0,-117.98 -13.92,-202.96 -60.44,-299.84 -70.76,-147.37 -170.72,-243.04 -315.16,-315.97 -69.09,-34.88 -177.17,-61.31 -255.54,-61.31 -98.48,0 -152.22,5.45 -243.73,37.34 -18.24,6.35 -39.58,14.78 -56.09,23.11l-75.67 41.87c-107.32,64.09 -185.51,164.57 -241.18,274.98 -35.03,69.46 -60.45,177.76 -60.45,256.39z"/>
   <path class="fil1" d="M563.42 536.93l-294.03 0.05c39.73,34.86 210.12,148.77 236.06,173.38l-89.55 278.75c23.17,-13.24 90.38,-64.85 119.7,-85.51l118.53 -85.02c19.91,9.94 220.43,162.53 237.7,170.68l-90.31 -279.89c19.3,-10.87 40.14,-28.12 59.74,-42.27l148.19 -107.38c9.71,-7.32 20.77,-14.09 29.42,-21.96l-294.04 -0.83c-5.71,-23.05 -85.29,-268.61 -90.7,-276.75 -8.87,13.35 -38.28,113.9 -46.21,138.2l-44.5 138.56z"/>
   <path class="fil0" d="M572.91 690.26c15,5.91 60.98,44.84 81.22,56.2 17.02,-7.36 62.83,-48.74 80.46,-55.45l-30.29 -96.98 -99.75 -0.3 -31.64 96.53z"/>
   <path class="fil0" d="M784.45 652.01c7.64,-3.78 74.68,-52.29 78.78,-58.17l-98.03 0.02c1.71,14.56 11.62,47.66 19.25,58.15z"/>
   <path class="fil0" d="M524.08 840.61c14.6,-8.47 27.07,-18.29 40.46,-28.21 12.6,-9.34 27.54,-18.56 40.02,-28.98 -5.55,-6.05 -42.41,-33.82 -50.03,-37.03l-30.45 94.21z"/>
   <path class="fil0" d="M523.81 652.08c5.85,-7.74 18.74,-50.75 19.42,-58.2l-98.03 -0.04c4.74,6.29 67.39,51.45 78.61,58.24z"/>
   <path class="fil0" d="M703.44 783.68l80.24 56.83 -30.1 -94.15c-7.06,2.9 -45.6,31.72 -50.14,37.31z"/>
   <polygon class="fil0" points="622.74,536.77 685.07,536.93 655.26,443.79 "/>
  </g>
 </g>
</svg>
