<?xml version="1.0" encoding="UTF-8"?>
<!DOCTYPE svg PUBLIC "-//W3C//DTD SVG 1.1//EN" "http://www.w3.org/Graphics/SVG/1.1/DTD/svg11.dtd">
<!-- Creator: CorelDRAW 2021 (64 Bit) -->
<svg xmlns="http://www.w3.org/2000/svg" xml:space="preserve" width="13.2292mm" height="13.2292mm" version="1.1" style="shape-rendering:geometricPrecision; text-rendering:geometricPrecision; image-rendering:optimizeQuality; fill-rule:evenodd; clip-rule:evenodd"
viewBox="0 0 1308.34 1308.34"
 xmlns:xlink="http://www.w3.org/1999/xlink"
 xmlns:xodm="http://www.corel.com/coreldraw/odm/2003">
 <defs>
  <style type="text/css">
   <![CDATA[
    .fil1 {fill:#D80027}
    .fil0 {fill:#EEEEEE}
   ]]>
  </style>
 </defs>
 <g id="Camada_x0020_1">
  <metadata id="CorelCorpID_0Corel-Layer"/>
  <g id="_1324997608560">
   <path class="fil0" d="M369.08 63.89l0.03 1180.57c52.84,21.03 67.82,31.2 129.15,46.04 40.86,9.88 81.1,15.74 120.84,17.85l66.94 0c75.22,-3.99 148.88,-21.34 221.84,-50.37 12.1,-4.82 20.35,-9.14 31.34,-13.52l0.01 -1180.57c-11,-4.38 -19.26,-8.7 -31.35,-13.52 -74.77,-29.75 -148.1,-46.53 -221.25,-50.37l-64.93 0c-73.15,3.84 -146.48,20.62 -221.24,50.37 -12.1,4.82 -20.37,9.16 -31.38,13.52z"/>
   <path class="fil1" d="M369.11 1244.45l-0.03 -1180.57c-8.2,6.53 -26.57,13.4 -37.37,19.94 -42.82,25.94 -84.75,53.94 -121.56,87.99 -33.53,31 -72.27,76.2 -97.71,114.39 -7.76,11.65 -16.28,23.25 -23,35.77 -7.28,13.55 -13.79,25.04 -21.29,40.03 -41.9,83.82 -64.61,175.01 -68.14,266.82l0 50.7c3.53,91.81 26.24,183 68.14,266.82 18.92,37.82 42.67,77.35 69.04,109.83 51.38,63.28 87.79,98.8 156.68,144.86 11.99,8.01 23.36,14.7 36.24,22.54 11.19,6.8 30.54,14.22 39.01,20.9z"/>
   <path class="fil1" d="M939.23 1244.45c8.41,-6.61 26.49,-13.33 37.41,-19.94 6.99,-4.24 12.7,-6.83 19.47,-11.2 6.66,-4.28 12.17,-8.18 18.37,-12.3 11.9,-7.93 22.89,-14.83 34.69,-24.07l49.02 -40.42c5.71,-5.27 9.72,-9.78 15.3,-15.37l56.52 -63.57 48.9 -71.22c58.02,-108 89.43,-195.21 89.43,-332.2 0,-171.56 -53.59,-293.69 -150.74,-419.1 -26.84,-34.64 -47.63,-50.15 -74.77,-76 -19.46,-18.53 -46.09,-36.9 -68.36,-51.74l-36.27 -22.51c-11.14,-6.73 -30.63,-14.34 -38.98,-20.93l-0.01 1180.57z"/>
   <path class="fil1" d="M598.04 539.68l-55.63 0.74c2.42,19.97 45.83,85.1 53.02,112.03l-111.51 -54.76 -0.37 57.53 -54.5 26.5 5.87 5.06c1.59,1.02 5.22,2.79 6.71,3.52 4.58,2.26 8.58,4.19 13.7,6.74 20.09,10.04 70.24,36.84 84.47,41.13l-27.01 57.78 112.97 0.48 0 85.3 56.85 0 -0.02 -84.91 112.09 -0.46 -27.12 -57.64c15.19,-4.43 63.74,-30.61 83.91,-40.69l27.67 -15.76 -54.08 -27.77 -0.28 -56.11 -111.43 54.83c6.69,-27.54 50.28,-93.05 52.58,-112.82l-56.57 -0.03 -54.36 -83.92 -56.97 83.23z"/>
  </g>
 </g>
</svg>
