<?xml version="1.0" encoding="UTF-8"?>
<!DOCTYPE svg PUBLIC "-//W3C//DTD SVG 1.1//EN" "http://www.w3.org/Graphics/SVG/1.1/DTD/svg11.dtd">
<!-- Creator: CorelDRAW 2021 (64 Bit) -->
<svg xmlns="http://www.w3.org/2000/svg" xml:space="preserve" width="13.2292mm" height="13.2292mm" version="1.1" style="shape-rendering:geometricPrecision; text-rendering:geometricPrecision; image-rendering:optimizeQuality; fill-rule:evenodd; clip-rule:evenodd"
viewBox="0 0 1308.26 1308.26"
 xmlns:xlink="http://www.w3.org/1999/xlink"
 xmlns:xodm="http://www.corel.com/coreldraw/odm/2003">
 <defs>
  <style type="text/css">
   <![CDATA[
    .fil2 {fill:#0052B3}
    .fil1 {fill:#A2001D}
    .fil0 {fill:#EFEFEF}
   ]]>
  </style>
 </defs>
 <g id="Camada_x0020_1">
  <metadata id="CorelCorpID_0Corel-Layer"/>
  <g id="_1361400549520">
   <path class="fil0" d="M40.88 881.99l1226.5 0c10.18,-16.32 26.18,-86.77 29.6,-103.72 6.42,-31.73 10.16,-65.58 11.28,-100.13l0 -44.59c-2.01,-62.61 -12.4,-125.6 -30.98,-180.96l-9.9 -26.31 -1226.5 0c-1.92,3.07 -0.59,0.37 -2.72,5.29 -25.83,59.94 -38.16,159.24 -38.16,222.56 0,61.93 6.83,119.98 23.29,176.02 2.45,8.34 4.76,16.78 7.69,25.52 1.3,3.89 3.09,9.62 4.39,13.47 1.13,3.33 0.78,2.69 2.01,5.71 2.65,6.48 0.37,2.12 3.5,7.14z"/>
   <path class="fil1" d="M40.88 426.28l1226.5 0c-2.81,-31.3 -64.5,-133.91 -90.52,-167.13 -40.34,-51.54 -78.38,-90.3 -130.67,-129.96 -100.31,-76.12 -227.62,-121.43 -355.76,-129.19l-78.39 0c-25.63,1.58 -51.09,4.74 -76.15,9.52 -38.99,7.47 -67.83,16.39 -102.48,27.83 -102.98,34.01 -181.89,93.95 -255.2,166.42 -21.74,21.48 -55.16,66.48 -71.92,91.61 -17.84,26.75 -63.28,107.2 -65.41,130.9z"/>
   <path class="fil2" d="M1267.38 881.99l-1226.5 0c2.81,31.29 64.5,133.9 90.52,167.12 129.16,165 310.22,259.16 522.73,259.16 143.46,0 278.6,-43.74 390.6,-128.1 36.55,-27.52 71.27,-58.57 100.76,-93.43 27.65,-32.69 30.59,-35.02 56.48,-73.84 17.84,-26.75 63.28,-107.2 65.41,-130.89z"/>
  </g>
 </g>
</svg>
