<?xml version="1.0" encoding="UTF-8"?>
<!DOCTYPE svg PUBLIC "-//W3C//DTD SVG 1.1//EN" "http://www.w3.org/Graphics/SVG/1.1/DTD/svg11.dtd">
<!-- Creator: CorelDRAW 2021 (64 Bit) -->
<svg xmlns="http://www.w3.org/2000/svg" xml:space="preserve" width="13.2292mm" height="13.2292mm" version="1.1" style="shape-rendering:geometricPrecision; text-rendering:geometricPrecision; image-rendering:optimizeQuality; fill-rule:evenodd; clip-rule:evenodd"
viewBox="0 0 1308.26 1308.26"
 xmlns:xlink="http://www.w3.org/1999/xlink"
 xmlns:xodm="http://www.corel.com/coreldraw/odm/2003">
 <defs>
  <style type="text/css">
   <![CDATA[
    .fil0 {fill:#D80027}
    .fil1 {fill:#F0EFEF}
   ]]>
  </style>
 </defs>
 <g id="Camada_x0020_1">
  <metadata id="CorelCorpID_0Corel-Layer"/>
  <g id="_2102420013232">
   <path class="fil0" d="M-0 633.69c0,97.28 6,151.24 37.34,241.18 15.23,43.7 29.12,68.7 50.41,108.02 4.93,9.12 9.48,15.2 14.58,23.74 20.98,35.12 60.69,82.64 88.68,110.63 26.51,26.51 54.35,49.35 84.95,70.93 38.39,27.09 56.89,37.74 99.62,58.79 60.52,29.81 165.55,61.28 255.57,61.28l3.46 0c72.13,-0.02 106.66,-0.66 179.52,-18.88 21.99,-5.5 40.21,-11.3 60.75,-18.46 83.82,-29.2 135.25,-65.39 200.88,-115.96 131.06,-101.03 232.52,-305.86 232.52,-477.84 0,-117.98 -13.92,-202.96 -60.44,-299.84 -70.76,-147.37 -170.72,-243.04 -315.16,-315.97 -69.09,-34.88 -177.17,-61.31 -255.54,-61.31 -98.48,0 -152.22,5.45 -243.73,37.34 -18.24,6.35 -39.58,14.78 -56.09,23.11l-75.67 41.87c-107.32,64.09 -185.51,164.57 -241.18,274.98 -35.03,69.46 -60.45,177.76 -60.45,256.39z"/>
   <path class="fil1" d="M566.02 818.99c-224.55,98.97 -370.75,-196.41 -186.71,-319.53 54.6,-36.53 123.92,-38.16 186.71,-10.18 -13.75,-8.47 -35.67,-41.84 -108.41,-57.53 -136.15,-29.36 -275.39,71.94 -275.32,222.36 0.1,200.17 236.21,294.32 373.28,174.74 4.72,-4.11 6.07,-7.24 10.44,-9.87z"/>
   <path class="fil1" d="M627.31 549.37l-0.02 75.43 -83.21 28.33 82.91 29.14 0.2 88.84c5.14,-3.15 48.73,-63.44 52.66,-70.71l86.06 26.88c-11.93,-22.49 -43.17,-57.12 -50.73,-73.15 11.68,-23.36 40.85,-50.48 50.65,-72.97l-85.72 27.47c-3.34,-6.4 -42.8,-63.92 -52.75,-70.66l-0.05 11.39z"/>
  </g>
 </g>
</svg>
