<?xml version="1.0" encoding="UTF-8"?>
<!DOCTYPE svg PUBLIC "-//W3C//DTD SVG 1.1//EN" "http://www.w3.org/Graphics/SVG/1.1/DTD/svg11.dtd">
<!-- Creator: CorelDRAW 2021 (64 Bit) -->
<svg xmlns="http://www.w3.org/2000/svg" xml:space="preserve" width="13.2292mm" height="13.2292mm" version="1.1" style="shape-rendering:geometricPrecision; text-rendering:geometricPrecision; image-rendering:optimizeQuality; fill-rule:evenodd; clip-rule:evenodd"
viewBox="0 0 1308.26 1308.26"
 xmlns:xlink="http://www.w3.org/1999/xlink"
 xmlns:xodm="http://www.corel.com/coreldraw/odm/2003">
 <defs>
  <style type="text/css">
   <![CDATA[
    .fil0 {fill:#0052B4}
    .fil1 {fill:#D60028}
    .fil3 {fill:#EEEFEF}
    .fil2 {fill:#FFD944}
   ]]>
  </style>
 </defs>
 <g id="Camada_x0020_1">
  <metadata id="CorelCorpID_0Corel-Layer"/>
  <g id="_2102420042272">
   <path class="fil0" d="M63.88 938.67l1180.5 0.02c42.4,-97.48 63.88,-169.71 63.88,-284.56 0,-60.78 -6.08,-107.23 -17.85,-155.9 -5.5,-22.71 -12.81,-46.28 -20.15,-66.72 -7.78,-21.68 -17.13,-41.8 -25.88,-61.94l-1180.5 0.02c-18.06,41.39 -34.38,80.29 -46.03,128.64 -10.76,44.69 -16.71,91.75 -17.85,139.07l0 33.66c1.14,47.32 7.09,94.38 17.85,139.07 11.63,48.27 27.98,87.25 46.03,128.64z"/>
   <path class="fil1" d="M1244.38 938.69l-1180.5 -0.02c20.93,31.14 38.88,79.31 81.19,127.42 41.33,47 31.65,37.02 74.05,76.7 20.53,19.2 43.72,37.56 67.05,53.05 103.75,68.89 218.34,106.32 333.9,112.42l67.53 0c115.76,-6.1 230.57,-43.6 334.48,-112.42 54.35,-36 84.57,-67.59 127.14,-113.05 25.11,-26.83 68.85,-92 84.96,-124.57 3.21,-6.5 6.24,-13.66 10.2,-19.52z"/>
   <path class="fil2" d="M63.88 369.59l1180.5 -0.02c-6.56,-9.71 -14.02,-26.63 -20.3,-37.53 -7.98,-13.84 -14.52,-25.31 -23.13,-38.19 -31.51,-47.16 -68.42,-91.95 -111.67,-128.52 -11.16,-9.45 -20.1,-18.32 -31.77,-27 -12.1,-9.01 -23.04,-17.71 -35.41,-25.91 -104.13,-68.96 -219.02,-106.43 -334.85,-112.42l-66.19 0c-115.83,5.98 -230.73,43.45 -334.88,112.42l-82.44 65.76 -57.44 62.66c-19.75,22.06 -58.6,81.67 -72.22,109.21 -3.21,6.51 -6.25,13.66 -10.2,19.54z"/>
   <path class="fil3" d="M722.48 492.94l-41.67 -6.38 27.86 31.9 -18.65 36 37.74 -16.57c11.93,7.68 18.26,21.12 30.3,28.88l-5.28 -40.35 37.25 -19.52c-45.45,-9.56 -41.32,-3.59 -44.18,-28.74 -0.95,-8.37 -1.26,-14.9 -4.72,-21l-18.65 35.79z"/>
   <path class="fil3" d="M219.18 783.86l-39.59 -1.15c0.39,0.8 1.08,0.97 1.38,2.23 1.01,4.16 20.38,17.66 28.06,25.07l-13.19 38.49c13.85,-5.14 24.2,-17.63 36.68,-21.05 4.91,3.29 30.66,23.13 31.72,24.51l-10.52 -42.77c8.12,-2.84 27.91,-15.66 33.8,-22.81 -61.77,-2.24 -33.2,2.88 -53.7,-41.61l-14.65 39.11z"/>
   <path class="fil3" d="M518.69 506.12l35.97 18.3 -4.49 42.38c12.29,-7.43 18.61,-21.01 30.4,-29.01l37.05 17.48 -17.8 -36.5 28.32 -31.46 -42.75 6.45 -18.45 -36.48c-5.05,9.02 -4.24,34.6 -8.66,39.53 -3.43,3.84 -33.57,8.03 -39.58,9.33z"/>
   <path class="fil3" d="M307.1 644.65c-15.99,-1.86 -26.31,-10.47 -41.34,-13.86l20.92 35.74c-8.64,12.05 -17.41,20.61 -25.8,32.8l41.5 -9.76c3.46,7.96 15.62,28.34 22.57,34.76l2.88 -41.13 39.39 -10.23 -37.06 -16.98 2.04 -41.7c-6.79,4.99 -22.07,24.08 -25.08,30.36z"/>
   <path class="fil3" d="M876.43 543.93l-36.7 -19.76 15.85 37.86c-10.65,13.26 -20.34,18.96 -24.56,24.1 -3.5,4.25 -0.45,-0.54 -3.71,5.55l40.24 -3.54c6.02,13.39 11.22,26.43 17.09,37.33l9.59 -40.54 40.82 -4.36 -34.22 -21.17 7.19 -41.04c-8.37,3.56 -22.88,19.15 -31.6,25.57z"/>
   <path class="fil3" d="M978.41 656.34c-12.05,4.12 -27.23,8.82 -36.07,15.68l37.97 10.85 3.13 41.44c0.39,-0.47 1.15,-1.95 1.38,-1.5l20.98 -32.99 41.55 9.54c-8.27,-12.42 -16.82,-20.67 -25.13,-32.45l20.98 -35.73c-15.54,3.32 -25.94,11.79 -41.97,13.45 -3.01,-6.34 -18.38,-25.48 -24.52,-30.46l1.68 42.17z"/>
   <path class="fil3" d="M408.63 560.38c-9.2,2.38 -29,13.41 -35.22,19.67l41 4.99 8.5 40.6c6.57,-11.16 11.76,-24.07 17.72,-36.79 13.02,-1.21 31.64,5.31 41.98,1.52 -9.24,-8.59 -21.52,-17.68 -29.68,-28.23l15.65 -36.63 -36.34 19.15c-5.9,-5.02 -10.45,-8.51 -15.82,-13.16 -7.48,-6.47 -7.11,-9.21 -16.03,-13.29l8.23 42.18z"/>
   <path class="fil3" d="M1060.41 784.74l-36.45 4.76c1.74,1.56 2.87,2.6 4.6,3.92l25.47 15.62 -10.77 42.7c2.6,-2.17 28.84,-22.21 35.03,-24.4l33.06 22.14 -12.91 -40.87c10.54,-7.84 23.05,-14.22 30.22,-25.86l-39.59 1.24c-3.38,-9.75 -10.36,-32.11 -16.23,-39.04 -2.57,12.92 -6.23,29.9 -12.44,39.8z"/>
  </g>
 </g>
</svg>
