<?xml version="1.0" encoding="UTF-8"?>
<!DOCTYPE svg PUBLIC "-//W3C//DTD SVG 1.1//EN" "http://www.w3.org/Graphics/SVG/1.1/DTD/svg11.dtd">
<!-- Creator: CorelDRAW 2021 (64 Bit) -->
<svg xmlns="http://www.w3.org/2000/svg" xml:space="preserve" width="13.2292mm" height="13.2292mm" version="1.1" style="shape-rendering:geometricPrecision; text-rendering:geometricPrecision; image-rendering:optimizeQuality; fill-rule:evenodd; clip-rule:evenodd"
viewBox="0 0 628.91 628.91"
 xmlns:xlink="http://www.w3.org/1999/xlink"
 xmlns:xodm="http://www.corel.com/coreldraw/odm/2003">
 <defs>
  <style type="text/css">
   <![CDATA[
    .fil3 {fill:black}
    .fil2 {fill:#0052B3}
    .fil1 {fill:#D80027}
    .fil0 {fill:#EFEFEF}
   ]]>
  </style>
 </defs>
 <g id="Camada_x0020_1">
  <metadata id="CorelCorpID_0Corel-Layer"/>
  <g id="_2547888483600">
   <path class="fil0" d="M459.39 536.18l-18.9 -18.84 28.36 -28.6c4.9,4.69 16.42,14.85 19.18,20.39 -8.47,6.38 -20.01,22.36 -28.65,27.05zm-27.91 -28.71l-20.48 -19.67c9.83,-7.06 19.28,-20.62 28.89,-27.94l19.17 19.02c-6.71,9.59 -20.54,19.07 -27.58,28.6zm-242.56 -47.89c5.35,4.43 26.45,24.74 28.55,29.76l-18.09 17.97c-5.14,-2.07 -25.28,-23.13 -29.54,-28.26l19.08 -19.48zm320.2 28.53c-5.28,-2.41 -16.49,-14.58 -20.11,-18.89 3.24,-5.21 9.07,-9.76 13.71,-14.39 4.37,-4.37 10.09,-12.07 16.13,-14.28 4.9,7.02 13.03,11.18 17.24,18.85 -4.28,8.8 -20.53,19.83 -26.97,28.71zm-416.34 -28.71c4.04,-7.74 12.35,-11.88 17.2,-18.93 6.35,2.35 50.68,48.77 59.21,57.31 5.2,5.19 16.73,14.24 19.19,21.1 -7.05,4.88 -11.18,13.06 -18.88,17.24 -5.1,-2.61 -32.34,-31.15 -38.95,-37.77 -6.8,-6.8 -34.83,-33.22 -37.77,-38.95zm308.87 18.75l-19.07 -18.67c5.15,-9 20.62,-19.61 27.18,-28.67 5.24,2.64 15.64,14.35 19.95,18.77 -2.11,4.14 -23.25,24.9 -28.07,28.58zm77.43 -19.08l-19.56 -19.08c5.28,-5.84 23.89,-25.97 29.78,-28.53l17.98 18.09c-1.92,5.02 -23.21,25.49 -28.2,29.52zm-357.63 -29.68l18.11 -17.92c5.06,2.1 25.72,23.41 29.51,28.4l-19.03 19.31c-5.29,-4.05 -26.47,-24.62 -28.59,-29.78zm328.52 0.86c-4.77,-4.2 -16.83,-15.18 -19.24,-20.46 9.23,-6.44 19.56,-22.18 28.65,-27.03 3.78,1.99 16.92,14.86 18.68,18.91l-28.09 28.58zm-299.44 -30.37c7.08,-4.81 11.23,-13.25 18.96,-17.19 4.65,2.51 74.1,71.83 76.67,76.7 -1.97,3.74 -14.43,16.77 -18.94,18.69l-72.25 -71.67c-0.39,-0.39 -2.19,-2.29 -2.42,-2.63 -1.61,-2.33 -1.6,-3.27 -2.03,-3.91zm54.54 -85.43c1.34,-61.01 47.85,-109.33 109.36,-109.34 61.57,-0 107.94,48.27 109.36,109.34 -1.12,60.88 -48.03,109.32 -109.35,109.34 -61.27,0.03 -108.27,-48.51 -109.37,-109.34zm245.82 -115.52l27.5 28.09 -18.89 19.32c-9.16,-5.39 -19.54,-20.62 -28.68,-27.24 2.23,-4.31 16,-18.16 20.07,-20.16zm-68.11 -29.42c2.01,-3.74 14.95,-16.87 18.87,-18.71 4.9,3.34 25.82,24.02 28.22,28.54 -3.53,4.34 -14.81,16.52 -20.07,18.78 -6.39,-9.11 -22.18,-19.71 -27.03,-28.61zm-213.28 76.64c-4.15,-2.23 -6.57,-5.5 -10,-8.92 -3.94,-3.93 -6.82,-5.82 -8.7,-9.99l66.84 -67.32c3.71,-3.72 5.74,-7.41 11.42,-9.37 4.84,6.99 13.36,11.18 17.14,18.97 -2.65,4.81 -72.13,74.22 -76.7,76.64zm338.16 -105.26l28.6 28.66 -19.25 18.72 -27.88 -28.59 18.53 -18.78zm-96.17 -1.24l18.11 -18.04c6.27,2.22 14.92,13.14 20.08,18.3l57.83 57.42c-2.08,3.72 -16.45,18.13 -20,20.12 -7.53,-10.67 -71.72,-68.73 -76.01,-77.8zm-271.88 77.77l-18.05 -18.1c2.42,-6.42 56.62,-58.32 66.89,-68.59 3.68,-3.69 6.06,-7.38 11.1,-9.31l17.87 18.09c-2.54,5.76 -74.92,76.59 -77.81,77.91zm319.88 -124.74l28.3 28.95 -18.59 18.24c-5.26,-3.55 -10.14,-9.58 -14.94,-14.38 -4.29,-4.28 -11.38,-9.5 -13.48,-15.16l18.71 -17.65zm-290 0.05c7.35,4 12.37,12.57 18.92,17.22 -2.36,6.06 -31.58,33.4 -38.34,40.14 -6.56,6.54 -34.16,35.98 -40.03,38.28 -4.88,-7.11 -12.9,-11.2 -17.35,-18.93l76.79 -76.72zm-169.51 211.9c0,46.76 2.89,72.7 17.95,115.94 7.32,21.01 14,33.03 24.23,51.93 2.37,4.38 4.56,7.31 7.01,11.41 10.08,16.88 29.17,39.73 42.63,53.18 12.75,12.75 26.13,23.72 40.84,34.1 18.45,13.02 27.35,18.14 47.89,28.26 29.09,14.33 79.58,29.46 122.86,29.46l1.66 0c34.68,-0.01 51.27,-0.32 86.3,-9.08 10.57,-2.64 19.33,-5.43 29.2,-8.88 40.29,-14.04 65.02,-31.43 96.57,-55.74 63,-48.57 111.77,-147.03 111.77,-229.7 0,-56.71 -6.69,-97.56 -29.06,-144.14 -34.01,-70.84 -82.07,-116.83 -151.5,-151.89 -33.21,-16.77 -85.17,-29.47 -122.84,-29.47 -47.34,0 -73.18,2.62 -117.17,17.95 -8.77,3.05 -19.03,7.11 -26.96,11.11l-36.38 20.13c-51.59,30.81 -89.18,79.11 -115.94,132.19 -16.84,33.39 -29.06,85.45 -29.06,123.25z"/>
   <path class="fil1" d="M205.09 314.45l218.72 0c-1.42,-61.07 -47.79,-109.34 -109.36,-109.34 -61.51,0.01 -108.02,48.33 -109.36,109.34z"/>
   <path class="fil2" d="M423.81 314.45l-218.72 0c1.11,60.83 48.1,109.37 109.37,109.34 61.32,-0.02 108.23,-48.46 109.35,-109.34z"/>
   <path class="fil3" d="M92.79 459.39c2.94,5.73 30.97,32.16 37.77,38.95 6.62,6.62 33.85,35.16 38.95,37.77 7.7,-4.17 11.83,-12.36 18.88,-17.24 -2.46,-6.86 -13.99,-15.91 -19.19,-21.1 -8.53,-8.54 -52.86,-54.96 -59.21,-57.31 -4.85,7.05 -13.16,11.19 -17.2,18.93z"/>
   <path class="fil3" d="M139.63 217.43c2.89,-1.32 75.27,-72.15 77.81,-77.91l-17.87 -18.09c-5.04,1.93 -7.42,5.62 -11.1,9.31 -10.26,10.28 -64.46,62.17 -66.89,68.59l18.05 18.1z"/>
   <path class="fil3" d="M411.5 139.66c4.29,9.07 68.48,67.13 76.01,77.8 3.56,-1.99 17.93,-16.4 20,-20.12l-57.83 -57.42c-5.15,-5.16 -13.81,-16.08 -20.08,-18.3l-18.11 18.04z"/>
   <path class="fil3" d="M150.55 399.88c0.43,0.65 0.41,1.58 2.03,3.91 0.23,0.34 2.03,2.24 2.42,2.63l72.25 71.67c4.51,-1.92 16.97,-14.95 18.94,-18.69 -2.57,-4.88 -72.02,-74.19 -76.67,-76.7 -7.73,3.94 -11.88,12.37 -18.96,17.19z"/>
   <path class="fil3" d="M169.51 246.15c4.57,-2.42 74.05,-71.83 76.7,-76.64 -3.78,-7.79 -12.3,-11.98 -17.14,-18.97 -5.69,1.96 -7.71,5.66 -11.42,9.37l-66.84 67.32c1.88,4.17 4.76,6.06 8.7,9.99 3.42,3.42 5.84,6.68 10,8.92z"/>
   <path class="fil3" d="M92.72 169.45c4.45,7.73 12.47,11.82 17.35,18.93 5.87,-2.3 33.47,-31.75 40.03,-38.28 6.76,-6.75 35.97,-34.08 38.34,-40.14 -6.55,-4.64 -11.56,-13.22 -18.92,-17.22l-76.79 76.72z"/>
   <path class="fil3" d="M382.79 169.51c4.84,8.9 20.63,19.5 27.03,28.61 5.25,-2.27 16.53,-14.44 20.07,-18.78 -2.4,-4.52 -23.32,-25.2 -28.22,-28.54 -3.93,1.84 -16.86,14.97 -18.87,18.71z"/>
   <path class="fil3" d="M509.13 488.11c6.44,-8.88 22.69,-19.91 26.97,-28.71 -4.21,-7.67 -12.34,-11.83 -17.24,-18.85 -6.04,2.21 -11.76,9.91 -16.13,14.28 -4.64,4.64 -10.47,9.18 -13.71,14.39 3.62,4.31 14.83,16.48 20.11,18.89z"/>
   <path class="fil3" d="M121.46 429.38c2.13,5.16 23.3,25.74 28.59,29.78l19.03 -19.31c-3.79,-4.99 -24.45,-26.3 -29.51,-28.4l-18.11 17.92z"/>
   <path class="fil3" d="M479.09 459.07c5,-4.04 26.28,-24.5 28.2,-29.52l-17.98 -18.09c-5.89,2.57 -24.51,22.69 -29.78,28.53l19.56 19.08z"/>
   <path class="fil3" d="M169.85 479.06c4.25,5.12 24.4,26.19 29.54,28.26l18.09 -17.97c-2.1,-5.02 -23.2,-25.33 -28.55,-29.76l-19.08 19.48z"/>
   <path class="fil3" d="M478.08 401.66c-1.76,-4.05 -14.9,-16.91 -18.68,-18.91 -9.09,4.85 -19.42,20.58 -28.65,27.03 2.41,5.28 14.47,16.26 19.24,20.46l28.09 -28.58z"/>
   <path class="fil3" d="M450.9 198.93c-4.07,2 -17.83,15.85 -20.07,20.16 9.14,6.62 19.52,21.85 28.68,27.24l18.89 -19.32 -27.5 -28.09z"/>
   <path class="fil3" d="M401.66 478.14c4.82,-3.67 25.96,-24.44 28.07,-28.58 -4.31,-4.42 -14.71,-16.13 -19.95,-18.77 -6.56,9.06 -22.03,19.67 -27.18,28.67l19.07 18.67z"/>
   <path class="fil3" d="M459.39 536.18c8.64,-4.69 20.18,-20.67 28.65,-27.05 -2.77,-5.54 -14.28,-15.71 -19.18,-20.39l-28.36 28.6 18.9 18.84z"/>
   <path class="fil3" d="M431.48 507.47c7.05,-9.53 20.87,-19.01 27.58,-28.6l-19.17 -19.02c-9.61,7.32 -19.06,20.88 -28.89,27.94l20.48 19.67z"/>
   <path class="fil3" d="M440.8 110.33c2.1,5.66 9.19,10.88 13.48,15.16 4.8,4.8 9.68,10.83 14.94,14.38l18.59 -18.24 -28.3 -28.95 -18.71 17.65z"/>
   <polygon class="fil3" points="489.14,159.67 517.02,188.27 536.27,169.55 507.67,140.89 "/>
  </g>
 </g>
</svg>
