<?xml version="1.0" encoding="UTF-8"?>
<!DOCTYPE svg PUBLIC "-//W3C//DTD SVG 1.1//EN" "http://www.w3.org/Graphics/SVG/1.1/DTD/svg11.dtd">
<!-- Creator: CorelDRAW 2021 (64 Bit) -->
<svg xmlns="http://www.w3.org/2000/svg" xml:space="preserve" width="13.2249mm" height="13.2292mm" version="1.1" style="shape-rendering:geometricPrecision; text-rendering:geometricPrecision; image-rendering:optimizeQuality; fill-rule:evenodd; clip-rule:evenodd"
viewBox="0 0 1307.41 1307.84"
 xmlns:xlink="http://www.w3.org/1999/xlink"
 xmlns:xodm="http://www.corel.com/coreldraw/odm/2003">
 <defs>
  <style type="text/css">
   <![CDATA[
    .fil1 {fill:#D80027}
    .fil0 {fill:#FFD843}
   ]]>
  </style>
 </defs>
 <g id="Camada_x0020_1">
  <metadata id="CorelCorpID_0Corel-Layer"/>
  <g id="_2102771800208">
   <path class="fil0" d="M40.87 881.34l1226.1 0c5.47,-8.04 14.22,-39.91 16.99,-49.5 5.44,-18.78 8.46,-33.34 12.59,-53.82 20.01,-98.97 12.94,-251.64 -26.09,-344.72l-2.57 -5.15c-0.18,-0.36 -0.57,-1.13 -0.93,-1.64l-1226.1 0c-1.84,2.7 -0.3,-0.44 -2.72,5 -1.45,3.26 -1.17,2.81 -2.15,5.54 -22.07,61.82 -34.17,130.46 -36,199.52l0 37.07c1.69,62.81 11.93,125.01 30.97,181.76l8.97 24.3c0.18,0.36 0.57,1.13 0.93,1.64z"/>
   <path class="fil1" d="M1266.97 881.34l-1226.1 0c11.03,46.64 60.95,127.11 90.86,167.05 129.26,172.56 323.59,258.5 518.2,259.45l9.11 0c208.09,-1.82 415.36,-100.83 542.56,-295.26 20.1,-30.71 57.16,-96.57 65.37,-131.25z"/>
   <path class="fil1" d="M40.87 426.5l1226.1 0c-11.1,-46.91 -60.82,-126.93 -90.86,-167.05 -118.13,-157.7 -301.97,-252.61 -498.89,-259.45l-46.53 0c-65.47,2.34 -131.91,14.49 -197.43,37.33 -61.75,21.51 -121.84,55.37 -169.43,91.12 -87.58,65.77 -158.13,151 -204.23,250.43 -6.28,13.52 -15.38,33.51 -18.72,47.62z"/>
  </g>
 </g>
</svg>
