<?xml version="1.0" encoding="UTF-8"?>
<!DOCTYPE svg PUBLIC "-//W3C//DTD SVG 1.1//EN" "http://www.w3.org/Graphics/SVG/1.1/DTD/svg11.dtd">
<!-- Creator: CorelDRAW 2021 (64 Bit) -->
<svg xmlns="http://www.w3.org/2000/svg" xml:space="preserve" width="13.2274mm" height="13.2292mm" version="1.1" style="shape-rendering:geometricPrecision; text-rendering:geometricPrecision; image-rendering:optimizeQuality; fill-rule:evenodd; clip-rule:evenodd"
viewBox="0 0 1308.26 1308.44"
 xmlns:xlink="http://www.w3.org/1999/xlink"
 xmlns:xodm="http://www.corel.com/coreldraw/odm/2003">
 <defs>
  <style type="text/css">
   <![CDATA[
    .fil0 {fill:#0052B4}
    .fil2 {fill:#D80027}
    .fil1 {fill:#EFEFEF}
   ]]>
  </style>
 </defs>
 <g id="Camada_x0020_1">
  <metadata id="CorelCorpID_0Corel-Layer"/>
  <g id="_2102776934752">
   <path class="fil0" d="M40.71 881.83l1226.66 0 9.26 -24.13c20.22,-60.94 31.22,-133.67 31.63,-206.12l0 -8.74c-0.46,-75.12 -12.41,-149.41 -37.39,-209.34l-3.5 -6.88 -1226.66 -0.01c-1.87,2.81 -0.42,-0.16 -2.72,5.08 -39.74,90.17 -47.03,249.79 -27.76,345.01l20.59 79.08c1.29,3.9 3.08,9.64 4.38,13.5l3.66 9.2c0.22,0.46 0.73,1.32 0.92,1.68 0.19,0.38 0.57,1.15 0.93,1.67z"/>
   <path class="fil1" d="M40.71 426.6l1226.66 0.01c-9.55,-39.69 -56.99,-122.07 -82.14,-155.36 -5.88,-7.79 -10.25,-13.73 -16.4,-21.94 -4.15,-5.54 -14.63,-18.57 -19.02,-22.34l-991.55 -0.08c-33.56,29.45 -106.4,153.44 -117.56,199.71z"/>
   <path class="fil1" d="M158.27 1081.54l991.55 -0.05c34.2,-29.49 106.91,-155.42 117.56,-199.66l-1226.66 0c10.82,44.95 83.87,170.21 117.56,199.71z"/>
   <path class="fil2" d="M1149.81 1081.49l-991.55 0.05c25.12,32.34 57.94,61.55 90.89,87.44 35.83,28.17 69.05,49.48 110.99,70.46 85.86,42.92 178.55,65.66 271.17,69l47.62 0c136.43,-4.88 270.06,-51.8 378.54,-138.34 33.77,-26.94 66.25,-54.53 92.33,-88.61z"/>
   <path class="fil2" d="M158.27 226.89l991.55 0.08 -53.04 -56.37c-45.35,-39.94 -93.78,-74.07 -148.84,-101.61 -84.93,-42.46 -176.74,-65.3 -268.66,-69l-52.81 0c-135.09,5.33 -267.59,51.95 -375.87,138.34 -33.85,27 -65.93,54.64 -92.33,88.55z"/>
  </g>
 </g>
</svg>
