<?xml version="1.0" encoding="UTF-8"?>
<!DOCTYPE svg PUBLIC "-//W3C//DTD SVG 1.1//EN" "http://www.w3.org/Graphics/SVG/1.1/DTD/svg11.dtd">
<!-- Creator: CorelDRAW 2021 (64 Bit) -->
<svg xmlns="http://www.w3.org/2000/svg" xml:space="preserve" width="13.2292mm" height="13.2292mm" version="1.1" style="shape-rendering:geometricPrecision; text-rendering:geometricPrecision; image-rendering:optimizeQuality; fill-rule:evenodd; clip-rule:evenodd"
viewBox="0 0 1308.34 1308.34"
 xmlns:xlink="http://www.w3.org/1999/xlink"
 xmlns:xodm="http://www.corel.com/coreldraw/odm/2003">
 <defs>
  <style type="text/css">
   <![CDATA[
    .fil1 {fill:#6CA544}
    .fil5 {fill:#ADCA96}
    .fil2 {fill:#D80027}
    .fil3 {fill:#DF4561}
    .fil4 {fill:#E26A80}
    .fil0 {fill:#EFEFEF}
   ]]>
  </style>
 </defs>
 <g id="Camada_x0020_1">
  <metadata id="CorelCorpID_0Corel-Layer"/>
  <g id="_1361406898576">
   <path class="fil0" d="M63.89 369.06l-25.88 62.47c-23.2,64.53 -35.87,132.94 -38.01,201.7l0 41.92c2.14,68.73 14.81,137.12 38.01,201.65 3.95,10.98 7.9,19.87 12.36,31.07 4.82,12.1 9.16,20.37 13.52,31.38l205.68 -0.57 1.01 56.73 83.34 -0.01 1.41 -54.41c2.37,-4.08 -1.62,-3.95 17.71,-3.72 18.57,0.22 54.78,-1.65 68.05,1.52l0.88 55.67 84.45 -0.61 -0.5 -54.11c8.42,-4.63 76.13,-4.07 85.71,-0.29l0.5 55.01 84.1 0 0.11 -55.01c11.45,-4.39 47.3,-1.99 65.15,-2.14 8.53,-0.08 14.09,-1.33 20.92,2.42l-0.5 54.1 84.56 0.67 0.18 -55.71c13.52,-3.13 48.44,-1.29 66.06,-1.49 22.56,-0.28 16.61,-0.33 20.29,3.68l0.09 54.42 83.58 -0.01 1.76 -56.3 206.01 0.18c8.26,-20.91 18.01,-40.56 25.88,-62.47 23.27,-64.72 35.93,-133.37 38.01,-202.38l0 -40.53c-2.08,-69.01 -14.74,-137.67 -38.01,-202.38 -7.88,-21.94 -17.65,-41.57 -25.88,-62.49l-206.15 0.18 -0.19 -56.29 -85.24 0 -0.84 56.75 -84.42 -0.83 -0.1 -55.95 -85.41 0.37 0.44 55.48 -10.63 2.68c-15.32,0.82 -66.85,1.12 -75.64,-2.49l-0.26 -54.92 -83.78 0 -0.55 54.92c-9.25,3.93 -72.14,3.69 -82.26,1.58 -0.5,-0.1 -1.52,-0.04 -1.87,-0.81 -0.35,-0.75 -1.18,-0.63 -1.75,-0.96l0.39 -55.77 -85.32 -0.05 -0.48 56.62 -84.67 -0.11 0.75 -56.51 -86.23 0 -0.68 56.72 -205.67 -0.58z"/>
   <path class="fil1" d="M63.89 369.06l205.67 0.58 0.68 -56.72 86.23 0 -0.75 56.51 84.67 0.11 0.48 -56.62 85.32 0.05 -0.39 55.77 83.8 0c0,-17.03 -2.44,-40.51 1.45,-57.2l85.98 0.79c4.15,15.9 1.71,39.38 1.7,56.41l83.81 0 -0.44 -55.48 85.41 -0.37 0.1 55.95 84.42 0.83 0.84 -56.75 85.24 0 0.19 56.29 206.15 -0.18c-13.74,-16.98 -37.34,-88.26 -123.3,-174.19 -31.8,-31.8 -61.49,-57.41 -99.02,-82.41 -102.96,-68.61 -220.29,-106.91 -339.5,-112.44l-60.39 0c-88.54,4.13 -176.99,26.51 -260.25,68.14 -14.54,7.28 -24.57,12.93 -38.35,20.41l-71.47 48.63c-6.27,5.09 -11.34,9.1 -17.11,13.56 -6.61,5.12 -9.43,8.87 -16.39,14.28 -49.21,38.21 -101.59,111.69 -133.87,165.11 -6.59,10.91 -14.51,30.95 -20.93,38.93z"/>
   <path class="fil2" d="M1244.45 939.28l-206.01 -0.18 -1.76 56.3 -83.58 0.01 -0.09 -54.42 -83.81 -1.25 -1.46 55.76c-13,3.48 -49.35,1.45 -67.95,1.66 -16.72,0.19 -14.88,1.09 -17.87,-3.32l0.5 -54.1 -83.35 0c0,16.94 2.51,40.72 -1.88,57.28l-86.04 -0.86c-4.39,-15.71 -1.88,-39.48 -1.7,-56.42l-83.53 0 0.5 54.11c-2.28,2.16 -0.04,2.74 -10.04,3.48l-76.77 -1.82 -0.3 -55.87 -83.98 1.35 -1.41 54.41 -83.34 0.01 -1.01 -56.73 -205.68 0.57c6.52,8.18 13.41,26.58 19.94,37.37 4.24,6.99 6.83,12.7 11.2,19.47 21.79,33.84 49.63,72.72 76.79,102.08 118.35,127.94 282.6,202.3 453.23,210.15l60.14 0c88.39,-4.06 177.24,-26.19 261.15,-68.14 14.54,-7.28 24.57,-12.93 38.35,-20.41 31.35,-17.04 60.61,-40.53 88.58,-62.19 34.66,-26.86 50.15,-47.64 76,-74.77 27.05,-28.39 53.79,-70.92 74.28,-104.59 6.7,-11.02 14.34,-30.79 20.9,-38.96z"/>
   <path class="fil2" d="M700.68 722.82c-4.35,3.41 5.55,4.35 -5.74,2.56l0.11 -240.64 -81.61 0 -0.49 240.64c-10,1.65 -2.16,1.21 -5.29,-2.64 -30.19,-27.62 -49.25,-52.22 -63.47,-96.61 -17.94,-55.99 -14.55,-83.08 -17.63,-142.64l-84.48 0c-16,126.99 57.1,341.25 212.1,341.24 154.66,-0.02 227.93,-213.03 211.92,-341.24l-84.47 0c-3.68,72.02 -0.16,129.58 -42.94,196.36 -14.76,23.04 -20.35,27.05 -38,42.97z"/>
   <path class="fil3" d="M607.66 722.74c3.14,3.85 -4.71,4.29 5.29,2.64l0.49 -240.64 81.61 0 -0.11 240.64c11.28,1.79 1.38,0.85 5.74,-2.56 -5.83,-3.23 -3.21,-6.53 -3.14,-25.2 0.19,-52.04 2.23,-178.17 -0.49,-214.08l-85.99 -0.79 -0.46 235.14c-1.71,6.82 0.8,1.4 -2.93,4.86z"/>
   <path class="fil4" d="M782.42 939.75c-6.82,-3.75 -12.39,-2.5 -20.92,-2.42 -17.85,0.15 -53.7,-2.25 -65.15,2.14l-0.11 55.01 -84.1 0 -0.5 -55.01c-9.58,-3.79 -77.3,-4.34 -85.71,0.29l83.53 0c-0.18,16.94 -2.69,40.72 1.7,56.42l86.04 0.86c4.39,-16.57 1.88,-40.34 1.88,-57.28l83.35 0z"/>
   <path class="fil5" d="M525.8 368.74c0.57,0.33 1.4,0.21 1.75,0.96 0.35,0.77 1.36,0.71 1.87,0.81 10.13,2.11 73.02,2.34 82.26,-1.58l0.55 -54.92 83.78 0 0.26 54.92c8.79,3.61 60.32,3.31 75.64,2.49l10.63 -2.68 -83.81 0c0.01,-17.03 2.45,-40.51 -1.7,-56.41l-85.98 -0.79c-3.9,16.69 -1.45,40.17 -1.45,57.2l-83.8 0z"/>
   <path class="fil4" d="M781.92 993.85c2.99,4.41 1.15,3.51 17.87,3.32 18.6,-0.21 54.96,1.82 67.95,-1.66l1.46 -55.76 83.81 1.25c-3.68,-4.01 2.26,-3.96 -20.29,-3.68 -17.62,0.21 -52.54,-1.63 -66.06,1.49l-0.18 55.71 -84.56 -0.67z"/>
   <path class="fil4" d="M526.42 993.86l-84.45 0.61 -0.88 -55.67c-13.27,-3.17 -49.48,-1.31 -68.05,-1.52 -19.33,-0.23 -15.34,-0.37 -17.71,3.72l83.98 -1.35 0.3 55.87 76.77 1.82c10,-0.74 7.75,-1.33 10.04,-3.48z"/>
  </g>
 </g>
</svg>
