<?xml version="1.0" encoding="UTF-8"?>
<!DOCTYPE svg PUBLIC "-//W3C//DTD SVG 1.1//EN" "http://www.w3.org/Graphics/SVG/1.1/DTD/svg11.dtd">
<!-- Creator: CorelDRAW 2021 (64 Bit) -->
<svg xmlns="http://www.w3.org/2000/svg" xml:space="preserve" width="13.2292mm" height="13.2292mm" version="1.1" style="shape-rendering:geometricPrecision; text-rendering:geometricPrecision; image-rendering:optimizeQuality; fill-rule:evenodd; clip-rule:evenodd"
viewBox="0 0 13558.39 13558.39"
 xmlns:xlink="http://www.w3.org/1999/xlink"
 xmlns:xodm="http://www.corel.com/coreldraw/odm/2003">
 <defs>
  <style type="text/css">
   <![CDATA[
    .fil0 {fill:#761C43}
    .fil1 {fill:#E1DFDF}
   ]]>
  </style>
 </defs>
 <g id="Camada_x0020_1">
  <metadata id="CorelCorpID_0Corel-Layer"/>
  <g id="_2548278357760">
   <path class="fil0" d="M5247.81 185.09l1137.21 446.95c62.93,23.88 117.96,47.14 190.12,73.69l188.07 90.19 -1974.03 723.26 1981.61 781.78 -1981 726.13 1978.74 775.63c-254.79,120.32 -1905.67,654.59 -1978.44,733.51l1978.95 769.48c-165.62,105.15 -764.26,283.59 -991.37,366.6 -75.43,27.67 -931.41,310.33 -986.96,372.34l1978.64 770.1c-181.4,111.3 -752.88,277.85 -992.8,365.99 -165.42,60.88 -339.54,122.06 -506.91,181.2 -90.29,31.98 -413.13,123.09 -478.72,191.86l1977.92 777.68c-307.47,136.21 -674.07,239.62 -994.03,357.27 -165.72,60.78 -339.24,120.22 -506.4,181.61l-476.88 191.65 1979.26 781.37 -1991.14 709.94c158.96,103.62 781.37,295.17 997.72,377.87 140.41,53.6 867.67,296.7 982.45,380.85l-1984.58 759.64 1993.81 788.44c-212.46,72.46 -1380.93,467.86 -1465.38,539.19 340.67,92.03 718.34,142.97 1109.03,159.06l563.07 0c586.75,-23.37 1176.05,-116.22 1689.01,-259.19 614.11,-171.16 1423.77,-539.19 1942.97,-917.48 587.26,-427.99 1032.16,-803 1483.11,-1376.52 75.74,-96.44 133.95,-176.18 201.49,-275.18 807.71,-1185.59 1265.63,-2302.2 1266.04,-3977.47 0,-1632.64 -490.41,-2798.96 -1287.25,-3956.36 -63.75,-92.85 -133.13,-189.19 -203.85,-272.52 -330.12,-388.12 -672.02,-758.72 -1077.26,-1067.93 -45.71,-34.95 -87.32,-64.67 -136.62,-101.67l-567.99 -385.46c-926.49,-612.57 -2182.49,-938.38 -3384.17,-968.62l-366.29 0c-166.85,4.3 -331.55,14.25 -493.48,30.23l-743.04 129.85c-45.71,17.22 -28.8,9.33 -50.63,25.01z"/>
   <path class="fil1" d="M5303.67 13399.33c84.45,-71.33 1252.92,-466.73 1465.38,-539.19l-1993.81 -788.44 1984.58 -759.64c-114.79,-84.14 -842.04,-327.25 -982.45,-380.85 -216.35,-82.71 -838.76,-274.26 -997.72,-377.87l1991.14 -709.94 -1979.26 -781.37 476.88 -191.65c167.16,-61.39 340.67,-120.83 506.4,-181.61 319.97,-117.66 686.57,-221.07 994.03,-357.27l-1977.92 -777.68c65.59,-68.77 388.43,-159.88 478.72,-191.86 167.36,-59.14 341.49,-120.32 506.91,-181.2 239.93,-88.14 811.4,-254.68 992.8,-365.99l-1978.64 -770.1c55.55,-62.01 911.53,-344.67 986.96,-372.34 227.11,-83.02 825.75,-261.45 991.37,-366.6l-1978.95 -769.48c72.77,-78.92 1723.65,-613.19 1978.44,-733.51l-1978.74 -775.63 1981 -726.13 -1981.61 -781.78 1974.03 -723.26 -188.07 -90.19c-72.15,-26.54 -127.19,-49.81 -190.12,-73.69l-1137.21 -446.95c-502.3,10.45 -1660.21,589.31 -2105.42,865.41l-436.4 304.8c-89.37,60.26 -118.27,97.26 -205.28,165.42 -72.77,56.68 -141.54,106.18 -204.16,166.75 -70.72,68.15 -109.46,119.4 -189.5,181.4 -209.08,161.32 -370.91,385.46 -538.68,573.32 -194.22,217.79 -470.73,620.77 -616.98,866.23 -231.42,389.25 -315.25,568.91 -486.2,996.6 -263.19,657.67 -434.14,1463.02 -465.19,2271.65l0 524.95c14.25,359.53 58.52,713.63 137.33,1049.07 48.07,204.36 86.19,401.45 150.56,591.26l192.78 548.52c191.86,476.67 476.57,1025.5 786.39,1438.12l671.71 811.09 591.87 520.33c448.69,354.61 631.23,466.73 1115.18,738.63 93.78,52.78 152.61,72.87 254.48,116.22 579.67,247.51 441.11,211.95 1081.05,401.75 107.82,32.08 210.51,59.75 322.33,82.71z"/>
  </g>
 </g>
</svg>
