<?xml version="1.0" encoding="UTF-8"?>
<!DOCTYPE svg PUBLIC "-//W3C//DTD SVG 1.1//EN" "http://www.w3.org/Graphics/SVG/1.1/DTD/svg11.dtd">
<!-- Creator: CorelDRAW 2021 (64 Bit) -->
<svg xmlns="http://www.w3.org/2000/svg" xml:space="preserve" width="13.2292mm" height="13.2292mm" version="1.1" style="shape-rendering:geometricPrecision; text-rendering:geometricPrecision; image-rendering:optimizeQuality; fill-rule:evenodd; clip-rule:evenodd"
viewBox="0 0 1308.26 1308.26"
 xmlns:xlink="http://www.w3.org/1999/xlink"
 xmlns:xodm="http://www.corel.com/coreldraw/odm/2003">
 <defs>
  <style type="text/css">
   <![CDATA[
    .fil0 {fill:#D80027}
    .fil1 {fill:#FFD944}
   ]]>
  </style>
 </defs>
 <g id="Camada_x0020_1">
  <metadata id="CorelCorpID_0Corel-Layer"/>
  <g id="_2102768262944">
   <path class="fil0" d="M-0 633.69c0,97.28 6,151.24 37.34,241.18 15.23,43.7 29.12,68.7 50.41,108.02 4.93,9.12 9.48,15.2 14.58,23.74 20.98,35.12 60.69,82.64 88.68,110.63 26.51,26.51 54.35,49.35 84.95,70.93 38.39,27.09 56.89,37.74 99.62,58.79 60.52,29.81 165.55,61.28 255.57,61.28l3.46 0c72.13,-0.02 106.66,-0.66 179.52,-18.88 21.99,-5.5 40.21,-11.3 60.75,-18.46 83.82,-29.2 135.25,-65.39 200.88,-115.96 131.06,-101.03 232.52,-305.86 232.52,-477.84 0,-117.98 -13.92,-202.96 -60.44,-299.84 -70.76,-147.37 -170.72,-243.04 -315.16,-315.97 -69.09,-34.88 -177.17,-61.31 -255.54,-61.31 -98.48,0 -152.22,5.45 -243.73,37.34 -18.24,6.35 -39.58,14.78 -56.09,23.11l-75.67 41.87c-107.32,64.09 -185.51,164.57 -241.18,274.98 -35.03,69.46 -60.45,177.76 -60.45,256.39z"/>
   <path class="fil1" d="M301.43 571.89l-180.11 0.05 71.06 53.34c13.01,9.17 24.18,17.55 37.1,26.81 9.21,6.61 29.96,20.33 36.29,27.59l-54.89 170.91c11.24,-4.82 61.05,-41.95 74.26,-51.85l72.58 -51.93c13.49,5.49 131,97.32 146.46,103.54l-54.51 -170.43 145.06 -107.28 -180.12 -0.85c-3.28,-9.97 -49.89,-159.65 -56.88,-169.16l-56.3 169.26z"/>
   <path class="fil1" d="M879 531.37l-59.02 32.01 65.47 10.14c6.76,20.31 4.19,48.26 13.85,65.33l28.46 -58.62 65.13 8.71c-15.93,-22.46 -29.94,-29.88 -44.93,-47.23l27.97 -59.98 -58.36 29.95c-21.35,-11.52 -32.59,-37.01 -49.27,-44.98l10.69 64.67z"/>
   <path class="fil1" d="M894.39 751.13l-66.07 1.08c7.48,10.65 39.32,26.82 52.52,39.91l-18.74 63.07c18.22,-9.33 37.49,-31 55.21,-38.01 9.83,6.28 15.7,10.98 25.98,17.97 9.07,6.18 17.55,13.98 27.72,18.7l-20.27 -61.65c12.3,-15.13 40,-26.92 51.05,-41.81l-64.02 0.21 -22.16 -61.11 -21.21 61.64z"/>
   <path class="fil1" d="M733.34 344.85l-61.71 -23.71 33.69 56.71c-11.12,17.62 -31.88,34.12 -41.64,51.67l64.54 -15.23 34.79 56.18 6.17 -66.79 64.6 -15.29c-7.98,-6.92 -50.09,-21.58 -61.08,-26.58l4.33 -66.05c-11.92,8.63 -30.28,37.86 -43.69,49.09z"/>
   <path class="fil1" d="M728.49 891.12l-63.98 -16.62c8.57,16.05 32.32,38.39 40.07,53.05 -7.15,16.48 -25.17,38.44 -34.58,55.83l63.75 -23.68 41.36 50.29 -3.4 -65.68 61.86 -23.39 -64.22 -18.52 -3.45 -66.34 -37.39 55.07z"/>
  </g>
 </g>
</svg>
