<?xml version="1.0" encoding="UTF-8"?>
<!DOCTYPE svg PUBLIC "-//W3C//DTD SVG 1.1//EN" "http://www.w3.org/Graphics/SVG/1.1/DTD/svg11.dtd">
<!-- Creator: CorelDRAW 2021 (64 Bit) -->
<svg xmlns="http://www.w3.org/2000/svg" xml:space="preserve" width="13.2254mm" height="13.2292mm" version="1.1" style="shape-rendering:geometricPrecision; text-rendering:geometricPrecision; image-rendering:optimizeQuality; fill-rule:evenodd; clip-rule:evenodd"
viewBox="0 0 1307.51 1307.89"
 xmlns:xlink="http://www.w3.org/1999/xlink"
 xmlns:xodm="http://www.corel.com/coreldraw/odm/2003">
 <defs>
  <style type="text/css">
   <![CDATA[
    .fil1 {fill:black}
    .fil0 {fill:#D80027}
    .fil2 {fill:#FFD943}
   ]]>
  </style>
 </defs>
 <g id="Camada_x0020_1">
  <metadata id="CorelCorpID_0Corel-Layer"/>
  <g id="_2102792608416">
   <path class="fil0" d="M40.87 881.48l1226.15 0c1.87,-2.82 0.42,0.14 2.72,-5.09 9.55,-21.68 22.37,-76.07 26.87,-98.34 20.1,-99.43 12.95,-250.96 -26.09,-344.74l-3.5 -6.9 -1226.15 0 -4.86 10.66c-1.76,4.94 -2.6,8.11 -4.39,13.48 -18.63,55.69 -29.43,119.36 -31.62,182.67l0 47.57c1.16,32.79 4.74,64.9 10.85,95.15 4.75,23.43 16.64,74.91 26.53,98.65l3.5 6.9z"/>
   <path class="fil1" d="M40.87 426.41l1226.15 0c-4.88,-20.22 -28.17,-69.33 -39.4,-88.14 -51.79,-86.77 -95.98,-144.05 -182.12,-208.72 -110.51,-82.97 -239.64,-125.2 -368.81,-129.55l-44.47 0c-191.14,6.4 -377.74,95.38 -499.39,258 -9.47,12.65 -17.16,23.23 -26.57,37.29 -20.05,29.95 -57.15,97.01 -65.39,131.11z"/>
   <path class="fil2" d="M1267.02 881.48l-1226.15 0c3.44,14.25 12.1,32.7 17.91,45.76 103.55,232.49 336.66,373.38 579.35,380.65l40.36 0c126.69,-3.97 254.19,-44.81 365.56,-128.45 50.38,-37.84 93.68,-79.65 131,-129.55 9.38,-12.55 17.4,-23.2 26.59,-37.26 9.43,-14.4 16.18,-26.89 24.99,-41.42 11.57,-19.1 35.3,-68.71 40.38,-89.72z"/>
  </g>
 </g>
</svg>
