<?xml version="1.0" encoding="UTF-8"?>
<!DOCTYPE svg PUBLIC "-//W3C//DTD SVG 1.1//EN" "http://www.w3.org/Graphics/SVG/1.1/DTD/svg11.dtd">
<!-- Creator: CorelDRAW 2021 (64 Bit) -->
<svg xmlns="http://www.w3.org/2000/svg" xml:space="preserve" width="13.2292mm" height="13.2293mm" version="1.1" style="shape-rendering:geometricPrecision; text-rendering:geometricPrecision; image-rendering:optimizeQuality; fill-rule:evenodd; clip-rule:evenodd"
viewBox="0 0 1308.34 1308.35"
 xmlns:xlink="http://www.w3.org/1999/xlink"
 xmlns:xodm="http://www.corel.com/coreldraw/odm/2003">
 <defs>
  <style type="text/css">
   <![CDATA[
    .fil0 {fill:#0052B4}
    .fil2 {fill:#93B2D8}
    .fil1 {fill:#F0F0F0}
   ]]>
  </style>
 </defs>
 <g id="Camada_x0020_1">
  <metadata id="CorelCorpID_0Corel-Layer"/>
  <g id="_1361400908944">
   <path class="fil0" d="M342.1 79.22l-0.8 490.53 -336.18 0.37c-2.55,10.36 -4.25,28.87 -5.11,50.1l0 67.99c0.86,21.19 2.56,39.65 5.11,50l336.18 0.38 0.8 490.53c21.44,17.08 125.1,58.02 161.3,61.87l7.51 1.08 0.03 -552.66 792.29 -1.18c2.55,-10.38 4.25,-28.82 5.11,-49.97l0 -68.11c-0.86,-21.18 -2.57,-39.65 -5.11,-50.05l-792.29 -1.17 -0.03 -552.62 -7.51 1.11c-36.18,3.48 -139.8,44.67 -161.3,61.8z"/>
   <path class="fil1" d="M513.18 1293.01c29.58,12.9 120.15,15.31 156.32,15.33 54.1,0.03 107.86,-8.99 150.79,-20.42 103.35,-27.51 178.26,-70.68 252.61,-130.7 24.15,-19.49 47.21,-39.92 66.41,-63.91 23.1,-28.85 28.81,-32.15 56.59,-71.18 40.9,-57.44 75.84,-137.08 93.57,-207.96 4.37,-17.46 13.38,-55.69 13.77,-73.1l-789.86 0.05 -0.19 551.89z"/>
   <path class="fil1" d="M513.15 15.33l0.22 551.89 789.86 0.05c-1.58,-70.78 -53.34,-193.03 -89.29,-253.11 -11.13,-18.6 -38.26,-57.94 -53.16,-74.62 -29.22,-32.72 -47.75,-57.45 -84.97,-86.23 -84.17,-65.04 -145.16,-102.58 -253.52,-132.35 -41.79,-11.48 -97.54,-20.96 -149.62,-20.97l-1.06 0c-37.17,0.06 -128.79,2.47 -158.46,15.33z"/>
   <path class="fil1" d="M5.11 567.37l334.47 -0.15 -0.23 -488 -62.31 39.4c-64.41,46.6 -82.3,67.08 -131.97,123.56 -55.63,63.27 -98.12,155.39 -122.4,237.92 -3.76,12.78 -6.65,27.22 -9.94,41.16 -2.43,10.35 -7.39,34.95 -7.63,46.11z"/>
   <path class="fil1" d="M339.36 1229.13l0.23 -488 -334.47 -0.1c0.23,10.38 5.07,35.04 7.13,44.01 27.59,120.57 66.39,199.1 143.25,293.71 37.64,46.32 100.52,99.01 150.64,130.45 10.91,6.83 23.89,12.79 33.22,19.94z"/>
   <polygon class="fil2" points="503.4,1291 513.18,1293.01 513.37,741.12 1303.23,741.07 1303.23,738.23 510.94,739.41 510.91,1292.07 "/>
   <polygon class="fil2" points="1303.23,570.1 1303.23,567.27 513.37,567.22 513.15,15.33 503.4,17.42 510.91,16.31 510.94,568.93 "/>
   <polygon class="fil2" points="339.36,1229.13 342.1,1229.13 341.3,738.59 5.11,738.21 5.11,741.02 339.59,741.12 "/>
   <polygon class="fil2" points="5.11,567.37 5.11,570.12 341.3,569.75 342.1,79.22 339.36,79.22 339.59,567.22 "/>
  </g>
 </g>
</svg>
