<?xml version="1.0" encoding="UTF-8"?>
<!DOCTYPE svg PUBLIC "-//W3C//DTD SVG 1.1//EN" "http://www.w3.org/Graphics/SVG/1.1/DTD/svg11.dtd">
<!-- Creator: CorelDRAW 2021 (64 Bit) -->
<svg xmlns="http://www.w3.org/2000/svg" xml:space="preserve" width="13.2292mm" height="13.2292mm" version="1.1" style="shape-rendering:geometricPrecision; text-rendering:geometricPrecision; image-rendering:optimizeQuality; fill-rule:evenodd; clip-rule:evenodd"
viewBox="0 0 1308.26 1308.26"
 xmlns:xlink="http://www.w3.org/1999/xlink"
 xmlns:xodm="http://www.corel.com/coreldraw/odm/2003">
 <defs>
  <style type="text/css">
   <![CDATA[
    .fil2 {fill:#0052B4}
    .fil0 {fill:#D80027}
    .fil1 {fill:#EFEFEF}
   ]]>
  </style>
 </defs>
 <g id="Camada_x0020_1">
  <metadata id="CorelCorpID_0Corel-Layer"/>
  <g id="_2102891188976">
   <path class="fil0" d="M40.88 881.71l1226.5 0c1.86,-2.8 0.4,0.19 2.72,-5.07 1.44,-3.26 1.17,-2.83 2.15,-5.57 20.64,-57.9 32.91,-123.6 36.02,-188.86l0 -64.97c-1.43,-29.46 -4.88,-58.25 -10.4,-85.56 -3.74,-18.46 -7.92,-36.13 -12.57,-53.88 -2.39,-9.19 -5.01,-16.18 -8.02,-25.2l-9.89 -26.05 -1226.5 -0.01c-1.87,2.81 -0.42,-0.16 -2.72,5.08l-14.66 44.15c-4.95,18.24 -9.09,36.15 -12.66,53.78 -5.94,29.29 -9.47,59.45 -10.85,89.9l0 59.29c2.26,51.77 10.29,103.28 22.97,151.73l16.98 49.57c0.19,0.37 0.57,1.14 0.93,1.67z"/>
   <path class="fil1" d="M40.88 426.54l1226.5 0.01c-6.33,-26.31 -36.3,-83.79 -50.6,-107.65 -10.54,-17.63 -50.51,-77.87 -66.94,-91.96l-991.41 -0.08c-4.09,3.59 -14.55,16.51 -17.93,20.95 -5.93,7.78 -11.32,15.25 -17.48,23.41 -23.77,31.47 -41.48,64.1 -59.14,99.29 -7.45,14.86 -18.81,38.69 -22.99,56.04z"/>
   <path class="fil1" d="M158.43 1081.4l991.41 -0.05c34.18,-29.46 106.9,-155.42 117.54,-199.63l-1226.5 0c10.81,44.94 83.87,170.19 117.54,199.68z"/>
   <path class="fil2" d="M158.43 226.86l991.41 0.08c-13.71,-18.01 -26.69,-29.96 -42.79,-46.16 -113.53,-114.18 -276.44,-177.08 -440.04,-180.77l-30.78 0c-47.96,1.1 -95.73,7.33 -142.06,18.91 -122.44,30.61 -260.07,110.78 -335.75,207.95z"/>
   <path class="fil2" d="M1149.84 1081.35l-991.41 0.05c48.12,61.95 131.28,122.59 201.86,157.88 85.85,42.92 178.53,65.65 271.13,68.99l47.62 0c136.41,-4.88 270.03,-51.79 378.49,-138.32 33.76,-26.94 66.25,-54.52 92.32,-88.6z"/>
  </g>
 </g>
</svg>
