<?xml version="1.0" encoding="UTF-8"?>
<!DOCTYPE svg PUBLIC "-//W3C//DTD SVG 1.1//EN" "http://www.w3.org/Graphics/SVG/1.1/DTD/svg11.dtd">
<!-- Creator: CorelDRAW 2021 (64 Bit) -->
<svg xmlns="http://www.w3.org/2000/svg" xml:space="preserve" width="13.2292mm" height="13.2292mm" version="1.1" style="shape-rendering:geometricPrecision; text-rendering:geometricPrecision; image-rendering:optimizeQuality; fill-rule:evenodd; clip-rule:evenodd"
viewBox="0 0 1308.26 1308.26"
 xmlns:xlink="http://www.w3.org/1999/xlink"
 xmlns:xodm="http://www.corel.com/coreldraw/odm/2003">
 <defs>
  <style type="text/css">
   <![CDATA[
    .fil2 {fill:#6DA544}
    .fil1 {fill:#D80027}
    .fil0 {fill:#EEEEEE}
    .fil3 {fill:#FE9812}
   ]]>
  </style>
 </defs>
 <g id="Camada_x0020_1">
  <metadata id="CorelCorpID_0Corel-Layer"/>
  <g id="_2102883237216">
   <path class="fil0" d="M369.04 63.88l0.02 1180.5c53.04,20.98 67.35,31.08 129.17,46.03 44.54,10.77 91.56,16.71 138.84,17.85l33.81 0c47.4,-1.15 94.53,-7.1 139.15,-17.85 63.72,-15.35 76.8,-25.17 129.13,-46.03l0.01 -1180.5c-11,-4.38 -19.25,-8.7 -31.35,-13.52 -73.89,-29.4 -149.15,-46.58 -224.9,-50.37l-64.04 0c-62.46,3.16 -125.09,15.61 -187.38,38 -10.98,3.95 -19.87,7.9 -31.07,12.36 -12.09,4.82 -20.38,9.17 -31.4,13.52z"/>
   <path class="fil1" d="M939.17 1244.38c8.41,-6.61 26.49,-13.33 37.41,-19.95 6.99,-4.23 12.71,-6.82 19.47,-11.18 6.66,-4.28 12.17,-8.18 18.36,-12.3 11.9,-7.93 22.89,-14.83 34.69,-24.08l49.02 -40.41c5.71,-5.27 9.72,-9.78 15.3,-15.36l56.52 -63.58 48.89 -71.21c58.02,-107.99 89.43,-195.21 89.43,-332.18 0,-171.55 -53.59,-293.67 -150.73,-419.08 -26.84,-34.64 -47.63,-50.15 -74.77,-76 -19.45,-18.53 -46.08,-36.9 -68.34,-51.74l-36.26 -22.51c-11.14,-6.72 -30.63,-14.34 -38.97,-20.93l-0.01 1180.5z"/>
   <path class="fil2" d="M369.06 1244.38l-0.02 -1180.5c-0.19,0.14 -72.73,38.4 -109.88,67.51l-94.15 87.27c-25.4,32.69 -52.86,60.98 -75.58,103.28 -24.56,45.73 -38.92,72.03 -56.54,124.88 -19.52,58.57 -30.38,119.11 -32.89,179.66l0 54.47c3.8,91.98 26.82,182.68 68.14,265.32l44.29 75.8c23.87,35.84 31.96,40.97 52.58,67.51l43.83 45.61c6.56,6.31 10.01,7.66 16.66,14 10.06,9.58 21.37,17.86 32.22,26.54 37.16,29.73 108.59,66.46 111.33,68.63z"/>
   <path class="fil3" d="M483.43 605.93c13.36,37.25 17.96,37.99 56.97,49.51 2.26,27 14.85,41.84 33.78,50.61 18.74,8.68 57.67,4.99 79.94,4.99 57.83,0 108.29,6.01 113.72,-55.62 39.21,-11.47 43.51,-12.09 56.97,-49.57l1.52 -8.89c28.18,-3.66 58.34,-25.92 54.03,-56.6l-164.92 0c-11.53,-3.44 -3.65,-56.75 -61.32,-56.77 -33.29,-0.01 -47.57,19.51 -55.37,46.05 -3.9,13.23 1.65,5.71 -5.95,10.72l-164.81 0c-4.49,30.64 25.71,52.96 53.39,56.7l2.05 8.86z"/>
   <path class="fil2" d="M824.82 605.85c-13.46,37.48 -17.76,38.1 -56.97,49.57 -5.43,61.63 -55.88,55.62 -113.72,55.62 -22.27,0 -61.2,3.69 -79.94,-4.99 -18.93,-8.77 -31.52,-23.62 -33.78,-50.61 -39.01,-11.51 -43.61,-12.25 -56.97,-49.51 1.03,68.47 0.42,111.12 38.17,155.17 74.56,87.02 194.1,82.78 264.17,1.71 36.69,-42.45 38.08,-88.35 39.04,-156.96z"/>
  </g>
 </g>
</svg>
