<?xml version="1.0" encoding="UTF-8"?>
<!DOCTYPE svg PUBLIC "-//W3C//DTD SVG 1.1//EN" "http://www.w3.org/Graphics/SVG/1.1/DTD/svg11.dtd">
<!-- Creator: CorelDRAW 2021 (64 Bit) -->
<svg xmlns="http://www.w3.org/2000/svg" xml:space="preserve" width="13.2292mm" height="13.2292mm" version="1.1" style="shape-rendering:geometricPrecision; text-rendering:geometricPrecision; image-rendering:optimizeQuality; fill-rule:evenodd; clip-rule:evenodd"
viewBox="0 0 1308.26 1308.26"
 xmlns:xlink="http://www.w3.org/1999/xlink"
 xmlns:xodm="http://www.corel.com/coreldraw/odm/2003">
 <defs>
  <style type="text/css">
   <![CDATA[
    .fil0 {fill:#0052B4}
    .fil1 {fill:#D80027}
    .fil2 {fill:#EFEFEF}
   ]]>
  </style>
 </defs>
 <g id="Camada_x0020_1">
  <metadata id="CorelCorpID_0Corel-Layer"/>
  <g id="_2102784149216">
   <path class="fil0" d="M40.88 881.81l1226.5 0 9.26 -24.23c3.11,-9.37 5.91,-16.97 8.12,-25.09 13.12,-48.3 21.31,-101.69 23.51,-155.11l0 -57.28c-1.29,-30.39 -4.69,-60.2 -10.4,-88.43 -2.99,-14.74 -20.45,-90.05 -30.48,-105.12l-1226.5 -0.01c-1.87,2.81 -0.42,-0.16 -2.72,5.08 -9.86,22.38 -22.93,76.29 -27.31,97.92 -6.92,34.14 -10.6,74.38 -10.85,116.35l0 8.04c0.35,77.84 12.42,160.63 37.38,220.91l3.5 6.97z"/>
   <path class="fil1" d="M1267.38 881.81l-1226.5 0c2.73,31.39 64.48,134.04 90.52,167.3 53.11,67.85 131.24,140.8 210.11,180.83 29.11,14.77 57.71,29.66 89.98,40.34 66.34,21.95 128.41,34.63 189.85,37.98l66.14 0c60.64,-3.31 121.93,-15.74 187.37,-37.35 59.06,-19.5 125.18,-57.07 169.89,-90.75 56.51,-42.55 88.87,-76.95 131.01,-129.62l51.57 -78.75c7.92,-14.17 38.81,-75.59 40.06,-89.98z"/>
   <path class="fil2" d="M40.88 426.54l1226.5 0.01c-11.37,-47.23 -60.68,-126.67 -90.89,-167.02 -38.61,-51.53 -79.34,-91.4 -130.69,-129.94 -109.13,-81.93 -238.92,-125.14 -369.72,-129.59l-45.41 0c-129.94,4.49 -258.64,47.28 -366.76,128.49 -51.12,38.39 -93.16,78.94 -131.04,129.59 -31.73,42.42 -80.26,119.84 -91.99,168.46z"/>
  </g>
 </g>
</svg>
