<?xml version="1.0" encoding="UTF-8"?>
<!DOCTYPE svg PUBLIC "-//W3C//DTD SVG 1.1//EN" "http://www.w3.org/Graphics/SVG/1.1/DTD/svg11.dtd">
<!-- Creator: CorelDRAW 2021 (64 Bit) -->
<svg xmlns="http://www.w3.org/2000/svg" xml:space="preserve" width="13.2292mm" height="13.2292mm" version="1.1" style="shape-rendering:geometricPrecision; text-rendering:geometricPrecision; image-rendering:optimizeQuality; fill-rule:evenodd; clip-rule:evenodd"
viewBox="0 0 1308.26 1308.26"
 xmlns:xlink="http://www.w3.org/1999/xlink"
 xmlns:xodm="http://www.corel.com/coreldraw/odm/2003">
 <defs>
  <style type="text/css">
   <![CDATA[
    .fil1 {fill:#0051B3}
    .fil2 {fill:#D80027}
    .fil0 {fill:#FFD944}
   ]]>
  </style>
 </defs>
 <g id="Camada_x0020_1">
  <metadata id="CorelCorpID_0Corel-Layer"/>
  <g id="_2102887905952">
   <path class="fil0" d="M-0 654.13l1308.26 0c0,-107.06 -18.81,-177.08 -57.29,-269.78 -23.5,-56.59 -57.92,-103.08 -94.94,-150.37 -12.64,-16.15 -24.55,-28.76 -38.78,-42.99 -54.34,-54.34 -118.86,-99.35 -193.12,-133.95 -31.87,-14.85 -88.17,-33.86 -122.45,-41.09 -44.63,-9.4 -86.96,-14.73 -128.99,-15.96l-37.59 0c-41.88,1.23 -84.07,6.53 -128.57,15.95 -79.17,16.76 -160.99,55.25 -226.51,100.54 -61.82,42.72 -120.82,101.72 -163.54,163.54 -34.86,50.43 -62.7,103.68 -82.32,162.97 -23.4,70.72 -34.18,130.8 -34.18,211.12z"/>
   <path class="fil1" d="M86.88 981.19l1134.51 0.02 34.09 -68.13c11.01,-24.68 20.11,-49.41 27.8,-76.97 15.66,-56.2 24.99,-108.6 24.99,-181.98l-1308.26 0c0,73.8 9.25,125.5 24.99,181.98 7.43,26.61 16.32,51.35 26.99,75.23l34.9 69.85z"/>
   <path class="fil2" d="M1221.39 981.21l-1134.51 -0.02c17.96,33.98 44.6,67.59 68.61,97.49l26.54 29.67c122.83,121.43 272.76,199.92 472.1,199.92 198.16,0 348.68,-77.95 470.81,-198.65 6.33,-6.26 7.58,-7.62 13.2,-14.9 5.13,-6.63 8.44,-8.59 13.5,-14.61 22.71,-26.96 53.86,-68.92 69.75,-98.89z"/>
  </g>
 </g>
</svg>
