<?xml version="1.0" encoding="UTF-8"?>
<!DOCTYPE svg PUBLIC "-//W3C//DTD SVG 1.1//EN" "http://www.w3.org/Graphics/SVG/1.1/DTD/svg11.dtd">
<!-- Creator: CorelDRAW 2021 (64 Bit) -->
<svg xmlns="http://www.w3.org/2000/svg" xml:space="preserve" width="13.2292mm" height="13.2266mm" version="1.1" style="shape-rendering:geometricPrecision; text-rendering:geometricPrecision; image-rendering:optimizeQuality; fill-rule:evenodd; clip-rule:evenodd"
viewBox="0 0 1308.34 1308.09"
 xmlns:xlink="http://www.w3.org/1999/xlink"
 xmlns:xodm="http://www.corel.com/coreldraw/odm/2003">
 <defs>
  <style type="text/css">
   <![CDATA[
    .fil0 {fill:#496E2D}
    .fil3 {fill:#8C3A2A}
    .fil2 {fill:#D80027}
    .fil4 {fill:#E793A2}
    .fil1 {fill:#EEEEEE}
   ]]>
  </style>
 </defs>
 <g id="Camada_x0020_1">
  <metadata id="CorelCorpID_0Corel-Layer"/>
  <g id="_1361000915456">
   <path class="fil0" d="M1308.34 653.96l-364.82 -0.98 -2.27 15.15c-6.57,64.82 2.43,292.79 -2.55,326.53 -10.87,4.07 -206.14,3.73 -227.89,1.24 -3.63,-13.13 -3.01,-44.66 -0.55,-59.17l56.27 -0.23 0.14 -55.79c-2.74,-5.09 -47.78,-60.32 -53.72,-61.89l-117.55 0c-5.64,1.51 -51.02,57.03 -53.7,61.92l-1.14 114.41c-6.47,1.67 -96.56,3.89 -110.66,0.77l-3.44 -1.84 1.07 -55.67 55.99 0 0 -113.79 -255.95 -0.1 0.61 -113.69 55.97 -0.02 1.1 56.5c68.63,5.19 57.39,-2.93 94.75,-31.97 -9.48,-34.61 -10.32,-42.67 -10.24,-82.02l-369.76 0.64c0,265.53 151.49,489.18 384.14,597.07 38.2,17.71 79.08,30.46 122.31,41.23 36.05,8.99 74.12,14.13 112.81,15.82l58.02 0c88.33,-3.74 176.17,-24.25 246.92,-57.05 232.64,-107.89 384.14,-331.53 384.14,-597.07z"/>
   <path class="fil1" d="M-0 653.96l369.76 -0.64 -0.01 -98.19 -113.71 -0.84c2.59,-98.68 74.94,-156.71 168.16,-156.42 35.94,0.12 27.74,0.07 46.83,-19.11 25.69,-25.81 39.65,-42.2 95.97,-36.25 7.37,48.11 -6.68,61.03 -24.47,86.99l-0.26 166.49 132.75 -0.45c-23.3,-58.42 -33.07,-114.41 2.97,-170.83 26.25,-41.08 66.27,-78.4 134.51,-83.17 41.92,-2.93 173.64,-3.97 208.31,7.03 50.49,16.01 95.85,56.69 110.58,105.85 -38.89,7.21 -62.91,18.98 -82.19,42.51 -26.38,32.2 -24.53,53.02 -22.56,100.04 -47.13,1.49 -64.46,21.28 -83.1,56l364.82 0.98c0,-137.9 -40.07,-263.58 -116.5,-374.17 -88.6,-128.2 -236.34,-231.66 -390.09,-264.08 -138.58,-29.22 -288.98,-18.86 -417.61,41.08 -73.94,34.46 -139.01,79.85 -193.13,133.96 -54.34,54.34 -99.35,118.87 -133.96,193.13 -14.85,31.87 -33.86,88.18 -41.08,122.46 -10.48,49.67 -15.97,87.35 -15.97,147.63z"/>
   <path class="fil2" d="M369.76 653.32c-0.08,39.34 0.75,47.4 10.24,82.02 -37.36,29.05 -26.13,37.17 -94.75,31.97l-1.1 -56.5 -55.97 0.02 -0.61 113.69 255.95 0.1 0 113.79 -55.99 0 -1.07 55.67 112.76 0 0.16 -107.56c0.77,-4.2 1.32,-3.95 2.31,-5.78 2.68,-4.89 48.06,-60.41 53.7,-61.92l117.55 0c5.94,1.57 50.98,56.8 53.72,61.89l0.76 57.67 -55.76 0.89 0 54.81 226.14 0c-0.77,-35.79 -5.24,-318.33 3.44,-325.95l2.27 -15.15c18.64,-34.71 35.97,-54.5 83.1,-56 -1.97,-47.02 -3.82,-67.83 22.56,-100.04 19.29,-23.53 43.31,-35.3 82.19,-42.51 -14.73,-49.16 -60.09,-89.84 -110.58,-105.85 -34.67,-11 -166.39,-9.96 -208.31,-7.03 -68.24,4.78 -108.26,42.09 -134.51,83.17 -36.04,56.42 -26.27,112.41 -2.97,170.83 -8.6,7.64 -127.45,2.94 -134.89,1.18 -2.39,-25.6 -0.57,-59.43 -0.57,-85.92 0,-7.16 -3.2,-77.54 2.97,-81.3 17.79,-25.96 31.84,-38.88 24.47,-86.99 -56.32,-5.95 -70.28,10.43 -95.97,36.25 -19.09,19.18 -10.89,19.23 -46.83,19.11 -93.22,-0.3 -165.57,57.74 -168.16,156.42l113.71 0.84 0.01 98.19z"/>
   <path class="fil0" d="M824.83 938.41l56.93 0c-0.07,-72.57 7.84,-46.52 -45.11,-111.69 -6.35,-7.79 -1.29,-5.36 -11.82,-7.9l0 119.59z"/>
   <path class="fil3" d="M766.67 880.72l-0.14 55.79 -56.27 0.23c-2.45,14.51 -3.08,46.04 0.55,59.17 21.75,2.49 217.02,2.84 227.89,-1.24 4.98,-33.74 -4.02,-261.71 2.55,-326.53 -8.68,7.62 -4.21,290.16 -3.44,325.95l-226.14 0 0 -54.81 55.76 -0.89 -0.76 -57.67z"/>
   <path class="fil4" d="M675.02 595.56l-132.75 0.45 0.26 -166.49c-6.17,3.77 -2.97,74.14 -2.97,81.3 0,26.49 -1.82,60.32 0.57,85.92 7.44,1.76 126.28,6.47 134.89,-1.18z"/>
   <path class="fil3" d="M426.46 994.08l3.44 1.84c14.09,3.12 104.19,0.9 110.66,-0.77l1.14 -114.41c-1,1.83 -1.54,1.57 -2.31,5.78l-0.16 107.56 -112.76 0z"/>
  </g>
 </g>
</svg>
