<?xml version="1.0" encoding="UTF-8"?>
<!DOCTYPE svg PUBLIC "-//W3C//DTD SVG 1.1//EN" "http://www.w3.org/Graphics/SVG/1.1/DTD/svg11.dtd">
<!-- Creator: CorelDRAW 2021 (64 Bit) -->
<svg xmlns="http://www.w3.org/2000/svg" xml:space="preserve" width="13.2292mm" height="13.2292mm" version="1.1" style="shape-rendering:geometricPrecision; text-rendering:geometricPrecision; image-rendering:optimizeQuality; fill-rule:evenodd; clip-rule:evenodd"
viewBox="0 0 1308.26 1308.26"
 xmlns:xlink="http://www.w3.org/1999/xlink"
 xmlns:xodm="http://www.corel.com/coreldraw/odm/2003">
 <defs>
  <style type="text/css">
   <![CDATA[
    .fil0 {fill:#D80027}
    .fil2 {fill:#E690A0}
    .fil1 {fill:#F0F0F0}
   ]]>
  </style>
 </defs>
 <g id="Camada_x0020_1">
  <metadata id="CorelCorpID_0Corel-Layer"/>
  <g id="_2102894762688">
   <path class="fil0" d="M570.15 5.11l-1.33 564.66 -563.71 0.35c-2.51,10.12 -4.21,27.73 -5.11,48.03l0 72.02c0.9,20.27 2.6,37.86 5.11,47.95l564.69 1.31 0.33 563.71c10.11,2.51 27.7,4.21 47.98,5.11l72.03 0c20.28,-0.9 37.88,-2.6 47.98,-5.11l1.31 -564.66 563.71 -0.35c2.55,-10.3 4.25,-28.79 5.11,-50.02l0 -67.85c-0.86,-21.29 -2.56,-39.83 -5.11,-50.17l-564.69 -1.28 -0.34 -563.71c-10.09,-2.51 -27.73,-4.21 -48.09,-5.11l-71.92 0c-20.29,0.9 -37.89,2.6 -47.95,5.11z"/>
   <path class="fil1" d="M1303.15 567.3c-1.27,-57.37 -42.36,-163.58 -67.28,-213.84 -76.51,-154.26 -217.1,-267.63 -380.2,-322.48 -25.49,-8.58 -89.78,-25.33 -114.76,-25.87l0.05 562.14 562.19 0.05z"/>
   <path class="fil1" d="M5.11 567.38l562.19 -0.13 0.08 -562.14c-15.92,0.35 -42.97,7.17 -58.71,10.4 -18.73,3.85 -38.4,9.51 -56.08,15.47 -53.03,17.83 -95.89,36.97 -142.91,66.61 -16.11,10.15 -27.6,17.24 -42.85,28.7 -93.33,70.14 -172.46,163.52 -216.47,274.14 -13.63,34.27 -26.8,70.1 -34.4,106.13 -3.54,16.81 -10.47,43.68 -10.85,60.82z"/>
   <path class="fil1" d="M567.34 1303.15l-0.04 -562.14 -562.19 -0.09c1.26,57.44 40.46,159.81 67.28,213.88 76.07,153.36 218.41,268.08 380.2,322.48 25.59,8.61 89.85,25.33 114.75,25.87z"/>
   <path class="fil1" d="M740.92 1303.15c57.44,-1.26 159.81,-40.46 213.88,-67.28 70.09,-34.77 92.88,-59.95 144.31,-100.99 13.27,-10.58 54.24,-56.02 67.56,-72.97 5.82,-7.42 9.81,-12.83 15.3,-20.47 43.67,-60.74 71.08,-113.75 95.3,-185.77 8.6,-25.56 25.32,-89.84 25.87,-114.71l-562.18 0.05 -0.05 562.14z"/>
   <polygon class="fil2" points="1303.15,570.1 1303.15,567.3 740.96,567.26 740.91,5.11 738.12,5.11 738.46,568.83 "/>
   <polygon class="fil2" points="738.13,1303.15 740.92,1303.15 740.97,741.01 1303.15,740.96 1303.15,738.14 739.44,738.49 "/>
   <polygon class="fil2" points="567.34,1303.15 570.13,1303.15 569.81,739.44 5.11,738.13 5.11,740.92 567.3,741.01 "/>
   <polygon class="fil2" points="5.11,567.38 5.11,570.12 568.83,569.78 570.15,5.11 567.38,5.11 567.3,567.26 "/>
  </g>
 </g>
</svg>
